<svg width="78" height="56" viewBox="0 0 78 56" fill="none" xmlns="http://www.w3.org/2000/svg">
<g clip-path="url(#clip0_347_28)">
<mask id="path-1-outside-1_347_28" maskUnits="userSpaceOnUse" x="7.22855" y="-1.27904" width="58.7928" height="64.397" fill="black">
<rect fill="white" x="7.22855" y="-1.27904" width="58.7928" height="64.397"/>
<path fill-rule="evenodd" clip-rule="evenodd" d="M42.2905 4.21687C42.2351 4.25135 42.1108 4.24707 42.0142 4.20734C41.9177 4.16765 41.8092 4.16089 41.7729 4.19233C41.7368 4.22381 41.2829 4.22972 40.7642 4.20556C39.6127 4.15175 39.2586 4.14508 38.2345 4.15763C37.4985 4.16665 36.8578 4.15791 35.9685 4.12664C35.5491 4.1119 34.9929 4.40565 34.8374 4.724C34.7748 4.85218 34.681 4.93962 34.629 4.91824C34.5771 4.89686 34.4964 4.95741 34.4499 5.05281C34.4033 5.1482 34.424 5.25047 34.4958 5.28001C34.7067 5.36678 34.5726 5.79184 33.3479 8.92153C32.8518 10.1888 32.5612 11.0232 32.0943 12.5196C31.9281 13.0526 31.5259 14.0823 31.2005 14.8076C30.8753 15.533 30.4327 16.7096 30.217 17.4224C29.7813 18.863 29.7186 18.9366 29.1334 18.6958C28.9904 18.637 28.8282 18.6172 28.7728 18.6516C28.7174 18.6861 28.5677 18.6714 28.4401 18.6189C28.3125 18.5664 28.1163 18.53 28.004 18.5381C27.8917 18.5461 27.5342 18.5218 27.2094 18.4839C26.8845 18.4462 26.4417 18.4119 26.2253 18.4078C25.4647 18.3932 25.3813 18.3893 25.1546 18.3579C25.0211 18.3394 24.8526 18.4135 24.7492 18.5362C24.0979 19.3094 24.0903 19.3147 23.7664 19.2152C23.4159 19.1076 23.2548 19.2042 23.36 19.4589C23.4463 19.6678 22.4524 21.0278 22.0337 21.2738C21.8587 21.3766 21.7452 21.5375 21.6603 21.803C21.5933 22.0128 21.3825 22.6241 21.1919 23.1615C20.9377 23.8784 20.8799 24.1527 20.9752 24.1919C21.0506 24.2229 21.0606 24.3361 20.999 24.4621C20.9408 24.5813 20.9357 24.6964 20.9876 24.7177C21.0396 24.7391 21.0434 24.8359 20.9961 24.9327C20.9487 25.0297 20.9628 25.1577 21.0274 25.2171C21.0943 25.2788 21.0921 25.4333 21.0222 25.5763C20.9548 25.7143 20.9422 25.8447 20.9942 25.866C21.0461 25.8874 21.0693 25.9322 21.0457 25.9654C20.9245 26.1358 20.8843 26.3473 20.9752 26.3362C21.0319 26.3292 21.0112 26.4117 20.9292 26.5194C20.8425 26.6331 20.8242 26.7334 20.8854 26.7586C20.9435 26.7825 20.9606 26.8642 20.9235 26.9401C20.8864 27.0161 20.8926 27.2124 20.9373 27.3764C20.982 27.5405 20.9974 27.7183 20.9715 27.7714C20.9456 27.8246 20.9769 28.0302 21.0409 28.2282C21.1256 28.4899 21.1122 28.6533 20.9916 28.8271C20.9004 28.9586 20.8428 29.1226 20.8637 29.1916C21.0724 29.8782 21.1123 30.038 21.0879 30.0883C21.0603 30.145 21.4481 31.156 21.5068 31.1801C21.5231 31.1868 21.6795 31.5324 21.8545 31.9481C22.0294 32.3637 22.1997 32.715 22.2328 32.7286C22.266 32.7422 22.3493 32.8819 22.4179 33.0391C22.5923 33.4385 22.7885 33.7904 22.8512 33.8162C22.8803 33.8281 22.9342 33.9089 22.9711 33.9957C23.008 34.0825 23.1316 34.3091 23.2457 34.4992C23.3598 34.6894 23.4833 34.916 23.5203 35.0027C23.5572 35.0896 23.6111 35.1703 23.6402 35.1823C23.6931 35.204 23.882 35.5295 24.0176 35.8322C24.057 35.9201 24.1302 36.0087 24.1804 36.0294C24.2305 36.05 24.351 36.2402 24.448 36.4519C24.545 36.6637 24.7029 36.8692 24.7989 36.9087C25.3929 37.1531 25.2753 37.8516 24.4625 38.9054C24.1479 39.3134 23.0912 40.7479 22.3136 41.8226C21.9783 42.2861 21.2834 43.4531 20.7695 44.4159C19.8525 46.1338 19.2996 47.0449 18.544 48.0827C18.3354 48.3692 18.02 48.8019 17.843 49.0441C17.1844 49.9461 16.9208 50.4048 16.9997 50.5116C17.042 50.5689 17.0396 50.6914 16.9944 50.7841C16.877 51.0245 17.1029 51.0785 17.5783 50.9236C18.208 50.7182 18.5987 50.6854 18.7673 50.8236C18.8975 50.9303 19.4153 50.8942 19.7312 50.7564C19.8633 50.6988 20.6349 50.7135 20.7882 50.7765C20.8713 50.8107 20.9583 50.7997 20.9816 50.752C21.0049 50.7043 21.1515 50.7177 21.3074 50.7819C21.4964 50.8596 21.5697 50.9418 21.5273 51.0286C21.4924 51.1001 21.4195 51.1404 21.3654 51.1181C21.3112 51.0959 21.1375 51.1181 20.9794 51.1677C20.7441 51.2413 20.7198 51.2691 20.8458 51.321C20.9305 51.3558 21.0451 51.3561 21.1005 51.3216C21.156 51.2871 21.2838 51.2929 21.3847 51.3344C21.4856 51.3759 21.5871 51.3708 21.6104 51.3231C21.6337 51.2754 21.7378 51.2714 21.8418 51.3141C21.9457 51.3569 22.0498 51.3529 22.0731 51.3052C22.0964 51.2575 22.1792 51.2447 22.2572 51.2767C22.3351 51.3088 22.418 51.296 22.4413 51.2483C22.4645 51.2006 22.5334 51.1821 22.5943 51.2071C22.6551 51.2322 22.8147 51.2199 22.9487 51.18C23.2343 51.0948 23.6051 51.0512 24.0409 51.0515C24.2124 51.0517 24.3648 51.0273 24.3794 50.9973C24.3941 50.9673 24.6105 50.9423 24.8604 50.9418C25.1103 50.9413 25.3309 50.9078 25.3507 50.8673C25.3704 50.8269 25.4522 50.8207 25.5323 50.8537C25.6124 50.8867 25.7997 50.8755 25.9484 50.829C26.1216 50.7748 26.4158 50.808 26.7666 50.9214C27.0811 51.0231 27.3845 51.0634 27.4793 51.0162C27.5701 50.971 27.7175 50.9822 27.807 51.0413C27.9253 51.1193 27.9723 51.1056 27.9792 50.991C27.9857 50.8819 28.0238 50.8658 28.1026 50.9386C28.2341 51.0598 28.9976 51.0672 29.0559 50.9478C29.0774 50.9039 29.1475 50.9163 29.2117 50.9755C29.2782 51.0369 29.3823 51.0339 29.4539 50.9684C29.5231 50.9054 29.6062 50.8898 29.6388 50.9338C29.6713 50.9779 30.0565 50.9955 30.4947 50.9729C30.9327 50.9503 31.3593 50.9598 31.4426 50.9941C31.5258 51.0283 31.6246 51.0281 31.6623 50.9937C31.7351 50.927 32.9844 50.8994 33.1343 50.9611C33.1832 50.9811 33.4127 50.9819 33.6443 50.9626C33.8759 50.9433 34.128 50.9533 34.2043 50.9847C34.2807 51.0161 34.3623 51.0028 34.3856 50.9551C34.4088 50.9074 34.5104 50.9023 34.6113 50.9438C34.7122 50.9853 34.84 50.9911 34.8954 50.9566C35.0166 50.8811 34.6041 50.6955 34.4257 50.7452C34.357 50.7642 34.0841 50.7534 33.8191 50.721C33.3853 50.6679 32.6094 50.6182 32.0036 50.6047C31.8801 50.6019 31.6288 50.5677 31.445 50.5286C30.978 50.4293 31.1058 50.2106 31.6178 50.233C31.8316 50.2423 32.0316 50.1987 32.0623 50.136C32.0928 50.0734 32.1817 50.0484 32.2596 50.0804C32.3376 50.1125 32.4204 50.0997 32.4437 50.052C32.467 50.0043 32.5605 49.9959 32.6514 50.0332C32.7424 50.0706 32.988 50.0544 33.1973 49.9974C33.4065 49.9403 33.6347 49.9172 33.7047 49.9459C33.7745 49.9747 33.8486 49.9634 33.8694 49.9208C33.8902 49.8783 34.0163 49.8613 34.1497 49.883C34.286 49.9052 34.5108 49.8265 34.663 49.7033C34.8489 49.5528 35.0726 49.491 35.3769 49.506C35.6207 49.5181 35.8498 49.502 35.8861 49.4702C35.9225 49.4385 36.0336 49.4461 36.1332 49.487C36.2329 49.528 36.3334 49.5225 36.3567 49.4748C36.38 49.4271 36.4841 49.4231 36.588 49.4658C36.692 49.5086 36.7961 49.5046 36.8193 49.4569C36.8426 49.4092 36.9397 49.4022 37.0349 49.4414C37.1302 49.4806 37.2503 49.498 37.3019 49.4799C37.4784 49.4182 38.2106 49.5117 38.5131 49.6345C38.6792 49.7021 38.8605 49.7291 38.916 49.6946C38.9714 49.6601 39.1446 49.6845 39.3009 49.7488C39.5422 49.8481 39.589 49.8358 39.6099 49.6676C39.6314 49.4954 39.6776 49.4872 39.9638 49.605C40.145 49.6795 40.287 49.7956 40.2797 49.863C40.2696 49.9553 40.3342 49.9857 40.5411 49.9861C40.8201 49.9864 41.7972 48.3301 41.6112 48.1723C41.5758 48.1423 41.5898 47.9727 41.6422 47.7954C41.6947 47.6181 41.7318 47.353 41.7247 47.2063C41.7177 47.0594 41.7343 46.8305 41.7617 46.6974C41.7891 46.5644 41.7713 46.2289 41.7221 45.9521C41.5762 45.1314 41.7217 44.7793 42.2816 44.5983C43.31 44.2659 44.1737 44.0467 44.2811 44.0909C44.3436 44.1166 44.456 44.0746 44.5307 43.9977C44.6057 43.9207 44.7789 43.8084 44.9158 43.7479C45.8068 43.3547 45.8097 43.3521 46.9038 41.9413C47.6347 40.9988 48.0589 40.5085 48.75 39.8072C48.9221 39.6325 49.1194 39.374 49.1885 39.2325C49.2676 39.0705 49.3628 38.9955 49.4457 39.0296C49.7108 39.1386 50.1391 38.4128 50.4841 37.2697C50.7264 36.4669 53.1602 31.4893 53.3414 31.4259C53.4168 31.3996 53.547 31.2398 53.6307 31.0709C53.8568 30.615 55.6523 28.1905 55.9687 27.9138C56.1749 27.7336 56.6259 27.0752 56.894 26.5632C57.0368 26.2906 57.131 26.1945 57.1965 26.2549C57.2675 26.3203 57.3792 26.1509 57.6353 25.5889C57.8368 25.1468 58.0238 24.8392 58.0875 24.8451C58.2106 24.8566 59.9261 21.5048 59.8966 21.3107C59.8865 21.2446 59.8945 21.1503 59.9143 21.1012C59.9341 21.052 60.1035 20.6101 60.2909 20.1191C60.5991 19.3115 60.6531 19.2222 60.8575 19.1823C61.0689 19.1409 61.0783 19.1235 61.0038 18.9131C60.96 18.7895 60.9635 18.6078 61.0116 18.5093C61.1124 18.3029 60.976 18.1426 60.6581 18.0938C60.531 18.0743 60.457 18.0186 60.4841 17.963C60.5102 17.9097 60.4489 17.8322 60.348 17.7907C60.2471 17.7492 60.1574 17.6654 60.1486 17.6045C60.1397 17.5436 60.0313 17.4521 59.9075 17.4012C59.7837 17.3502 59.6752 17.2587 59.6664 17.1978C59.6575 17.1369 59.5253 17.0356 59.3724 16.9727C59.2196 16.9099 59.1136 16.8194 59.1369 16.7717C59.1602 16.724 59.033 16.6248 58.8541 16.5512C58.6753 16.4776 58.5218 16.3676 58.513 16.3067C58.5041 16.2458 58.3531 16.1368 58.1774 16.0645C58.0016 15.9922 57.8506 15.8832 57.8418 15.8223C57.8019 15.5462 56.9985 15.3578 56.8109 15.5804C56.7124 15.6973 56.3609 15.9968 56.0299 16.2459C55.6989 16.4949 55.3847 16.7875 55.3316 16.8959C55.1822 17.2015 54.4562 18.1008 52.6316 20.24C50.3272 22.9419 50.0632 23.2682 49.6842 23.8837C49.4066 24.3343 49.3332 24.4017 49.2306 24.3002C49.0183 24.0905 48.7977 23.967 47.5283 23.3477C46.8479 23.0157 46.1444 22.6529 45.9647 22.5415C45.7586 22.4137 45.6217 22.3725 45.5937 22.4299C45.5692 22.48 45.3839 22.4675 45.1817 22.4021C44.9117 22.3147 44.7643 22.3247 44.6257 22.4399C44.4973 22.5467 44.3559 22.5633 44.1828 22.4921C43.851 22.3555 43.5293 22.4748 43.3745 22.7918C43.2887 22.9673 43.2034 23.0264 43.0986 22.9833C42.9989 22.9423 42.9895 22.8818 43.0711 22.8072C43.1395 22.7448 43.2892 22.5017 43.4037 22.2671C43.5668 21.9333 43.645 21.8542 43.7639 21.9031C43.8635 21.9441 43.919 21.9103 43.9254 21.8048C43.9306 21.7164 43.9525 21.6082 43.9739 21.5644C43.9953 21.5206 43.9543 21.4607 43.8829 21.4313C43.7236 21.3658 43.4509 21.7058 43.1213 22.3808C42.8826 22.8695 42.8626 22.8862 42.6308 22.7909C42.3038 22.6563 41.637 22.1671 41.6749 22.0895C41.7332 21.9701 41.3202 21.6268 40.9206 21.4624C40.6996 21.3714 40.4926 21.2341 40.4607 21.1571C40.4017 21.0149 39.2514 20.5839 38.6978 20.4966C38.3767 20.446 38.3573 20.1826 38.6185 19.4217C38.7046 19.1707 38.8752 18.6082 38.9976 18.1717C39.3159 17.0366 40.338 14.2906 40.5184 14.086C40.6023 13.9909 40.738 13.6595 40.82 13.3496C41.1988 11.9187 41.2651 11.6187 41.7372 9.19658C41.8686 8.52294 42.1143 7.71422 42.3086 7.31643C42.4179 7.09269 42.4647 6.89221 42.4128 6.87083C42.3549 6.84704 42.5175 6.42402 42.8313 5.7815L43.3444 4.73095L43.0423 4.65249C42.8361 4.59902 42.758 4.53752 42.7963 4.45903C42.8617 4.32522 42.4405 4.12359 42.2905 4.21687ZM42.5317 5.93036C41.9337 7.15469 41.7722 7.2531 41.9674 6.27405C42.0902 5.65894 42.1195 5.59676 42.3203 5.52656C42.5928 5.43125 42.6087 5.39839 42.5129 5.12756C42.4173 4.85778 42.6115 4.66138 42.8692 4.76738C43.0518 4.84253 43.0356 4.89854 42.5317 5.93036ZM41.7326 5.24304C41.6614 5.3889 41.5619 5.68769 41.5115 5.90714C41.4611 6.12656 41.3369 6.60004 41.2353 6.95922C41.1339 7.31844 41.0293 7.74407 41.0029 7.90508C40.9766 8.06609 40.9212 8.37137 40.8799 8.5835C40.7364 9.32074 40.6064 10.144 40.4632 11.224C40.3839 11.8215 40.2233 12.6224 40.1063 13.0039C39.9892 13.3853 39.8623 13.8487 39.8243 14.0335C39.7862 14.2183 39.6123 14.7794 39.4378 15.2805C39.2634 15.7815 39.0461 16.442 38.955 16.7482C38.8638 17.0544 38.64 17.7824 38.4574 18.366C38.2749 18.9497 38.0362 19.7653 37.9269 20.1786C37.6344 21.2854 37.2052 22.0516 37.1568 21.5533C37.1467 21.4494 37.0875 21.3433 37.0252 21.3175C36.9629 21.2917 36.8983 21.0894 36.8817 20.8679C36.8397 20.3091 36.5124 20.1138 36.3106 20.527C36.1625 20.8303 35.9285 20.9707 35.7166 20.8835C35.649 20.8557 35.6402 20.7379 35.6971 20.6215C35.9009 20.2042 35.1912 19.9428 32.0426 19.2753C31.7881 19.2213 31.3766 19.123 31.1281 19.0567L30.6763 18.9363L30.9562 18.3632C31.1518 17.9627 31.2715 17.8049 31.3541 17.8389C31.4191 17.8657 31.4422 17.9489 31.4055 18.024C31.3646 18.1078 31.4085 18.1748 31.5193 18.1977C31.7589 18.2472 32.0152 17.6142 31.9795 17.0611C31.9655 16.8441 32.0475 16.3799 32.1615 16.0295C32.2756 15.6791 32.4944 14.9754 32.6478 14.4657C32.8012 13.956 33.025 13.3217 33.1452 13.0561C33.3912 12.5121 33.7584 11.4646 34.1822 10.098C34.692 8.45378 34.7732 8.16557 34.9177 7.48444C35.0624 6.80225 35.0885 6.64924 35.2258 5.6724C35.3467 4.81285 35.584 4.68372 37.1027 4.65139C37.3454 4.64618 37.6353 4.63659 37.7469 4.63001C37.8584 4.62343 38.0561 4.66183 38.1859 4.71524C38.7788 4.95917 41.2959 5.14449 41.5001 4.95918C41.7011 4.77693 41.8634 4.97516 41.7326 5.24304ZM58.1412 17.0966C58.3319 17.2866 58.5695 17.4756 58.6691 17.5165C58.7687 17.5575 58.8335 17.6252 58.8132 17.667C58.7928 17.7087 59.042 17.8519 59.3669 17.9853C60.5131 18.4556 60.5327 18.8226 59.4877 20.2425C58.5907 21.4614 57.8269 22.6649 56.5236 24.9135C55.822 26.1242 54.7268 27.7292 54.11 28.4509C53.9832 28.5992 53.6741 29.0813 53.423 29.5222C53.0089 30.2495 52.9361 30.3315 52.6368 30.4065L52.3069 30.4892L51.7018 31.7923C50.8295 33.6703 50.137 34.9769 50.005 34.993C49.9402 35.0009 49.5574 35.6815 49.1235 36.5598C48.5617 37.6971 48.2675 38.2016 48.0238 38.4445C47.8408 38.627 47.4803 39.1114 47.2227 39.5209C46.3598 40.8928 44.9243 42.7933 44.7921 42.7389C44.7248 42.7112 44.5425 42.7814 44.3872 42.8949C44.1896 43.0391 44.0594 43.0678 43.9543 42.9901C43.8384 42.9047 43.7409 42.9461 43.5301 43.17C43.3794 43.33 43.2183 43.4453 43.1719 43.4262C43.1255 43.4071 43.0225 43.4585 42.9429 43.5403C42.8633 43.6221 42.7571 43.6722 42.7069 43.6515C42.6566 43.6308 42.4337 43.6797 42.2114 43.7601C41.9892 43.8405 41.7853 43.8973 41.7585 43.8862C41.7317 43.8752 41.5447 43.9145 41.3432 43.9735C41.1417 44.0326 40.742 44.1493 40.4549 44.2329C40.1678 44.3166 39.8987 44.3708 39.8569 44.3536C39.8151 44.3364 39.7428 44.4004 39.6962 44.4958C39.592 44.7091 39.767 44.7899 40.2399 44.7465C40.6788 44.7062 40.8587 45.0239 40.7437 45.6364C40.7069 45.8324 40.669 46.1536 40.6596 46.3502C40.5857 47.8788 40.393 48.3234 39.8933 48.1179C39.7136 48.0439 39.4621 47.9902 39.3344 47.9984C39.1462 48.0105 38.7179 47.8987 38.0194 47.6552C37.9832 47.6426 37.872 47.6573 37.7722 47.6878C37.4204 47.7955 36.7963 47.8224 35.7979 47.7729C35.3326 47.7499 34.99 47.7459 34.2254 47.7546C33.8057 47.7594 33.4171 47.7447 33.3619 47.722C33.3066 47.6992 33.2424 47.7197 33.2191 47.7674C33.1958 47.8151 33.0942 47.8202 32.9933 47.7786C32.8924 47.7371 32.7646 47.7314 32.7092 47.7659C32.6538 47.8004 32.526 47.7946 32.425 47.7531C32.3241 47.7116 32.2226 47.7167 32.1993 47.7644C32.176 47.8121 32.0719 47.8161 31.968 47.7734C31.864 47.7306 31.7599 47.7346 31.7366 47.7823C31.7133 47.83 31.6197 47.8386 31.5288 47.8014C31.3765 47.7391 30.6203 47.7833 30.4484 47.8644C30.4078 47.8836 30.221 47.9001 30.0333 47.9011C29.8456 47.9021 29.5588 47.9143 29.3959 47.9283C29.2331 47.9422 28.908 47.9546 28.6733 47.9557C28.4388 47.9569 28.2322 47.9877 28.2144 48.0242C28.1966 48.0606 28.097 48.0554 27.993 48.0127C27.8891 47.9699 27.7873 47.9692 27.7668 48.0111C27.7464 48.053 27.5784 48.0834 27.3936 48.0785C27.2087 48.0735 27.0407 48.1039 27.0203 48.1458C26.9998 48.1877 26.9193 48.1958 26.8413 48.1637C26.7634 48.1316 26.6805 48.1444 26.6572 48.1921C26.6339 48.2398 26.5604 48.2564 26.494 48.2291C26.4275 48.2017 26.2737 48.2322 26.1522 48.2968C26.0307 48.3613 25.8769 48.3918 25.8104 48.3644C25.744 48.3371 25.6752 48.3442 25.6575 48.3803C25.6399 48.4164 25.4603 48.4445 25.2582 48.4428C24.6181 48.4375 23.756 48.6027 23.4762 48.784C23.3275 48.8805 23.1629 48.9416 23.1103 48.9199C23.0575 48.8982 22.7719 48.9213 22.4754 48.9712C22.179 49.021 21.8909 49.0431 21.8353 49.0202C21.7796 48.9973 21.7151 49.0177 21.6918 49.0654C21.6685 49.1131 21.5857 49.1259 21.5078 49.0938C21.4298 49.0617 21.347 49.0745 21.3237 49.1222C21.3004 49.1699 21.2358 49.1902 21.1801 49.1673C21.1244 49.1444 20.9991 49.1514 20.9015 49.1828C20.497 49.3133 20.169 49.3762 20.0813 49.3401C20.0299 49.3189 19.9688 49.3407 19.9455 49.3884C19.9222 49.4361 19.8431 49.4504 19.7698 49.4202C19.6965 49.3901 19.472 49.4383 19.2709 49.5274C18.458 49.8877 18.5 49.7922 19.8915 48.1164C21.5119 46.165 21.5337 46.1364 21.7809 45.6303C21.9045 45.3772 22.2554 44.8544 22.5606 44.4684C22.8659 44.0826 23.2822 43.437 23.4857 43.0339C23.6893 42.6307 23.9659 42.1824 24.1004 42.0377C24.2349 41.8929 24.406 41.6493 24.4807 41.4963C24.5554 41.3433 24.6928 41.212 24.7859 41.2043C24.9108 41.1942 25.0897 40.9454 25.4677 40.256C25.7496 39.742 26.1001 39.1469 26.2465 38.9334L26.5127 38.5453L27.3513 38.9535C27.8125 39.1781 28.2801 39.4383 28.3904 39.5319C28.6921 39.7876 29.3118 40.1059 29.4705 40.0865C29.7046 40.058 29.6494 39.7375 29.3923 39.6317C29.261 39.5777 29.0172 39.4346 28.8505 39.3137C28.6839 39.1928 28.3367 38.9507 28.0789 38.7756C27.2968 38.2442 26.4458 37.0369 26.6937 36.8105C26.7592 36.7507 26.6821 36.6209 26.481 36.4523C26.3075 36.3069 26.1815 36.1551 26.2011 36.1151C26.2207 36.075 26.1838 36.02 26.119 35.9928C26.0542 35.9658 25.9071 35.734 25.7922 35.4779C25.6581 35.1793 25.5429 35.0374 25.4707 35.0823C25.3453 35.1604 24.9677 34.9231 25.0263 34.803C25.0469 34.761 25 34.7002 24.922 34.6682C24.8441 34.6361 24.7993 34.5708 24.8226 34.5231C24.8459 34.4754 24.8012 34.4102 24.7233 34.3781C24.6453 34.346 24.6006 34.2808 24.6239 34.2331C24.6472 34.1854 24.6025 34.1201 24.5245 34.088C24.4466 34.056 24.3983 33.998 24.4172 33.9592C24.4362 33.9204 24.329 33.7738 24.1791 33.6335C24.0292 33.4932 23.9221 33.3466 23.9411 33.3078C23.96 33.269 23.9117 33.211 23.8338 33.179C23.7558 33.1469 23.7097 33.0844 23.7314 33.0401C23.753 32.9959 23.741 32.8854 23.7047 32.7948C23.4935 32.2677 23.5064 31.8987 23.7327 31.9918C23.8107 32.0239 23.8935 32.0111 23.9168 31.9634C23.9401 31.9157 23.8695 31.8398 23.7599 31.7947C23.6503 31.7496 23.5069 31.5986 23.4414 31.4593C23.0484 30.6241 22.9826 30.4559 22.9302 30.1515C22.7837 29.2998 22.7162 27.8694 22.8019 27.4354C22.8288 27.299 22.8144 26.9981 22.7699 26.7666C22.7253 26.5351 22.7065 26.3097 22.7281 26.2655C22.7496 26.2215 22.7551 25.9954 22.74 25.7632C22.725 25.5311 22.7951 25.0546 22.8957 24.7045C23.0782 24.0686 23.0513 23.7251 22.8208 23.7533C22.7537 23.7614 22.6783 23.874 22.6533 24.0034C22.6283 24.1329 22.5747 24.2251 22.5342 24.2084C22.4157 24.1596 22.2507 23.758 22.3041 23.6485C22.3311 23.5933 22.347 23.3516 22.3395 23.1114C22.3222 22.5563 22.549 22.0637 22.8099 22.0901C23.0098 22.1103 23.6622 21.4224 24.2942 20.5253C24.4762 20.267 24.7178 20.0234 24.831 19.9837C24.9443 19.9441 25.069 19.846 25.1083 19.7657C25.2491 19.4773 25.7313 19.597 27.7396 20.4187C28.8059 20.8549 29.8671 21.2437 30.0978 21.2825C30.3285 21.3213 30.7196 21.4352 30.967 21.5357C31.2388 21.6459 31.4359 21.6792 31.465 21.6195C31.4994 21.5492 31.3209 21.4636 30.8445 21.3219C29.2467 20.8469 28.5596 20.5983 28.603 20.5113C28.6647 20.3876 29.2098 20.3936 29.5208 20.5216C29.6633 20.5802 29.8202 20.6031 29.8695 20.5724C29.9188 20.5417 30.1079 20.5526 30.2899 20.5967C30.4717 20.6407 30.8338 20.7106 31.0944 20.752C31.8008 20.8643 32.6862 21.094 33.587 21.3987C34.4595 21.6938 34.7608 21.6359 33.994 21.3205C33.7342 21.2136 33.5406 21.0871 33.5639 21.0394C33.5872 20.9917 33.7253 21.0016 33.8709 21.0615C34.0164 21.1214 34.1924 21.1532 34.2619 21.132C34.4483 21.0756 35.0604 21.228 35.0156 21.3198C34.9945 21.3631 35.0594 21.4652 35.16 21.5468C35.3501 21.701 35.4177 21.8807 35.3445 22.0368C35.321 22.0869 35.0214 22.1008 34.6787 22.0677C34.336 22.0346 33.9996 22.023 33.931 22.042C33.7288 22.0979 34.1349 22.2222 34.6543 22.2635C35.0838 22.2976 35.1422 22.3218 35.2281 22.5011C35.2806 22.6108 35.3717 22.7204 35.4306 22.7447C35.762 22.881 35.2854 23.8932 34.6355 24.4336C33.5304 25.3527 33.0376 25.7177 32.9503 25.6818C32.8101 25.6241 31.3613 25.6812 31.2835 25.7474C31.2479 25.7777 31.1372 25.7691 31.0377 25.7281C30.9381 25.6871 30.8375 25.6926 30.8142 25.7403C30.7909 25.788 30.7032 25.7988 30.6193 25.7643C30.5355 25.7298 30.2756 25.7129 30.0419 25.7267C29.5087 25.7583 28.9471 25.7012 28.6699 25.5871C28.5032 25.5186 28.449 25.5416 28.4214 25.6932C28.3928 25.8496 28.3396 25.8678 28.1447 25.7876C28.0075 25.7312 27.7127 25.7464 27.4618 25.823L27.0202 25.9575L27.4572 25.9923C28.2538 26.0557 29.7679 26.6189 29.9789 26.9302C30.0782 27.0769 30.2452 27.2828 30.35 27.3877C30.5311 27.5693 30.6459 27.6799 31.1441 28.1542C31.2632 28.2677 31.4437 28.3947 31.5452 28.4364C31.6467 28.4782 31.7107 28.5514 31.6874 28.5991C31.6641 28.6468 31.7275 28.7197 31.8284 28.7613C31.9294 28.8028 32.0191 28.8865 32.0279 28.9475C32.0367 29.0084 32.123 29.0907 32.2197 29.1305C32.4202 29.213 32.844 29.7123 32.7971 29.8107C32.7799 29.8466 32.8141 29.8958 32.8731 29.9201C32.9322 29.9444 33.0301 30.0901 33.0907 30.2439C33.1514 30.3978 33.3414 30.8313 33.5128 31.207C33.6842 31.5829 33.8104 31.9192 33.7932 31.9545C33.776 31.9898 33.8245 32.2826 33.901 32.6051C33.9775 32.9277 34.0615 33.3045 34.0877 33.4425C34.114 33.5805 34.1659 33.7716 34.2031 33.8672C34.2889 34.0875 34.2186 35.0333 34.098 35.2803C34.004 35.4726 34.1187 35.6399 34.4336 35.7694C34.5462 35.8158 34.5957 35.9331 34.5664 36.0844C34.5407 36.2171 34.5577 36.3412 34.604 36.3603C34.7567 36.4231 34.8181 36.1384 34.7485 35.6907C34.6657 35.1579 34.7075 35.0489 34.9554 35.1509C35.0594 35.1937 35.1635 35.1897 35.1868 35.142C35.21 35.0943 35.1954 35.0414 35.1542 35.0244C35.113 35.0075 35.1046 34.7463 35.1356 34.444C35.1665 34.1416 35.163 33.8824 35.1279 33.868C35.0027 33.8165 35.0633 33.3539 35.2227 33.1448C35.3984 32.9142 36.4765 33.2282 36.6096 33.5488C36.65 33.6463 36.7356 33.676 36.9123 33.6536C37.2045 33.6166 37.3967 33.8698 37.2713 34.1265C37.1994 34.2737 37.3135 34.4566 37.5894 34.6368C37.6604 34.6831 37.9516 34.871 38.2366 35.0543C38.5215 35.2376 38.7634 35.4417 38.7741 35.5079C38.8103 35.7323 42.2209 37.0211 42.3741 36.8684C42.4276 36.815 42.3949 36.7149 42.3016 36.646C42.0754 36.4791 42.1012 36.2376 42.3546 36.149C42.4899 36.1017 42.6504 35.8964 42.8272 35.5441C43.1698 34.8617 43.7931 34.0743 43.9773 34.0912C44.0914 34.1016 44.0336 34.2474 43.6865 34.8244C43.4176 35.2713 43.2877 35.5587 43.3441 35.5819C43.3955 35.6031 43.7428 35.0566 44.1442 34.3229C45.0212 32.7198 45.2878 32.3199 45.4382 32.3817C45.5246 32.4173 45.4605 32.5942 45.1919 33.0615C44.9402 33.4993 44.8615 33.7067 44.9356 33.7372C44.9974 33.7626 45.1141 33.6346 45.212 33.4343C45.3052 33.2435 45.4199 33.1033 45.4671 33.1227C45.5143 33.1421 45.6856 32.9431 45.8478 32.6805C47.6962 29.6881 48.6899 27.7808 48.9136 26.7955C48.9922 26.4494 49.0848 26.2299 49.157 26.2187C49.261 26.2027 49.4952 25.8762 50.6931 24.077C50.8727 23.8072 51.3994 23.1568 51.8634 22.6317C52.5075 21.9028 52.8054 21.4833 53.1229 20.8587C53.3518 20.4087 53.7449 19.7971 53.9965 19.4997C54.2482 19.2022 54.5723 18.8201 54.7165 18.6503C54.8609 18.4806 55.1096 18.1611 55.2691 17.9403C55.8911 17.0799 56.1162 16.8809 56.8139 16.5745C57.2758 16.3717 57.5034 16.4612 58.1412 17.0966ZM46.7298 24.365C48.6955 25.2712 48.7753 25.3397 48.3886 25.7866C48.2613 25.9336 47.9022 26.5114 47.5907 27.0706C47.0109 28.1112 46.0916 29.4357 45.806 29.6416C45.7183 29.7049 45.5665 29.9204 45.4688 30.1203C45.3712 30.3203 45.1927 30.5873 45.0722 30.7136C44.9516 30.8399 44.492 31.5681 44.0509 32.3317C43.6097 33.0954 43.0965 33.8918 42.9104 34.1017C42.7242 34.3115 42.3977 34.763 42.1848 35.105C41.6066 36.0338 41.5357 36.0251 39.0021 34.7185C37.6472 34.0197 37.7074 34.2153 38.3502 32.5994C38.6141 31.9357 38.8598 31.2222 38.8961 31.0138C38.9586 30.655 39.7759 28.9587 40.0252 28.6707C40.2007 28.4678 40.3092 28.568 40.2959 28.9203C40.2859 29.185 40.4193 28.9471 41.1224 27.4479C41.8056 25.9911 42.0357 25.5776 42.3644 25.2168C42.5862 24.9732 42.8479 24.6678 42.9457 24.5381C43.2392 24.1492 44.0545 24.096 43.7726 24.4843C43.6291 24.682 44.0106 24.8256 44.1599 24.6302C44.2917 24.4577 44.1823 24.2662 43.8794 24.1393C43.7012 24.0646 43.6905 24.0033 43.8122 23.7541C44.1274 23.1087 43.9031 23.0617 46.7298 24.365ZM42.4195 23.4908C42.4263 23.777 42.383 23.8994 42.2348 24.0136C42.0137 24.1837 41.8104 24.4304 41.3249 25.1176C40.3238 26.5342 39.9934 26.9408 39.8237 26.9652C39.665 26.988 37.9794 30.5288 37.9998 30.7965C38.0095 30.924 37.8492 31.1676 37.498 31.5587C37.2142 31.8749 36.9704 32.2261 36.9563 32.3391C36.9316 32.5365 36.9061 32.5324 36.3056 32.2342C35.0562 31.6137 34.5497 31.1027 34.759 30.674C34.8948 30.3959 34.255 29.343 33.8486 29.1758C33.6244 29.0836 33.617 28.7698 33.827 28.2634C33.9418 27.9868 34.0069 27.7211 33.9717 27.6731C33.7772 27.408 34.2775 26.8527 34.5935 26.9827C34.6667 27.0129 34.7797 26.989 34.8445 26.9298C34.9094 26.8706 35.043 26.8552 35.1413 26.8957C35.2397 26.9361 35.3281 26.953 35.3379 26.933C35.3476 26.9131 35.4197 26.8372 35.4981 26.7646C35.6232 26.6486 35.6142 26.6389 35.4247 26.6855C35.0855 26.7688 34.9522 26.5611 35.1217 26.2139C35.2821 25.8855 35.6632 25.9035 35.7666 26.2445C35.8551 26.5362 36.2867 26.6705 36.3199 26.4166C36.3357 26.2946 36.3281 26.1628 36.3028 26.1237C36.2775 26.0847 36.306 25.886 36.3662 25.682C36.4264 25.4781 36.4387 25.2801 36.3934 25.242C36.158 25.0433 37.7321 22.4007 38.2157 22.1827C38.3011 22.1442 38.3561 22.0769 38.338 22.0332C38.2975 21.9357 38.8797 21.7765 39.0452 21.8398C39.1109 21.865 39.1427 21.9305 39.1159 21.9854C39.0807 22.0574 39.3242 22.1728 39.9912 22.4004C40.5671 22.5968 40.8998 22.7473 40.8741 22.7999C40.8514 22.8463 40.9519 22.9333 41.0974 22.9932C41.4557 23.1406 41.5176 23.3409 41.3262 23.733C41.2376 23.9142 41.2077 24.08 41.2597 24.1014C41.3117 24.1228 41.4388 23.967 41.5423 23.7551C41.6458 23.5433 41.7868 23.3631 41.856 23.3547C41.925 23.3463 41.9922 23.254 42.0052 23.1496C42.051 22.7833 42.4098 23.0787 42.4195 23.4908ZM38.669 22.382C38.8293 22.4711 39.0846 22.5757 39.2363 22.6144C39.388 22.6529 39.2567 22.58 38.9447 22.4522C38.6327 22.3244 38.5086 22.2928 38.669 22.382ZM44.6189 24.8324C44.3434 24.7817 44.3255 24.9461 44.5944 25.0568C44.7243 25.1102 44.8485 25.1173 44.8705 25.0723C44.9257 24.9594 44.8341 24.8721 44.6189 24.8324ZM33.0132 21.8184C32.6195 21.7301 32.1483 21.6234 31.966 21.5813C31.7837 21.5392 31.6187 21.5373 31.5993 21.5769C31.5547 21.6682 32.4604 21.9453 32.6309 21.8926C32.7007 21.871 32.9092 21.9149 33.094 21.9901C33.4081 22.1177 33.8227 22.1423 33.758 22.0293C33.7421 22.0017 33.407 21.9067 33.0132 21.8184ZM39.9491 29.9448C39.6382 30.706 39.5915 30.9425 39.7558 30.9224C39.9376 30.9002 40.3242 30.0051 40.2289 29.8272C40.1819 29.7394 40.1635 29.5738 40.1881 29.4591C40.2126 29.3445 40.1051 29.5631 39.9491 29.9448ZM32.8293 27.2723C32.814 27.3662 32.7859 27.5422 32.7671 27.6634C32.7387 27.8471 32.6968 27.8682 32.5153 27.7907C32.2595 27.6816 32.0566 27.3784 32.1337 27.2205C32.2672 26.9472 32.8752 26.9925 32.8293 27.2723ZM22.5478 28.9389C22.6121 29.382 22.4857 29.6905 22.2451 29.6784C21.9932 29.6657 21.9736 29.5137 22.1537 28.9728C22.3403 28.4122 22.47 28.4011 22.5478 28.9389ZM24.1946 42.5965L23.7954 43.4216L24.146 42.9127C24.3589 42.6036 24.5157 42.2794 24.5452 42.0875C24.5835 41.8386 24.5088 41.947 24.1946 42.5965ZM36.4039 50.8884C36.2168 50.8881 35.9188 50.8834 35.7419 50.8779C35.2017 50.8609 35.4471 51.0182 36.0104 51.05C36.6297 51.0849 37.0976 51.0282 36.8843 50.944C36.8072 50.9136 36.591 50.8886 36.4039 50.8884Z"/>
</mask>
<path fill-rule="evenodd" clip-rule="evenodd" d="M42.2905 4.21687C42.2351 4.25135 42.1108 4.24707 42.0142 4.20734C41.9177 4.16765 41.8092 4.16089 41.7729 4.19233C41.7368 4.22381 41.2829 4.22972 40.7642 4.20556C39.6127 4.15175 39.2586 4.14508 38.2345 4.15763C37.4985 4.16665 36.8578 4.15791 35.9685 4.12664C35.5491 4.1119 34.9929 4.40565 34.8374 4.724C34.7748 4.85218 34.681 4.93962 34.629 4.91824C34.5771 4.89686 34.4964 4.95741 34.4499 5.05281C34.4033 5.1482 34.424 5.25047 34.4958 5.28001C34.7067 5.36678 34.5726 5.79184 33.3479 8.92153C32.8518 10.1888 32.5612 11.0232 32.0943 12.5196C31.9281 13.0526 31.5259 14.0823 31.2005 14.8076C30.8753 15.533 30.4327 16.7096 30.217 17.4224C29.7813 18.863 29.7186 18.9366 29.1334 18.6958C28.9904 18.637 28.8282 18.6172 28.7728 18.6516C28.7174 18.6861 28.5677 18.6714 28.4401 18.6189C28.3125 18.5664 28.1163 18.53 28.004 18.5381C27.8917 18.5461 27.5342 18.5218 27.2094 18.4839C26.8845 18.4462 26.4417 18.4119 26.2253 18.4078C25.4647 18.3932 25.3813 18.3893 25.1546 18.3579C25.0211 18.3394 24.8526 18.4135 24.7492 18.5362C24.0979 19.3094 24.0903 19.3147 23.7664 19.2152C23.4159 19.1076 23.2548 19.2042 23.36 19.4589C23.4463 19.6678 22.4524 21.0278 22.0337 21.2738C21.8587 21.3766 21.7452 21.5375 21.6603 21.803C21.5933 22.0128 21.3825 22.6241 21.1919 23.1615C20.9377 23.8784 20.8799 24.1527 20.9752 24.1919C21.0506 24.2229 21.0606 24.3361 20.999 24.4621C20.9408 24.5813 20.9357 24.6964 20.9876 24.7177C21.0396 24.7391 21.0434 24.8359 20.9961 24.9327C20.9487 25.0297 20.9628 25.1577 21.0274 25.2171C21.0943 25.2788 21.0921 25.4333 21.0222 25.5763C20.9548 25.7143 20.9422 25.8447 20.9942 25.866C21.0461 25.8874 21.0693 25.9322 21.0457 25.9654C20.9245 26.1358 20.8843 26.3473 20.9752 26.3362C21.0319 26.3292 21.0112 26.4117 20.9292 26.5194C20.8425 26.6331 20.8242 26.7334 20.8854 26.7586C20.9435 26.7825 20.9606 26.8642 20.9235 26.9401C20.8864 27.0161 20.8926 27.2124 20.9373 27.3764C20.982 27.5405 20.9974 27.7183 20.9715 27.7714C20.9456 27.8246 20.9769 28.0302 21.0409 28.2282C21.1256 28.4899 21.1122 28.6533 20.9916 28.8271C20.9004 28.9586 20.8428 29.1226 20.8637 29.1916C21.0724 29.8782 21.1123 30.038 21.0879 30.0883C21.0603 30.145 21.4481 31.156 21.5068 31.1801C21.5231 31.1868 21.6795 31.5324 21.8545 31.9481C22.0294 32.3637 22.1997 32.715 22.2328 32.7286C22.266 32.7422 22.3493 32.8819 22.4179 33.0391C22.5923 33.4385 22.7885 33.7904 22.8512 33.8162C22.8803 33.8281 22.9342 33.9089 22.9711 33.9957C23.008 34.0825 23.1316 34.3091 23.2457 34.4992C23.3598 34.6894 23.4833 34.916 23.5203 35.0027C23.5572 35.0896 23.6111 35.1703 23.6402 35.1823C23.6931 35.204 23.882 35.5295 24.0176 35.8322C24.057 35.9201 24.1302 36.0087 24.1804 36.0294C24.2305 36.05 24.351 36.2402 24.448 36.4519C24.545 36.6637 24.7029 36.8692 24.7989 36.9087C25.3929 37.1531 25.2753 37.8516 24.4625 38.9054C24.1479 39.3134 23.0912 40.7479 22.3136 41.8226C21.9783 42.2861 21.2834 43.4531 20.7695 44.4159C19.8525 46.1338 19.2996 47.0449 18.544 48.0827C18.3354 48.3692 18.02 48.8019 17.843 49.0441C17.1844 49.9461 16.9208 50.4048 16.9997 50.5116C17.042 50.5689 17.0396 50.6914 16.9944 50.7841C16.877 51.0245 17.1029 51.0785 17.5783 50.9236C18.208 50.7182 18.5987 50.6854 18.7673 50.8236C18.8975 50.9303 19.4153 50.8942 19.7312 50.7564C19.8633 50.6988 20.6349 50.7135 20.7882 50.7765C20.8713 50.8107 20.9583 50.7997 20.9816 50.752C21.0049 50.7043 21.1515 50.7177 21.3074 50.7819C21.4964 50.8596 21.5697 50.9418 21.5273 51.0286C21.4924 51.1001 21.4195 51.1404 21.3654 51.1181C21.3112 51.0959 21.1375 51.1181 20.9794 51.1677C20.7441 51.2413 20.7198 51.2691 20.8458 51.321C20.9305 51.3558 21.0451 51.3561 21.1005 51.3216C21.156 51.2871 21.2838 51.2929 21.3847 51.3344C21.4856 51.3759 21.5871 51.3708 21.6104 51.3231C21.6337 51.2754 21.7378 51.2714 21.8418 51.3141C21.9457 51.3569 22.0498 51.3529 22.0731 51.3052C22.0964 51.2575 22.1792 51.2447 22.2572 51.2767C22.3351 51.3088 22.418 51.296 22.4413 51.2483C22.4645 51.2006 22.5334 51.1821 22.5943 51.2071C22.6551 51.2322 22.8147 51.2199 22.9487 51.18C23.2343 51.0948 23.6051 51.0512 24.0409 51.0515C24.2124 51.0517 24.3648 51.0273 24.3794 50.9973C24.3941 50.9673 24.6105 50.9423 24.8604 50.9418C25.1103 50.9413 25.3309 50.9078 25.3507 50.8673C25.3704 50.8269 25.4522 50.8207 25.5323 50.8537C25.6124 50.8867 25.7997 50.8755 25.9484 50.829C26.1216 50.7748 26.4158 50.808 26.7666 50.9214C27.0811 51.0231 27.3845 51.0634 27.4793 51.0162C27.5701 50.971 27.7175 50.9822 27.807 51.0413C27.9253 51.1193 27.9723 51.1056 27.9792 50.991C27.9857 50.8819 28.0238 50.8658 28.1026 50.9386C28.2341 51.0598 28.9976 51.0672 29.0559 50.9478C29.0774 50.9039 29.1475 50.9163 29.2117 50.9755C29.2782 51.0369 29.3823 51.0339 29.4539 50.9684C29.5231 50.9054 29.6062 50.8898 29.6388 50.9338C29.6713 50.9779 30.0565 50.9955 30.4947 50.9729C30.9327 50.9503 31.3593 50.9598 31.4426 50.9941C31.5258 51.0283 31.6246 51.0281 31.6623 50.9937C31.7351 50.927 32.9844 50.8994 33.1343 50.9611C33.1832 50.9811 33.4127 50.9819 33.6443 50.9626C33.8759 50.9433 34.128 50.9533 34.2043 50.9847C34.2807 51.0161 34.3623 51.0028 34.3856 50.9551C34.4088 50.9074 34.5104 50.9023 34.6113 50.9438C34.7122 50.9853 34.84 50.9911 34.8954 50.9566C35.0166 50.8811 34.6041 50.6955 34.4257 50.7452C34.357 50.7642 34.0841 50.7534 33.8191 50.721C33.3853 50.6679 32.6094 50.6182 32.0036 50.6047C31.8801 50.6019 31.6288 50.5677 31.445 50.5286C30.978 50.4293 31.1058 50.2106 31.6178 50.233C31.8316 50.2423 32.0316 50.1987 32.0623 50.136C32.0928 50.0734 32.1817 50.0484 32.2596 50.0804C32.3376 50.1125 32.4204 50.0997 32.4437 50.052C32.467 50.0043 32.5605 49.9959 32.6514 50.0332C32.7424 50.0706 32.988 50.0544 33.1973 49.9974C33.4065 49.9403 33.6347 49.9172 33.7047 49.9459C33.7745 49.9747 33.8486 49.9634 33.8694 49.9208C33.8902 49.8783 34.0163 49.8613 34.1497 49.883C34.286 49.9052 34.5108 49.8265 34.663 49.7033C34.8489 49.5528 35.0726 49.491 35.3769 49.506C35.6207 49.5181 35.8498 49.502 35.8861 49.4702C35.9225 49.4385 36.0336 49.4461 36.1332 49.487C36.2329 49.528 36.3334 49.5225 36.3567 49.4748C36.38 49.4271 36.4841 49.4231 36.588 49.4658C36.692 49.5086 36.7961 49.5046 36.8193 49.4569C36.8426 49.4092 36.9397 49.4022 37.0349 49.4414C37.1302 49.4806 37.2503 49.498 37.3019 49.4799C37.4784 49.4182 38.2106 49.5117 38.5131 49.6345C38.6792 49.7021 38.8605 49.7291 38.916 49.6946C38.9714 49.6601 39.1446 49.6845 39.3009 49.7488C39.5422 49.8481 39.589 49.8358 39.6099 49.6676C39.6314 49.4954 39.6776 49.4872 39.9638 49.605C40.145 49.6795 40.287 49.7956 40.2797 49.863C40.2696 49.9553 40.3342 49.9857 40.5411 49.9861C40.8201 49.9864 41.7972 48.3301 41.6112 48.1723C41.5758 48.1423 41.5898 47.9727 41.6422 47.7954C41.6947 47.6181 41.7318 47.353 41.7247 47.2063C41.7177 47.0594 41.7343 46.8305 41.7617 46.6974C41.7891 46.5644 41.7713 46.2289 41.7221 45.9521C41.5762 45.1314 41.7217 44.7793 42.2816 44.5983C43.31 44.2659 44.1737 44.0467 44.2811 44.0909C44.3436 44.1166 44.456 44.0746 44.5307 43.9977C44.6057 43.9207 44.7789 43.8084 44.9158 43.7479C45.8068 43.3547 45.8097 43.3521 46.9038 41.9413C47.6347 40.9988 48.0589 40.5085 48.75 39.8072C48.9221 39.6325 49.1194 39.374 49.1885 39.2325C49.2676 39.0705 49.3628 38.9955 49.4457 39.0296C49.7108 39.1386 50.1391 38.4128 50.4841 37.2697C50.7264 36.4669 53.1602 31.4893 53.3414 31.4259C53.4168 31.3996 53.547 31.2398 53.6307 31.0709C53.8568 30.615 55.6523 28.1905 55.9687 27.9138C56.1749 27.7336 56.6259 27.0752 56.894 26.5632C57.0368 26.2906 57.131 26.1945 57.1965 26.2549C57.2675 26.3203 57.3792 26.1509 57.6353 25.5889C57.8368 25.1468 58.0238 24.8392 58.0875 24.8451C58.2106 24.8566 59.9261 21.5048 59.8966 21.3107C59.8865 21.2446 59.8945 21.1503 59.9143 21.1012C59.9341 21.052 60.1035 20.6101 60.2909 20.1191C60.5991 19.3115 60.6531 19.2222 60.8575 19.1823C61.0689 19.1409 61.0783 19.1235 61.0038 18.9131C60.96 18.7895 60.9635 18.6078 61.0116 18.5093C61.1124 18.3029 60.976 18.1426 60.6581 18.0938C60.531 18.0743 60.457 18.0186 60.4841 17.963C60.5102 17.9097 60.4489 17.8322 60.348 17.7907C60.2471 17.7492 60.1574 17.6654 60.1486 17.6045C60.1397 17.5436 60.0313 17.4521 59.9075 17.4012C59.7837 17.3502 59.6752 17.2587 59.6664 17.1978C59.6575 17.1369 59.5253 17.0356 59.3724 16.9727C59.2196 16.9099 59.1136 16.8194 59.1369 16.7717C59.1602 16.724 59.033 16.6248 58.8541 16.5512C58.6753 16.4776 58.5218 16.3676 58.513 16.3067C58.5041 16.2458 58.3531 16.1368 58.1774 16.0645C58.0016 15.9922 57.8506 15.8832 57.8418 15.8223C57.8019 15.5462 56.9985 15.3578 56.8109 15.5804C56.7124 15.6973 56.3609 15.9968 56.0299 16.2459C55.6989 16.4949 55.3847 16.7875 55.3316 16.8959C55.1822 17.2015 54.4562 18.1008 52.6316 20.24C50.3272 22.9419 50.0632 23.2682 49.6842 23.8837C49.4066 24.3343 49.3332 24.4017 49.2306 24.3002C49.0183 24.0905 48.7977 23.967 47.5283 23.3477C46.8479 23.0157 46.1444 22.6529 45.9647 22.5415C45.7586 22.4137 45.6217 22.3725 45.5937 22.4299C45.5692 22.48 45.3839 22.4675 45.1817 22.4021C44.9117 22.3147 44.7643 22.3247 44.6257 22.4399C44.4973 22.5467 44.3559 22.5633 44.1828 22.4921C43.851 22.3555 43.5293 22.4748 43.3745 22.7918C43.2887 22.9673 43.2034 23.0264 43.0986 22.9833C42.9989 22.9423 42.9895 22.8818 43.0711 22.8072C43.1395 22.7448 43.2892 22.5017 43.4037 22.2671C43.5668 21.9333 43.645 21.8542 43.7639 21.9031C43.8635 21.9441 43.919 21.9103 43.9254 21.8048C43.9306 21.7164 43.9525 21.6082 43.9739 21.5644C43.9953 21.5206 43.9543 21.4607 43.8829 21.4313C43.7236 21.3658 43.4509 21.7058 43.1213 22.3808C42.8826 22.8695 42.8626 22.8862 42.6308 22.7909C42.3038 22.6563 41.637 22.1671 41.6749 22.0895C41.7332 21.9701 41.3202 21.6268 40.9206 21.4624C40.6996 21.3714 40.4926 21.2341 40.4607 21.1571C40.4017 21.0149 39.2514 20.5839 38.6978 20.4966C38.3767 20.446 38.3573 20.1826 38.6185 19.4217C38.7046 19.1707 38.8752 18.6082 38.9976 18.1717C39.3159 17.0366 40.338 14.2906 40.5184 14.086C40.6023 13.9909 40.738 13.6595 40.82 13.3496C41.1988 11.9187 41.2651 11.6187 41.7372 9.19658C41.8686 8.52294 42.1143 7.71422 42.3086 7.31643C42.4179 7.09269 42.4647 6.89221 42.4128 6.87083C42.3549 6.84704 42.5175 6.42402 42.8313 5.7815L43.3444 4.73095L43.0423 4.65249C42.8361 4.59902 42.758 4.53752 42.7963 4.45903C42.8617 4.32522 42.4405 4.12359 42.2905 4.21687ZM42.5317 5.93036C41.9337 7.15469 41.7722 7.2531 41.9674 6.27405C42.0902 5.65894 42.1195 5.59676 42.3203 5.52656C42.5928 5.43125 42.6087 5.39839 42.5129 5.12756C42.4173 4.85778 42.6115 4.66138 42.8692 4.76738C43.0518 4.84253 43.0356 4.89854 42.5317 5.93036ZM41.7326 5.24304C41.6614 5.3889 41.5619 5.68769 41.5115 5.90714C41.4611 6.12656 41.3369 6.60004 41.2353 6.95922C41.1339 7.31844 41.0293 7.74407 41.0029 7.90508C40.9766 8.06609 40.9212 8.37137 40.8799 8.5835C40.7364 9.32074 40.6064 10.144 40.4632 11.224C40.3839 11.8215 40.2233 12.6224 40.1063 13.0039C39.9892 13.3853 39.8623 13.8487 39.8243 14.0335C39.7862 14.2183 39.6123 14.7794 39.4378 15.2805C39.2634 15.7815 39.0461 16.442 38.955 16.7482C38.8638 17.0544 38.64 17.7824 38.4574 18.366C38.2749 18.9497 38.0362 19.7653 37.9269 20.1786C37.6344 21.2854 37.2052 22.0516 37.1568 21.5533C37.1467 21.4494 37.0875 21.3433 37.0252 21.3175C36.9629 21.2917 36.8983 21.0894 36.8817 20.8679C36.8397 20.3091 36.5124 20.1138 36.3106 20.527C36.1625 20.8303 35.9285 20.9707 35.7166 20.8835C35.649 20.8557 35.6402 20.7379 35.6971 20.6215C35.9009 20.2042 35.1912 19.9428 32.0426 19.2753C31.7881 19.2213 31.3766 19.123 31.1281 19.0567L30.6763 18.9363L30.9562 18.3632C31.1518 17.9627 31.2715 17.8049 31.3541 17.8389C31.4191 17.8657 31.4422 17.9489 31.4055 18.024C31.3646 18.1078 31.4085 18.1748 31.5193 18.1977C31.7589 18.2472 32.0152 17.6142 31.9795 17.0611C31.9655 16.8441 32.0475 16.3799 32.1615 16.0295C32.2756 15.6791 32.4944 14.9754 32.6478 14.4657C32.8012 13.956 33.025 13.3217 33.1452 13.0561C33.3912 12.5121 33.7584 11.4646 34.1822 10.098C34.692 8.45378 34.7732 8.16557 34.9177 7.48444C35.0624 6.80225 35.0885 6.64924 35.2258 5.6724C35.3467 4.81285 35.584 4.68372 37.1027 4.65139C37.3454 4.64618 37.6353 4.63659 37.7469 4.63001C37.8584 4.62343 38.0561 4.66183 38.1859 4.71524C38.7788 4.95917 41.2959 5.14449 41.5001 4.95918C41.7011 4.77693 41.8634 4.97516 41.7326 5.24304ZM58.1412 17.0966C58.3319 17.2866 58.5695 17.4756 58.6691 17.5165C58.7687 17.5575 58.8335 17.6252 58.8132 17.667C58.7928 17.7087 59.042 17.8519 59.3669 17.9853C60.5131 18.4556 60.5327 18.8226 59.4877 20.2425C58.5907 21.4614 57.8269 22.6649 56.5236 24.9135C55.822 26.1242 54.7268 27.7292 54.11 28.4509C53.9832 28.5992 53.6741 29.0813 53.423 29.5222C53.0089 30.2495 52.9361 30.3315 52.6368 30.4065L52.3069 30.4892L51.7018 31.7923C50.8295 33.6703 50.137 34.9769 50.005 34.993C49.9402 35.0009 49.5574 35.6815 49.1235 36.5598C48.5617 37.6971 48.2675 38.2016 48.0238 38.4445C47.8408 38.627 47.4803 39.1114 47.2227 39.5209C46.3598 40.8928 44.9243 42.7933 44.7921 42.7389C44.7248 42.7112 44.5425 42.7814 44.3872 42.8949C44.1896 43.0391 44.0594 43.0678 43.9543 42.9901C43.8384 42.9047 43.7409 42.9461 43.5301 43.17C43.3794 43.33 43.2183 43.4453 43.1719 43.4262C43.1255 43.4071 43.0225 43.4585 42.9429 43.5403C42.8633 43.6221 42.7571 43.6722 42.7069 43.6515C42.6566 43.6308 42.4337 43.6797 42.2114 43.7601C41.9892 43.8405 41.7853 43.8973 41.7585 43.8862C41.7317 43.8752 41.5447 43.9145 41.3432 43.9735C41.1417 44.0326 40.742 44.1493 40.4549 44.2329C40.1678 44.3166 39.8987 44.3708 39.8569 44.3536C39.8151 44.3364 39.7428 44.4004 39.6962 44.4958C39.592 44.7091 39.767 44.7899 40.2399 44.7465C40.6788 44.7062 40.8587 45.0239 40.7437 45.6364C40.7069 45.8324 40.669 46.1536 40.6596 46.3502C40.5857 47.8788 40.393 48.3234 39.8933 48.1179C39.7136 48.0439 39.4621 47.9902 39.3344 47.9984C39.1462 48.0105 38.7179 47.8987 38.0194 47.6552C37.9832 47.6426 37.872 47.6573 37.7722 47.6878C37.4204 47.7955 36.7963 47.8224 35.7979 47.7729C35.3326 47.7499 34.99 47.7459 34.2254 47.7546C33.8057 47.7594 33.4171 47.7447 33.3619 47.722C33.3066 47.6992 33.2424 47.7197 33.2191 47.7674C33.1958 47.8151 33.0942 47.8202 32.9933 47.7786C32.8924 47.7371 32.7646 47.7314 32.7092 47.7659C32.6538 47.8004 32.526 47.7946 32.425 47.7531C32.3241 47.7116 32.2226 47.7167 32.1993 47.7644C32.176 47.8121 32.0719 47.8161 31.968 47.7734C31.864 47.7306 31.7599 47.7346 31.7366 47.7823C31.7133 47.83 31.6197 47.8386 31.5288 47.8014C31.3765 47.7391 30.6203 47.7833 30.4484 47.8644C30.4078 47.8836 30.221 47.9001 30.0333 47.9011C29.8456 47.9021 29.5588 47.9143 29.3959 47.9283C29.2331 47.9422 28.908 47.9546 28.6733 47.9557C28.4388 47.9569 28.2322 47.9877 28.2144 48.0242C28.1966 48.0606 28.097 48.0554 27.993 48.0127C27.8891 47.9699 27.7873 47.9692 27.7668 48.0111C27.7464 48.053 27.5784 48.0834 27.3936 48.0785C27.2087 48.0735 27.0407 48.1039 27.0203 48.1458C26.9998 48.1877 26.9193 48.1958 26.8413 48.1637C26.7634 48.1316 26.6805 48.1444 26.6572 48.1921C26.6339 48.2398 26.5604 48.2564 26.494 48.2291C26.4275 48.2017 26.2737 48.2322 26.1522 48.2968C26.0307 48.3613 25.8769 48.3918 25.8104 48.3644C25.744 48.3371 25.6752 48.3442 25.6575 48.3803C25.6399 48.4164 25.4603 48.4445 25.2582 48.4428C24.6181 48.4375 23.756 48.6027 23.4762 48.784C23.3275 48.8805 23.1629 48.9416 23.1103 48.9199C23.0575 48.8982 22.7719 48.9213 22.4754 48.9712C22.179 49.021 21.8909 49.0431 21.8353 49.0202C21.7796 48.9973 21.7151 49.0177 21.6918 49.0654C21.6685 49.1131 21.5857 49.1259 21.5078 49.0938C21.4298 49.0617 21.347 49.0745 21.3237 49.1222C21.3004 49.1699 21.2358 49.1902 21.1801 49.1673C21.1244 49.1444 20.9991 49.1514 20.9015 49.1828C20.497 49.3133 20.169 49.3762 20.0813 49.3401C20.0299 49.3189 19.9688 49.3407 19.9455 49.3884C19.9222 49.4361 19.8431 49.4504 19.7698 49.4202C19.6965 49.3901 19.472 49.4383 19.2709 49.5274C18.458 49.8877 18.5 49.7922 19.8915 48.1164C21.5119 46.165 21.5337 46.1364 21.7809 45.6303C21.9045 45.3772 22.2554 44.8544 22.5606 44.4684C22.8659 44.0826 23.2822 43.437 23.4857 43.0339C23.6893 42.6307 23.9659 42.1824 24.1004 42.0377C24.2349 41.8929 24.406 41.6493 24.4807 41.4963C24.5554 41.3433 24.6928 41.212 24.7859 41.2043C24.9108 41.1942 25.0897 40.9454 25.4677 40.256C25.7496 39.742 26.1001 39.1469 26.2465 38.9334L26.5127 38.5453L27.3513 38.9535C27.8125 39.1781 28.2801 39.4383 28.3904 39.5319C28.6921 39.7876 29.3118 40.1059 29.4705 40.0865C29.7046 40.058 29.6494 39.7375 29.3923 39.6317C29.261 39.5777 29.0172 39.4346 28.8505 39.3137C28.6839 39.1928 28.3367 38.9507 28.0789 38.7756C27.2968 38.2442 26.4458 37.0369 26.6937 36.8105C26.7592 36.7507 26.6821 36.6209 26.481 36.4523C26.3075 36.3069 26.1815 36.1551 26.2011 36.1151C26.2207 36.075 26.1838 36.02 26.119 35.9928C26.0542 35.9658 25.9071 35.734 25.7922 35.4779C25.6581 35.1793 25.5429 35.0374 25.4707 35.0823C25.3453 35.1604 24.9677 34.9231 25.0263 34.803C25.0469 34.761 25 34.7002 24.922 34.6682C24.8441 34.6361 24.7993 34.5708 24.8226 34.5231C24.8459 34.4754 24.8012 34.4102 24.7233 34.3781C24.6453 34.346 24.6006 34.2808 24.6239 34.2331C24.6472 34.1854 24.6025 34.1201 24.5245 34.088C24.4466 34.056 24.3983 33.998 24.4172 33.9592C24.4362 33.9204 24.329 33.7738 24.1791 33.6335C24.0292 33.4932 23.9221 33.3466 23.9411 33.3078C23.96 33.269 23.9117 33.211 23.8338 33.179C23.7558 33.1469 23.7097 33.0844 23.7314 33.0401C23.753 32.9959 23.741 32.8854 23.7047 32.7948C23.4935 32.2677 23.5064 31.8987 23.7327 31.9918C23.8107 32.0239 23.8935 32.0111 23.9168 31.9634C23.9401 31.9157 23.8695 31.8398 23.7599 31.7947C23.6503 31.7496 23.5069 31.5986 23.4414 31.4593C23.0484 30.6241 22.9826 30.4559 22.9302 30.1515C22.7837 29.2998 22.7162 27.8694 22.8019 27.4354C22.8288 27.299 22.8144 26.9981 22.7699 26.7666C22.7253 26.5351 22.7065 26.3097 22.7281 26.2655C22.7496 26.2215 22.7551 25.9954 22.74 25.7632C22.725 25.5311 22.7951 25.0546 22.8957 24.7045C23.0782 24.0686 23.0513 23.7251 22.8208 23.7533C22.7537 23.7614 22.6783 23.874 22.6533 24.0034C22.6283 24.1329 22.5747 24.2251 22.5342 24.2084C22.4157 24.1596 22.2507 23.758 22.3041 23.6485C22.3311 23.5933 22.347 23.3516 22.3395 23.1114C22.3222 22.5563 22.549 22.0637 22.8099 22.0901C23.0098 22.1103 23.6622 21.4224 24.2942 20.5253C24.4762 20.267 24.7178 20.0234 24.831 19.9837C24.9443 19.9441 25.069 19.846 25.1083 19.7657C25.2491 19.4773 25.7313 19.597 27.7396 20.4187C28.8059 20.8549 29.8671 21.2437 30.0978 21.2825C30.3285 21.3213 30.7196 21.4352 30.967 21.5357C31.2388 21.6459 31.4359 21.6792 31.465 21.6195C31.4994 21.5492 31.3209 21.4636 30.8445 21.3219C29.2467 20.8469 28.5596 20.5983 28.603 20.5113C28.6647 20.3876 29.2098 20.3936 29.5208 20.5216C29.6633 20.5802 29.8202 20.6031 29.8695 20.5724C29.9188 20.5417 30.1079 20.5526 30.2899 20.5967C30.4717 20.6407 30.8338 20.7106 31.0944 20.752C31.8008 20.8643 32.6862 21.094 33.587 21.3987C34.4595 21.6938 34.7608 21.6359 33.994 21.3205C33.7342 21.2136 33.5406 21.0871 33.5639 21.0394C33.5872 20.9917 33.7253 21.0016 33.8709 21.0615C34.0164 21.1214 34.1924 21.1532 34.2619 21.132C34.4483 21.0756 35.0604 21.228 35.0156 21.3198C34.9945 21.3631 35.0594 21.4652 35.16 21.5468C35.3501 21.701 35.4177 21.8807 35.3445 22.0368C35.321 22.0869 35.0214 22.1008 34.6787 22.0677C34.336 22.0346 33.9996 22.023 33.931 22.042C33.7288 22.0979 34.1349 22.2222 34.6543 22.2635C35.0838 22.2976 35.1422 22.3218 35.2281 22.5011C35.2806 22.6108 35.3717 22.7204 35.4306 22.7447C35.762 22.881 35.2854 23.8932 34.6355 24.4336C33.5304 25.3527 33.0376 25.7177 32.9503 25.6818C32.8101 25.6241 31.3613 25.6812 31.2835 25.7474C31.2479 25.7777 31.1372 25.7691 31.0377 25.7281C30.9381 25.6871 30.8375 25.6926 30.8142 25.7403C30.7909 25.788 30.7032 25.7988 30.6193 25.7643C30.5355 25.7298 30.2756 25.7129 30.0419 25.7267C29.5087 25.7583 28.9471 25.7012 28.6699 25.5871C28.5032 25.5186 28.449 25.5416 28.4214 25.6932C28.3928 25.8496 28.3396 25.8678 28.1447 25.7876C28.0075 25.7312 27.7127 25.7464 27.4618 25.823L27.0202 25.9575L27.4572 25.9923C28.2538 26.0557 29.7679 26.6189 29.9789 26.9302C30.0782 27.0769 30.2452 27.2828 30.35 27.3877C30.5311 27.5693 30.6459 27.6799 31.1441 28.1542C31.2632 28.2677 31.4437 28.3947 31.5452 28.4364C31.6467 28.4782 31.7107 28.5514 31.6874 28.5991C31.6641 28.6468 31.7275 28.7197 31.8284 28.7613C31.9294 28.8028 32.0191 28.8865 32.0279 28.9475C32.0367 29.0084 32.123 29.0907 32.2197 29.1305C32.4202 29.213 32.844 29.7123 32.7971 29.8107C32.7799 29.8466 32.8141 29.8958 32.8731 29.9201C32.9322 29.9444 33.0301 30.0901 33.0907 30.2439C33.1514 30.3978 33.3414 30.8313 33.5128 31.207C33.6842 31.5829 33.8104 31.9192 33.7932 31.9545C33.776 31.9898 33.8245 32.2826 33.901 32.6051C33.9775 32.9277 34.0615 33.3045 34.0877 33.4425C34.114 33.5805 34.1659 33.7716 34.2031 33.8672C34.2889 34.0875 34.2186 35.0333 34.098 35.2803C34.004 35.4726 34.1187 35.6399 34.4336 35.7694C34.5462 35.8158 34.5957 35.9331 34.5664 36.0844C34.5407 36.2171 34.5577 36.3412 34.604 36.3603C34.7567 36.4231 34.8181 36.1384 34.7485 35.6907C34.6657 35.1579 34.7075 35.0489 34.9554 35.1509C35.0594 35.1937 35.1635 35.1897 35.1868 35.142C35.21 35.0943 35.1954 35.0414 35.1542 35.0244C35.113 35.0075 35.1046 34.7463 35.1356 34.444C35.1665 34.1416 35.163 33.8824 35.1279 33.868C35.0027 33.8165 35.0633 33.3539 35.2227 33.1448C35.3984 32.9142 36.4765 33.2282 36.6096 33.5488C36.65 33.6463 36.7356 33.676 36.9123 33.6536C37.2045 33.6166 37.3967 33.8698 37.2713 34.1265C37.1994 34.2737 37.3135 34.4566 37.5894 34.6368C37.6604 34.6831 37.9516 34.871 38.2366 35.0543C38.5215 35.2376 38.7634 35.4417 38.7741 35.5079C38.8103 35.7323 42.2209 37.0211 42.3741 36.8684C42.4276 36.815 42.3949 36.7149 42.3016 36.646C42.0754 36.4791 42.1012 36.2376 42.3546 36.149C42.4899 36.1017 42.6504 35.8964 42.8272 35.5441C43.1698 34.8617 43.7931 34.0743 43.9773 34.0912C44.0914 34.1016 44.0336 34.2474 43.6865 34.8244C43.4176 35.2713 43.2877 35.5587 43.3441 35.5819C43.3955 35.6031 43.7428 35.0566 44.1442 34.3229C45.0212 32.7198 45.2878 32.3199 45.4382 32.3817C45.5246 32.4173 45.4605 32.5942 45.1919 33.0615C44.9402 33.4993 44.8615 33.7067 44.9356 33.7372C44.9974 33.7626 45.1141 33.6346 45.212 33.4343C45.3052 33.2435 45.4199 33.1033 45.4671 33.1227C45.5143 33.1421 45.6856 32.9431 45.8478 32.6805C47.6962 29.6881 48.6899 27.7808 48.9136 26.7955C48.9922 26.4494 49.0848 26.2299 49.157 26.2187C49.261 26.2027 49.4952 25.8762 50.6931 24.077C50.8727 23.8072 51.3994 23.1568 51.8634 22.6317C52.5075 21.9028 52.8054 21.4833 53.1229 20.8587C53.3518 20.4087 53.7449 19.7971 53.9965 19.4997C54.2482 19.2022 54.5723 18.8201 54.7165 18.6503C54.8609 18.4806 55.1096 18.1611 55.2691 17.9403C55.8911 17.0799 56.1162 16.8809 56.8139 16.5745C57.2758 16.3717 57.5034 16.4612 58.1412 17.0966ZM46.7298 24.365C48.6955 25.2712 48.7753 25.3397 48.3886 25.7866C48.2613 25.9336 47.9022 26.5114 47.5907 27.0706C47.0109 28.1112 46.0916 29.4357 45.806 29.6416C45.7183 29.7049 45.5665 29.9204 45.4688 30.1203C45.3712 30.3203 45.1927 30.5873 45.0722 30.7136C44.9516 30.8399 44.492 31.5681 44.0509 32.3317C43.6097 33.0954 43.0965 33.8918 42.9104 34.1017C42.7242 34.3115 42.3977 34.763 42.1848 35.105C41.6066 36.0338 41.5357 36.0251 39.0021 34.7185C37.6472 34.0197 37.7074 34.2153 38.3502 32.5994C38.6141 31.9357 38.8598 31.2222 38.8961 31.0138C38.9586 30.655 39.7759 28.9587 40.0252 28.6707C40.2007 28.4678 40.3092 28.568 40.2959 28.9203C40.2859 29.185 40.4193 28.9471 41.1224 27.4479C41.8056 25.9911 42.0357 25.5776 42.3644 25.2168C42.5862 24.9732 42.8479 24.6678 42.9457 24.5381C43.2392 24.1492 44.0545 24.096 43.7726 24.4843C43.6291 24.682 44.0106 24.8256 44.1599 24.6302C44.2917 24.4577 44.1823 24.2662 43.8794 24.1393C43.7012 24.0646 43.6905 24.0033 43.8122 23.7541C44.1274 23.1087 43.9031 23.0617 46.7298 24.365ZM42.4195 23.4908C42.4263 23.777 42.383 23.8994 42.2348 24.0136C42.0137 24.1837 41.8104 24.4304 41.3249 25.1176C40.3238 26.5342 39.9934 26.9408 39.8237 26.9652C39.665 26.988 37.9794 30.5288 37.9998 30.7965C38.0095 30.924 37.8492 31.1676 37.498 31.5587C37.2142 31.8749 36.9704 32.2261 36.9563 32.3391C36.9316 32.5365 36.9061 32.5324 36.3056 32.2342C35.0562 31.6137 34.5497 31.1027 34.759 30.674C34.8948 30.3959 34.255 29.343 33.8486 29.1758C33.6244 29.0836 33.617 28.7698 33.827 28.2634C33.9418 27.9868 34.0069 27.7211 33.9717 27.6731C33.7772 27.408 34.2775 26.8527 34.5935 26.9827C34.6667 27.0129 34.7797 26.989 34.8445 26.9298C34.9094 26.8706 35.043 26.8552 35.1413 26.8957C35.2397 26.9361 35.3281 26.953 35.3379 26.933C35.3476 26.9131 35.4197 26.8372 35.4981 26.7646C35.6232 26.6486 35.6142 26.6389 35.4247 26.6855C35.0855 26.7688 34.9522 26.5611 35.1217 26.2139C35.2821 25.8855 35.6632 25.9035 35.7666 26.2445C35.8551 26.5362 36.2867 26.6705 36.3199 26.4166C36.3357 26.2946 36.3281 26.1628 36.3028 26.1237C36.2775 26.0847 36.306 25.886 36.3662 25.682C36.4264 25.4781 36.4387 25.2801 36.3934 25.242C36.158 25.0433 37.7321 22.4007 38.2157 22.1827C38.3011 22.1442 38.3561 22.0769 38.338 22.0332C38.2975 21.9357 38.8797 21.7765 39.0452 21.8398C39.1109 21.865 39.1427 21.9305 39.1159 21.9854C39.0807 22.0574 39.3242 22.1728 39.9912 22.4004C40.5671 22.5968 40.8998 22.7473 40.8741 22.7999C40.8514 22.8463 40.9519 22.9333 41.0974 22.9932C41.4557 23.1406 41.5176 23.3409 41.3262 23.733C41.2376 23.9142 41.2077 24.08 41.2597 24.1014C41.3117 24.1228 41.4388 23.967 41.5423 23.7551C41.6458 23.5433 41.7868 23.3631 41.856 23.3547C41.925 23.3463 41.9922 23.254 42.0052 23.1496C42.051 22.7833 42.4098 23.0787 42.4195 23.4908ZM38.669 22.382C38.8293 22.4711 39.0846 22.5757 39.2363 22.6144C39.388 22.6529 39.2567 22.58 38.9447 22.4522C38.6327 22.3244 38.5086 22.2928 38.669 22.382ZM44.6189 24.8324C44.3434 24.7817 44.3255 24.9461 44.5944 25.0568C44.7243 25.1102 44.8485 25.1173 44.8705 25.0723C44.9257 24.9594 44.8341 24.8721 44.6189 24.8324ZM33.0132 21.8184C32.6195 21.7301 32.1483 21.6234 31.966 21.5813C31.7837 21.5392 31.6187 21.5373 31.5993 21.5769C31.5547 21.6682 32.4604 21.9453 32.6309 21.8926C32.7007 21.871 32.9092 21.9149 33.094 21.9901C33.4081 22.1177 33.8227 22.1423 33.758 22.0293C33.7421 22.0017 33.407 21.9067 33.0132 21.8184ZM39.9491 29.9448C39.6382 30.706 39.5915 30.9425 39.7558 30.9224C39.9376 30.9002 40.3242 30.0051 40.2289 29.8272C40.1819 29.7394 40.1635 29.5738 40.1881 29.4591C40.2126 29.3445 40.1051 29.5631 39.9491 29.9448ZM32.8293 27.2723C32.814 27.3662 32.7859 27.5422 32.7671 27.6634C32.7387 27.8471 32.6968 27.8682 32.5153 27.7907C32.2595 27.6816 32.0566 27.3784 32.1337 27.2205C32.2672 26.9472 32.8752 26.9925 32.8293 27.2723ZM22.5478 28.9389C22.6121 29.382 22.4857 29.6905 22.2451 29.6784C21.9932 29.6657 21.9736 29.5137 22.1537 28.9728C22.3403 28.4122 22.47 28.4011 22.5478 28.9389ZM24.1946 42.5965L23.7954 43.4216L24.146 42.9127C24.3589 42.6036 24.5157 42.2794 24.5452 42.0875C24.5835 41.8386 24.5088 41.947 24.1946 42.5965ZM36.4039 50.8884C36.2168 50.8881 35.9188 50.8834 35.7419 50.8779C35.2017 50.8609 35.4471 51.0182 36.0104 51.05C36.6297 51.0849 37.0976 51.0282 36.8843 50.944C36.8072 50.9136 36.591 50.8886 36.4039 50.8884Z" fill="black"/>
<path fill-rule="evenodd" clip-rule="evenodd" d="M42.2905 4.21687C42.2351 4.25135 42.1108 4.24707 42.0142 4.20734C41.9177 4.16765 41.8092 4.16089 41.7729 4.19233C41.7368 4.22381 41.2829 4.22972 40.7642 4.20556C39.6127 4.15175 39.2586 4.14508 38.2345 4.15763C37.4985 4.16665 36.8578 4.15791 35.9685 4.12664C35.5491 4.1119 34.9929 4.40565 34.8374 4.724C34.7748 4.85218 34.681 4.93962 34.629 4.91824C34.5771 4.89686 34.4964 4.95741 34.4499 5.05281C34.4033 5.1482 34.424 5.25047 34.4958 5.28001C34.7067 5.36678 34.5726 5.79184 33.3479 8.92153C32.8518 10.1888 32.5612 11.0232 32.0943 12.5196C31.9281 13.0526 31.5259 14.0823 31.2005 14.8076C30.8753 15.533 30.4327 16.7096 30.217 17.4224C29.7813 18.863 29.7186 18.9366 29.1334 18.6958C28.9904 18.637 28.8282 18.6172 28.7728 18.6516C28.7174 18.6861 28.5677 18.6714 28.4401 18.6189C28.3125 18.5664 28.1163 18.53 28.004 18.5381C27.8917 18.5461 27.5342 18.5218 27.2094 18.4839C26.8845 18.4462 26.4417 18.4119 26.2253 18.4078C25.4647 18.3932 25.3813 18.3893 25.1546 18.3579C25.0211 18.3394 24.8526 18.4135 24.7492 18.5362C24.0979 19.3094 24.0903 19.3147 23.7664 19.2152C23.4159 19.1076 23.2548 19.2042 23.36 19.4589C23.4463 19.6678 22.4524 21.0278 22.0337 21.2738C21.8587 21.3766 21.7452 21.5375 21.6603 21.803C21.5933 22.0128 21.3825 22.6241 21.1919 23.1615C20.9377 23.8784 20.8799 24.1527 20.9752 24.1919C21.0506 24.2229 21.0606 24.3361 20.999 24.4621C20.9408 24.5813 20.9357 24.6964 20.9876 24.7177C21.0396 24.7391 21.0434 24.8359 20.9961 24.9327C20.9487 25.0297 20.9628 25.1577 21.0274 25.2171C21.0943 25.2788 21.0921 25.4333 21.0222 25.5763C20.9548 25.7143 20.9422 25.8447 20.9942 25.866C21.0461 25.8874 21.0693 25.9322 21.0457 25.9654C20.9245 26.1358 20.8843 26.3473 20.9752 26.3362C21.0319 26.3292 21.0112 26.4117 20.9292 26.5194C20.8425 26.6331 20.8242 26.7334 20.8854 26.7586C20.9435 26.7825 20.9606 26.8642 20.9235 26.9401C20.8864 27.0161 20.8926 27.2124 20.9373 27.3764C20.982 27.5405 20.9974 27.7183 20.9715 27.7714C20.9456 27.8246 20.9769 28.0302 21.0409 28.2282C21.1256 28.4899 21.1122 28.6533 20.9916 28.8271C20.9004 28.9586 20.8428 29.1226 20.8637 29.1916C21.0724 29.8782 21.1123 30.038 21.0879 30.0883C21.0603 30.145 21.4481 31.156 21.5068 31.1801C21.5231 31.1868 21.6795 31.5324 21.8545 31.9481C22.0294 32.3637 22.1997 32.715 22.2328 32.7286C22.266 32.7422 22.3493 32.8819 22.4179 33.0391C22.5923 33.4385 22.7885 33.7904 22.8512 33.8162C22.8803 33.8281 22.9342 33.9089 22.9711 33.9957C23.008 34.0825 23.1316 34.3091 23.2457 34.4992C23.3598 34.6894 23.4833 34.916 23.5203 35.0027C23.5572 35.0896 23.6111 35.1703 23.6402 35.1823C23.6931 35.204 23.882 35.5295 24.0176 35.8322C24.057 35.9201 24.1302 36.0087 24.1804 36.0294C24.2305 36.05 24.351 36.2402 24.448 36.4519C24.545 36.6637 24.7029 36.8692 24.7989 36.9087C25.3929 37.1531 25.2753 37.8516 24.4625 38.9054C24.1479 39.3134 23.0912 40.7479 22.3136 41.8226C21.9783 42.2861 21.2834 43.4531 20.7695 44.4159C19.8525 46.1338 19.2996 47.0449 18.544 48.0827C18.3354 48.3692 18.02 48.8019 17.843 49.0441C17.1844 49.9461 16.9208 50.4048 16.9997 50.5116C17.042 50.5689 17.0396 50.6914 16.9944 50.7841C16.877 51.0245 17.1029 51.0785 17.5783 50.9236C18.208 50.7182 18.5987 50.6854 18.7673 50.8236C18.8975 50.9303 19.4153 50.8942 19.7312 50.7564C19.8633 50.6988 20.6349 50.7135 20.7882 50.7765C20.8713 50.8107 20.9583 50.7997 20.9816 50.752C21.0049 50.7043 21.1515 50.7177 21.3074 50.7819C21.4964 50.8596 21.5697 50.9418 21.5273 51.0286C21.4924 51.1001 21.4195 51.1404 21.3654 51.1181C21.3112 51.0959 21.1375 51.1181 20.9794 51.1677C20.7441 51.2413 20.7198 51.2691 20.8458 51.321C20.9305 51.3558 21.0451 51.3561 21.1005 51.3216C21.156 51.2871 21.2838 51.2929 21.3847 51.3344C21.4856 51.3759 21.5871 51.3708 21.6104 51.3231C21.6337 51.2754 21.7378 51.2714 21.8418 51.3141C21.9457 51.3569 22.0498 51.3529 22.0731 51.3052C22.0964 51.2575 22.1792 51.2447 22.2572 51.2767C22.3351 51.3088 22.418 51.296 22.4413 51.2483C22.4645 51.2006 22.5334 51.1821 22.5943 51.2071C22.6551 51.2322 22.8147 51.2199 22.9487 51.18C23.2343 51.0948 23.6051 51.0512 24.0409 51.0515C24.2124 51.0517 24.3648 51.0273 24.3794 50.9973C24.3941 50.9673 24.6105 50.9423 24.8604 50.9418C25.1103 50.9413 25.3309 50.9078 25.3507 50.8673C25.3704 50.8269 25.4522 50.8207 25.5323 50.8537C25.6124 50.8867 25.7997 50.8755 25.9484 50.829C26.1216 50.7748 26.4158 50.808 26.7666 50.9214C27.0811 51.0231 27.3845 51.0634 27.4793 51.0162C27.5701 50.971 27.7175 50.9822 27.807 51.0413C27.9253 51.1193 27.9723 51.1056 27.9792 50.991C27.9857 50.8819 28.0238 50.8658 28.1026 50.9386C28.2341 51.0598 28.9976 51.0672 29.0559 50.9478C29.0774 50.9039 29.1475 50.9163 29.2117 50.9755C29.2782 51.0369 29.3823 51.0339 29.4539 50.9684C29.5231 50.9054 29.6062 50.8898 29.6388 50.9338C29.6713 50.9779 30.0565 50.9955 30.4947 50.9729C30.9327 50.9503 31.3593 50.9598 31.4426 50.9941C31.5258 51.0283 31.6246 51.0281 31.6623 50.9937C31.7351 50.927 32.9844 50.8994 33.1343 50.9611C33.1832 50.9811 33.4127 50.9819 33.6443 50.9626C33.8759 50.9433 34.128 50.9533 34.2043 50.9847C34.2807 51.0161 34.3623 51.0028 34.3856 50.9551C34.4088 50.9074 34.5104 50.9023 34.6113 50.9438C34.7122 50.9853 34.84 50.9911 34.8954 50.9566C35.0166 50.8811 34.6041 50.6955 34.4257 50.7452C34.357 50.7642 34.0841 50.7534 33.8191 50.721C33.3853 50.6679 32.6094 50.6182 32.0036 50.6047C31.8801 50.6019 31.6288 50.5677 31.445 50.5286C30.978 50.4293 31.1058 50.2106 31.6178 50.233C31.8316 50.2423 32.0316 50.1987 32.0623 50.136C32.0928 50.0734 32.1817 50.0484 32.2596 50.0804C32.3376 50.1125 32.4204 50.0997 32.4437 50.052C32.467 50.0043 32.5605 49.9959 32.6514 50.0332C32.7424 50.0706 32.988 50.0544 33.1973 49.9974C33.4065 49.9403 33.6347 49.9172 33.7047 49.9459C33.7745 49.9747 33.8486 49.9634 33.8694 49.9208C33.8902 49.8783 34.0163 49.8613 34.1497 49.883C34.286 49.9052 34.5108 49.8265 34.663 49.7033C34.8489 49.5528 35.0726 49.491 35.3769 49.506C35.6207 49.5181 35.8498 49.502 35.8861 49.4702C35.9225 49.4385 36.0336 49.4461 36.1332 49.487C36.2329 49.528 36.3334 49.5225 36.3567 49.4748C36.38 49.4271 36.4841 49.4231 36.588 49.4658C36.692 49.5086 36.7961 49.5046 36.8193 49.4569C36.8426 49.4092 36.9397 49.4022 37.0349 49.4414C37.1302 49.4806 37.2503 49.498 37.3019 49.4799C37.4784 49.4182 38.2106 49.5117 38.5131 49.6345C38.6792 49.7021 38.8605 49.7291 38.916 49.6946C38.9714 49.6601 39.1446 49.6845 39.3009 49.7488C39.5422 49.8481 39.589 49.8358 39.6099 49.6676C39.6314 49.4954 39.6776 49.4872 39.9638 49.605C40.145 49.6795 40.287 49.7956 40.2797 49.863C40.2696 49.9553 40.3342 49.9857 40.5411 49.9861C40.8201 49.9864 41.7972 48.3301 41.6112 48.1723C41.5758 48.1423 41.5898 47.9727 41.6422 47.7954C41.6947 47.6181 41.7318 47.353 41.7247 47.2063C41.7177 47.0594 41.7343 46.8305 41.7617 46.6974C41.7891 46.5644 41.7713 46.2289 41.7221 45.9521C41.5762 45.1314 41.7217 44.7793 42.2816 44.5983C43.31 44.2659 44.1737 44.0467 44.2811 44.0909C44.3436 44.1166 44.456 44.0746 44.5307 43.9977C44.6057 43.9207 44.7789 43.8084 44.9158 43.7479C45.8068 43.3547 45.8097 43.3521 46.9038 41.9413C47.6347 40.9988 48.0589 40.5085 48.75 39.8072C48.9221 39.6325 49.1194 39.374 49.1885 39.2325C49.2676 39.0705 49.3628 38.9955 49.4457 39.0296C49.7108 39.1386 50.1391 38.4128 50.4841 37.2697C50.7264 36.4669 53.1602 31.4893 53.3414 31.4259C53.4168 31.3996 53.547 31.2398 53.6307 31.0709C53.8568 30.615 55.6523 28.1905 55.9687 27.9138C56.1749 27.7336 56.6259 27.0752 56.894 26.5632C57.0368 26.2906 57.131 26.1945 57.1965 26.2549C57.2675 26.3203 57.3792 26.1509 57.6353 25.5889C57.8368 25.1468 58.0238 24.8392 58.0875 24.8451C58.2106 24.8566 59.9261 21.5048 59.8966 21.3107C59.8865 21.2446 59.8945 21.1503 59.9143 21.1012C59.9341 21.052 60.1035 20.6101 60.2909 20.1191C60.5991 19.3115 60.6531 19.2222 60.8575 19.1823C61.0689 19.1409 61.0783 19.1235 61.0038 18.9131C60.96 18.7895 60.9635 18.6078 61.0116 18.5093C61.1124 18.3029 60.976 18.1426 60.6581 18.0938C60.531 18.0743 60.457 18.0186 60.4841 17.963C60.5102 17.9097 60.4489 17.8322 60.348 17.7907C60.2471 17.7492 60.1574 17.6654 60.1486 17.6045C60.1397 17.5436 60.0313 17.4521 59.9075 17.4012C59.7837 17.3502 59.6752 17.2587 59.6664 17.1978C59.6575 17.1369 59.5253 17.0356 59.3724 16.9727C59.2196 16.9099 59.1136 16.8194 59.1369 16.7717C59.1602 16.724 59.033 16.6248 58.8541 16.5512C58.6753 16.4776 58.5218 16.3676 58.513 16.3067C58.5041 16.2458 58.3531 16.1368 58.1774 16.0645C58.0016 15.9922 57.8506 15.8832 57.8418 15.8223C57.8019 15.5462 56.9985 15.3578 56.8109 15.5804C56.7124 15.6973 56.3609 15.9968 56.0299 16.2459C55.6989 16.4949 55.3847 16.7875 55.3316 16.8959C55.1822 17.2015 54.4562 18.1008 52.6316 20.24C50.3272 22.9419 50.0632 23.2682 49.6842 23.8837C49.4066 24.3343 49.3332 24.4017 49.2306 24.3002C49.0183 24.0905 48.7977 23.967 47.5283 23.3477C46.8479 23.0157 46.1444 22.6529 45.9647 22.5415C45.7586 22.4137 45.6217 22.3725 45.5937 22.4299C45.5692 22.48 45.3839 22.4675 45.1817 22.4021C44.9117 22.3147 44.7643 22.3247 44.6257 22.4399C44.4973 22.5467 44.3559 22.5633 44.1828 22.4921C43.851 22.3555 43.5293 22.4748 43.3745 22.7918C43.2887 22.9673 43.2034 23.0264 43.0986 22.9833C42.9989 22.9423 42.9895 22.8818 43.0711 22.8072C43.1395 22.7448 43.2892 22.5017 43.4037 22.2671C43.5668 21.9333 43.645 21.8542 43.7639 21.9031C43.8635 21.9441 43.919 21.9103 43.9254 21.8048C43.9306 21.7164 43.9525 21.6082 43.9739 21.5644C43.9953 21.5206 43.9543 21.4607 43.8829 21.4313C43.7236 21.3658 43.4509 21.7058 43.1213 22.3808C42.8826 22.8695 42.8626 22.8862 42.6308 22.7909C42.3038 22.6563 41.637 22.1671 41.6749 22.0895C41.7332 21.9701 41.3202 21.6268 40.9206 21.4624C40.6996 21.3714 40.4926 21.2341 40.4607 21.1571C40.4017 21.0149 39.2514 20.5839 38.6978 20.4966C38.3767 20.446 38.3573 20.1826 38.6185 19.4217C38.7046 19.1707 38.8752 18.6082 38.9976 18.1717C39.3159 17.0366 40.338 14.2906 40.5184 14.086C40.6023 13.9909 40.738 13.6595 40.82 13.3496C41.1988 11.9187 41.2651 11.6187 41.7372 9.19658C41.8686 8.52294 42.1143 7.71422 42.3086 7.31643C42.4179 7.09269 42.4647 6.89221 42.4128 6.87083C42.3549 6.84704 42.5175 6.42402 42.8313 5.7815L43.3444 4.73095L43.0423 4.65249C42.8361 4.59902 42.758 4.53752 42.7963 4.45903C42.8617 4.32522 42.4405 4.12359 42.2905 4.21687ZM42.5317 5.93036C41.9337 7.15469 41.7722 7.2531 41.9674 6.27405C42.0902 5.65894 42.1195 5.59676 42.3203 5.52656C42.5928 5.43125 42.6087 5.39839 42.5129 5.12756C42.4173 4.85778 42.6115 4.66138 42.8692 4.76738C43.0518 4.84253 43.0356 4.89854 42.5317 5.93036ZM41.7326 5.24304C41.6614 5.3889 41.5619 5.68769 41.5115 5.90714C41.4611 6.12656 41.3369 6.60004 41.2353 6.95922C41.1339 7.31844 41.0293 7.74407 41.0029 7.90508C40.9766 8.06609 40.9212 8.37137 40.8799 8.5835C40.7364 9.32074 40.6064 10.144 40.4632 11.224C40.3839 11.8215 40.2233 12.6224 40.1063 13.0039C39.9892 13.3853 39.8623 13.8487 39.8243 14.0335C39.7862 14.2183 39.6123 14.7794 39.4378 15.2805C39.2634 15.7815 39.0461 16.442 38.955 16.7482C38.8638 17.0544 38.64 17.7824 38.4574 18.366C38.2749 18.9497 38.0362 19.7653 37.9269 20.1786C37.6344 21.2854 37.2052 22.0516 37.1568 21.5533C37.1467 21.4494 37.0875 21.3433 37.0252 21.3175C36.9629 21.2917 36.8983 21.0894 36.8817 20.8679C36.8397 20.3091 36.5124 20.1138 36.3106 20.527C36.1625 20.8303 35.9285 20.9707 35.7166 20.8835C35.649 20.8557 35.6402 20.7379 35.6971 20.6215C35.9009 20.2042 35.1912 19.9428 32.0426 19.2753C31.7881 19.2213 31.3766 19.123 31.1281 19.0567L30.6763 18.9363L30.9562 18.3632C31.1518 17.9627 31.2715 17.8049 31.3541 17.8389C31.4191 17.8657 31.4422 17.9489 31.4055 18.024C31.3646 18.1078 31.4085 18.1748 31.5193 18.1977C31.7589 18.2472 32.0152 17.6142 31.9795 17.0611C31.9655 16.8441 32.0475 16.3799 32.1615 16.0295C32.2756 15.6791 32.4944 14.9754 32.6478 14.4657C32.8012 13.956 33.025 13.3217 33.1452 13.0561C33.3912 12.5121 33.7584 11.4646 34.1822 10.098C34.692 8.45378 34.7732 8.16557 34.9177 7.48444C35.0624 6.80225 35.0885 6.64924 35.2258 5.6724C35.3467 4.81285 35.584 4.68372 37.1027 4.65139C37.3454 4.64618 37.6353 4.63659 37.7469 4.63001C37.8584 4.62343 38.0561 4.66183 38.1859 4.71524C38.7788 4.95917 41.2959 5.14449 41.5001 4.95918C41.7011 4.77693 41.8634 4.97516 41.7326 5.24304ZM58.1412 17.0966C58.3319 17.2866 58.5695 17.4756 58.6691 17.5165C58.7687 17.5575 58.8335 17.6252 58.8132 17.667C58.7928 17.7087 59.042 17.8519 59.3669 17.9853C60.5131 18.4556 60.5327 18.8226 59.4877 20.2425C58.5907 21.4614 57.8269 22.6649 56.5236 24.9135C55.822 26.1242 54.7268 27.7292 54.11 28.4509C53.9832 28.5992 53.6741 29.0813 53.423 29.5222C53.0089 30.2495 52.9361 30.3315 52.6368 30.4065L52.3069 30.4892L51.7018 31.7923C50.8295 33.6703 50.137 34.9769 50.005 34.993C49.9402 35.0009 49.5574 35.6815 49.1235 36.5598C48.5617 37.6971 48.2675 38.2016 48.0238 38.4445C47.8408 38.627 47.4803 39.1114 47.2227 39.5209C46.3598 40.8928 44.9243 42.7933 44.7921 42.7389C44.7248 42.7112 44.5425 42.7814 44.3872 42.8949C44.1896 43.0391 44.0594 43.0678 43.9543 42.9901C43.8384 42.9047 43.7409 42.9461 43.5301 43.17C43.3794 43.33 43.2183 43.4453 43.1719 43.4262C43.1255 43.4071 43.0225 43.4585 42.9429 43.5403C42.8633 43.6221 42.7571 43.6722 42.7069 43.6515C42.6566 43.6308 42.4337 43.6797 42.2114 43.7601C41.9892 43.8405 41.7853 43.8973 41.7585 43.8862C41.7317 43.8752 41.5447 43.9145 41.3432 43.9735C41.1417 44.0326 40.742 44.1493 40.4549 44.2329C40.1678 44.3166 39.8987 44.3708 39.8569 44.3536C39.8151 44.3364 39.7428 44.4004 39.6962 44.4958C39.592 44.7091 39.767 44.7899 40.2399 44.7465C40.6788 44.7062 40.8587 45.0239 40.7437 45.6364C40.7069 45.8324 40.669 46.1536 40.6596 46.3502C40.5857 47.8788 40.393 48.3234 39.8933 48.1179C39.7136 48.0439 39.4621 47.9902 39.3344 47.9984C39.1462 48.0105 38.7179 47.8987 38.0194 47.6552C37.9832 47.6426 37.872 47.6573 37.7722 47.6878C37.4204 47.7955 36.7963 47.8224 35.7979 47.7729C35.3326 47.7499 34.99 47.7459 34.2254 47.7546C33.8057 47.7594 33.4171 47.7447 33.3619 47.722C33.3066 47.6992 33.2424 47.7197 33.2191 47.7674C33.1958 47.8151 33.0942 47.8202 32.9933 47.7786C32.8924 47.7371 32.7646 47.7314 32.7092 47.7659C32.6538 47.8004 32.526 47.7946 32.425 47.7531C32.3241 47.7116 32.2226 47.7167 32.1993 47.7644C32.176 47.8121 32.0719 47.8161 31.968 47.7734C31.864 47.7306 31.7599 47.7346 31.7366 47.7823C31.7133 47.83 31.6197 47.8386 31.5288 47.8014C31.3765 47.7391 30.6203 47.7833 30.4484 47.8644C30.4078 47.8836 30.221 47.9001 30.0333 47.9011C29.8456 47.9021 29.5588 47.9143 29.3959 47.9283C29.2331 47.9422 28.908 47.9546 28.6733 47.9557C28.4388 47.9569 28.2322 47.9877 28.2144 48.0242C28.1966 48.0606 28.097 48.0554 27.993 48.0127C27.8891 47.9699 27.7873 47.9692 27.7668 48.0111C27.7464 48.053 27.5784 48.0834 27.3936 48.0785C27.2087 48.0735 27.0407 48.1039 27.0203 48.1458C26.9998 48.1877 26.9193 48.1958 26.8413 48.1637C26.7634 48.1316 26.6805 48.1444 26.6572 48.1921C26.6339 48.2398 26.5604 48.2564 26.494 48.2291C26.4275 48.2017 26.2737 48.2322 26.1522 48.2968C26.0307 48.3613 25.8769 48.3918 25.8104 48.3644C25.744 48.3371 25.6752 48.3442 25.6575 48.3803C25.6399 48.4164 25.4603 48.4445 25.2582 48.4428C24.6181 48.4375 23.756 48.6027 23.4762 48.784C23.3275 48.8805 23.1629 48.9416 23.1103 48.9199C23.0575 48.8982 22.7719 48.9213 22.4754 48.9712C22.179 49.021 21.8909 49.0431 21.8353 49.0202C21.7796 48.9973 21.7151 49.0177 21.6918 49.0654C21.6685 49.1131 21.5857 49.1259 21.5078 49.0938C21.4298 49.0617 21.347 49.0745 21.3237 49.1222C21.3004 49.1699 21.2358 49.1902 21.1801 49.1673C21.1244 49.1444 20.9991 49.1514 20.9015 49.1828C20.497 49.3133 20.169 49.3762 20.0813 49.3401C20.0299 49.3189 19.9688 49.3407 19.9455 49.3884C19.9222 49.4361 19.8431 49.4504 19.7698 49.4202C19.6965 49.3901 19.472 49.4383 19.2709 49.5274C18.458 49.8877 18.5 49.7922 19.8915 48.1164C21.5119 46.165 21.5337 46.1364 21.7809 45.6303C21.9045 45.3772 22.2554 44.8544 22.5606 44.4684C22.8659 44.0826 23.2822 43.437 23.4857 43.0339C23.6893 42.6307 23.9659 42.1824 24.1004 42.0377C24.2349 41.8929 24.406 41.6493 24.4807 41.4963C24.5554 41.3433 24.6928 41.212 24.7859 41.2043C24.9108 41.1942 25.0897 40.9454 25.4677 40.256C25.7496 39.742 26.1001 39.1469 26.2465 38.9334L26.5127 38.5453L27.3513 38.9535C27.8125 39.1781 28.2801 39.4383 28.3904 39.5319C28.6921 39.7876 29.3118 40.1059 29.4705 40.0865C29.7046 40.058 29.6494 39.7375 29.3923 39.6317C29.261 39.5777 29.0172 39.4346 28.8505 39.3137C28.6839 39.1928 28.3367 38.9507 28.0789 38.7756C27.2968 38.2442 26.4458 37.0369 26.6937 36.8105C26.7592 36.7507 26.6821 36.6209 26.481 36.4523C26.3075 36.3069 26.1815 36.1551 26.2011 36.1151C26.2207 36.075 26.1838 36.02 26.119 35.9928C26.0542 35.9658 25.9071 35.734 25.7922 35.4779C25.6581 35.1793 25.5429 35.0374 25.4707 35.0823C25.3453 35.1604 24.9677 34.9231 25.0263 34.803C25.0469 34.761 25 34.7002 24.922 34.6682C24.8441 34.6361 24.7993 34.5708 24.8226 34.5231C24.8459 34.4754 24.8012 34.4102 24.7233 34.3781C24.6453 34.346 24.6006 34.2808 24.6239 34.2331C24.6472 34.1854 24.6025 34.1201 24.5245 34.088C24.4466 34.056 24.3983 33.998 24.4172 33.9592C24.4362 33.9204 24.329 33.7738 24.1791 33.6335C24.0292 33.4932 23.9221 33.3466 23.9411 33.3078C23.96 33.269 23.9117 33.211 23.8338 33.179C23.7558 33.1469 23.7097 33.0844 23.7314 33.0401C23.753 32.9959 23.741 32.8854 23.7047 32.7948C23.4935 32.2677 23.5064 31.8987 23.7327 31.9918C23.8107 32.0239 23.8935 32.0111 23.9168 31.9634C23.9401 31.9157 23.8695 31.8398 23.7599 31.7947C23.6503 31.7496 23.5069 31.5986 23.4414 31.4593C23.0484 30.6241 22.9826 30.4559 22.9302 30.1515C22.7837 29.2998 22.7162 27.8694 22.8019 27.4354C22.8288 27.299 22.8144 26.9981 22.7699 26.7666C22.7253 26.5351 22.7065 26.3097 22.7281 26.2655C22.7496 26.2215 22.7551 25.9954 22.74 25.7632C22.725 25.5311 22.7951 25.0546 22.8957 24.7045C23.0782 24.0686 23.0513 23.7251 22.8208 23.7533C22.7537 23.7614 22.6783 23.874 22.6533 24.0034C22.6283 24.1329 22.5747 24.2251 22.5342 24.2084C22.4157 24.1596 22.2507 23.758 22.3041 23.6485C22.3311 23.5933 22.347 23.3516 22.3395 23.1114C22.3222 22.5563 22.549 22.0637 22.8099 22.0901C23.0098 22.1103 23.6622 21.4224 24.2942 20.5253C24.4762 20.267 24.7178 20.0234 24.831 19.9837C24.9443 19.9441 25.069 19.846 25.1083 19.7657C25.2491 19.4773 25.7313 19.597 27.7396 20.4187C28.8059 20.8549 29.8671 21.2437 30.0978 21.2825C30.3285 21.3213 30.7196 21.4352 30.967 21.5357C31.2388 21.6459 31.4359 21.6792 31.465 21.6195C31.4994 21.5492 31.3209 21.4636 30.8445 21.3219C29.2467 20.8469 28.5596 20.5983 28.603 20.5113C28.6647 20.3876 29.2098 20.3936 29.5208 20.5216C29.6633 20.5802 29.8202 20.6031 29.8695 20.5724C29.9188 20.5417 30.1079 20.5526 30.2899 20.5967C30.4717 20.6407 30.8338 20.7106 31.0944 20.752C31.8008 20.8643 32.6862 21.094 33.587 21.3987C34.4595 21.6938 34.7608 21.6359 33.994 21.3205C33.7342 21.2136 33.5406 21.0871 33.5639 21.0394C33.5872 20.9917 33.7253 21.0016 33.8709 21.0615C34.0164 21.1214 34.1924 21.1532 34.2619 21.132C34.4483 21.0756 35.0604 21.228 35.0156 21.3198C34.9945 21.3631 35.0594 21.4652 35.16 21.5468C35.3501 21.701 35.4177 21.8807 35.3445 22.0368C35.321 22.0869 35.0214 22.1008 34.6787 22.0677C34.336 22.0346 33.9996 22.023 33.931 22.042C33.7288 22.0979 34.1349 22.2222 34.6543 22.2635C35.0838 22.2976 35.1422 22.3218 35.2281 22.5011C35.2806 22.6108 35.3717 22.7204 35.4306 22.7447C35.762 22.881 35.2854 23.8932 34.6355 24.4336C33.5304 25.3527 33.0376 25.7177 32.9503 25.6818C32.8101 25.6241 31.3613 25.6812 31.2835 25.7474C31.2479 25.7777 31.1372 25.7691 31.0377 25.7281C30.9381 25.6871 30.8375 25.6926 30.8142 25.7403C30.7909 25.788 30.7032 25.7988 30.6193 25.7643C30.5355 25.7298 30.2756 25.7129 30.0419 25.7267C29.5087 25.7583 28.9471 25.7012 28.6699 25.5871C28.5032 25.5186 28.449 25.5416 28.4214 25.6932C28.3928 25.8496 28.3396 25.8678 28.1447 25.7876C28.0075 25.7312 27.7127 25.7464 27.4618 25.823L27.0202 25.9575L27.4572 25.9923C28.2538 26.0557 29.7679 26.6189 29.9789 26.9302C30.0782 27.0769 30.2452 27.2828 30.35 27.3877C30.5311 27.5693 30.6459 27.6799 31.1441 28.1542C31.2632 28.2677 31.4437 28.3947 31.5452 28.4364C31.6467 28.4782 31.7107 28.5514 31.6874 28.5991C31.6641 28.6468 31.7275 28.7197 31.8284 28.7613C31.9294 28.8028 32.0191 28.8865 32.0279 28.9475C32.0367 29.0084 32.123 29.0907 32.2197 29.1305C32.4202 29.213 32.844 29.7123 32.7971 29.8107C32.7799 29.8466 32.8141 29.8958 32.8731 29.9201C32.9322 29.9444 33.0301 30.0901 33.0907 30.2439C33.1514 30.3978 33.3414 30.8313 33.5128 31.207C33.6842 31.5829 33.8104 31.9192 33.7932 31.9545C33.776 31.9898 33.8245 32.2826 33.901 32.6051C33.9775 32.9277 34.0615 33.3045 34.0877 33.4425C34.114 33.5805 34.1659 33.7716 34.2031 33.8672C34.2889 34.0875 34.2186 35.0333 34.098 35.2803C34.004 35.4726 34.1187 35.6399 34.4336 35.7694C34.5462 35.8158 34.5957 35.9331 34.5664 36.0844C34.5407 36.2171 34.5577 36.3412 34.604 36.3603C34.7567 36.4231 34.8181 36.1384 34.7485 35.6907C34.6657 35.1579 34.7075 35.0489 34.9554 35.1509C35.0594 35.1937 35.1635 35.1897 35.1868 35.142C35.21 35.0943 35.1954 35.0414 35.1542 35.0244C35.113 35.0075 35.1046 34.7463 35.1356 34.444C35.1665 34.1416 35.163 33.8824 35.1279 33.868C35.0027 33.8165 35.0633 33.3539 35.2227 33.1448C35.3984 32.9142 36.4765 33.2282 36.6096 33.5488C36.65 33.6463 36.7356 33.676 36.9123 33.6536C37.2045 33.6166 37.3967 33.8698 37.2713 34.1265C37.1994 34.2737 37.3135 34.4566 37.5894 34.6368C37.6604 34.6831 37.9516 34.871 38.2366 35.0543C38.5215 35.2376 38.7634 35.4417 38.7741 35.5079C38.8103 35.7323 42.2209 37.0211 42.3741 36.8684C42.4276 36.815 42.3949 36.7149 42.3016 36.646C42.0754 36.4791 42.1012 36.2376 42.3546 36.149C42.4899 36.1017 42.6504 35.8964 42.8272 35.5441C43.1698 34.8617 43.7931 34.0743 43.9773 34.0912C44.0914 34.1016 44.0336 34.2474 43.6865 34.8244C43.4176 35.2713 43.2877 35.5587 43.3441 35.5819C43.3955 35.6031 43.7428 35.0566 44.1442 34.3229C45.0212 32.7198 45.2878 32.3199 45.4382 32.3817C45.5246 32.4173 45.4605 32.5942 45.1919 33.0615C44.9402 33.4993 44.8615 33.7067 44.9356 33.7372C44.9974 33.7626 45.1141 33.6346 45.212 33.4343C45.3052 33.2435 45.4199 33.1033 45.4671 33.1227C45.5143 33.1421 45.6856 32.9431 45.8478 32.6805C47.6962 29.6881 48.6899 27.7808 48.9136 26.7955C48.9922 26.4494 49.0848 26.2299 49.157 26.2187C49.261 26.2027 49.4952 25.8762 50.6931 24.077C50.8727 23.8072 51.3994 23.1568 51.8634 22.6317C52.5075 21.9028 52.8054 21.4833 53.1229 20.8587C53.3518 20.4087 53.7449 19.7971 53.9965 19.4997C54.2482 19.2022 54.5723 18.8201 54.7165 18.6503C54.8609 18.4806 55.1096 18.1611 55.2691 17.9403C55.8911 17.0799 56.1162 16.8809 56.8139 16.5745C57.2758 16.3717 57.5034 16.4612 58.1412 17.0966ZM46.7298 24.365C48.6955 25.2712 48.7753 25.3397 48.3886 25.7866C48.2613 25.9336 47.9022 26.5114 47.5907 27.0706C47.0109 28.1112 46.0916 29.4357 45.806 29.6416C45.7183 29.7049 45.5665 29.9204 45.4688 30.1203C45.3712 30.3203 45.1927 30.5873 45.0722 30.7136C44.9516 30.8399 44.492 31.5681 44.0509 32.3317C43.6097 33.0954 43.0965 33.8918 42.9104 34.1017C42.7242 34.3115 42.3977 34.763 42.1848 35.105C41.6066 36.0338 41.5357 36.0251 39.0021 34.7185C37.6472 34.0197 37.7074 34.2153 38.3502 32.5994C38.6141 31.9357 38.8598 31.2222 38.8961 31.0138C38.9586 30.655 39.7759 28.9587 40.0252 28.6707C40.2007 28.4678 40.3092 28.568 40.2959 28.9203C40.2859 29.185 40.4193 28.9471 41.1224 27.4479C41.8056 25.9911 42.0357 25.5776 42.3644 25.2168C42.5862 24.9732 42.8479 24.6678 42.9457 24.5381C43.2392 24.1492 44.0545 24.096 43.7726 24.4843C43.6291 24.682 44.0106 24.8256 44.1599 24.6302C44.2917 24.4577 44.1823 24.2662 43.8794 24.1393C43.7012 24.0646 43.6905 24.0033 43.8122 23.7541C44.1274 23.1087 43.9031 23.0617 46.7298 24.365ZM42.4195 23.4908C42.4263 23.777 42.383 23.8994 42.2348 24.0136C42.0137 24.1837 41.8104 24.4304 41.3249 25.1176C40.3238 26.5342 39.9934 26.9408 39.8237 26.9652C39.665 26.988 37.9794 30.5288 37.9998 30.7965C38.0095 30.924 37.8492 31.1676 37.498 31.5587C37.2142 31.8749 36.9704 32.2261 36.9563 32.3391C36.9316 32.5365 36.9061 32.5324 36.3056 32.2342C35.0562 31.6137 34.5497 31.1027 34.759 30.674C34.8948 30.3959 34.255 29.343 33.8486 29.1758C33.6244 29.0836 33.617 28.7698 33.827 28.2634C33.9418 27.9868 34.0069 27.7211 33.9717 27.6731C33.7772 27.408 34.2775 26.8527 34.5935 26.9827C34.6667 27.0129 34.7797 26.989 34.8445 26.9298C34.9094 26.8706 35.043 26.8552 35.1413 26.8957C35.2397 26.9361 35.3281 26.953 35.3379 26.933C35.3476 26.9131 35.4197 26.8372 35.4981 26.7646C35.6232 26.6486 35.6142 26.6389 35.4247 26.6855C35.0855 26.7688 34.9522 26.5611 35.1217 26.2139C35.2821 25.8855 35.6632 25.9035 35.7666 26.2445C35.8551 26.5362 36.2867 26.6705 36.3199 26.4166C36.3357 26.2946 36.3281 26.1628 36.3028 26.1237C36.2775 26.0847 36.306 25.886 36.3662 25.682C36.4264 25.4781 36.4387 25.2801 36.3934 25.242C36.158 25.0433 37.7321 22.4007 38.2157 22.1827C38.3011 22.1442 38.3561 22.0769 38.338 22.0332C38.2975 21.9357 38.8797 21.7765 39.0452 21.8398C39.1109 21.865 39.1427 21.9305 39.1159 21.9854C39.0807 22.0574 39.3242 22.1728 39.9912 22.4004C40.5671 22.5968 40.8998 22.7473 40.8741 22.7999C40.8514 22.8463 40.9519 22.9333 41.0974 22.9932C41.4557 23.1406 41.5176 23.3409 41.3262 23.733C41.2376 23.9142 41.2077 24.08 41.2597 24.1014C41.3117 24.1228 41.4388 23.967 41.5423 23.7551C41.6458 23.5433 41.7868 23.3631 41.856 23.3547C41.925 23.3463 41.9922 23.254 42.0052 23.1496C42.051 22.7833 42.4098 23.0787 42.4195 23.4908ZM38.669 22.382C38.8293 22.4711 39.0846 22.5757 39.2363 22.6144C39.388 22.6529 39.2567 22.58 38.9447 22.4522C38.6327 22.3244 38.5086 22.2928 38.669 22.382ZM44.6189 24.8324C44.3434 24.7817 44.3255 24.9461 44.5944 25.0568C44.7243 25.1102 44.8485 25.1173 44.8705 25.0723C44.9257 24.9594 44.8341 24.8721 44.6189 24.8324ZM33.0132 21.8184C32.6195 21.7301 32.1483 21.6234 31.966 21.5813C31.7837 21.5392 31.6187 21.5373 31.5993 21.5769C31.5547 21.6682 32.4604 21.9453 32.6309 21.8926C32.7007 21.871 32.9092 21.9149 33.094 21.9901C33.4081 22.1177 33.8227 22.1423 33.758 22.0293C33.7421 22.0017 33.407 21.9067 33.0132 21.8184ZM39.9491 29.9448C39.6382 30.706 39.5915 30.9425 39.7558 30.9224C39.9376 30.9002 40.3242 30.0051 40.2289 29.8272C40.1819 29.7394 40.1635 29.5738 40.1881 29.4591C40.2126 29.3445 40.1051 29.5631 39.9491 29.9448ZM32.8293 27.2723C32.814 27.3662 32.7859 27.5422 32.7671 27.6634C32.7387 27.8471 32.6968 27.8682 32.5153 27.7907C32.2595 27.6816 32.0566 27.3784 32.1337 27.2205C32.2672 26.9472 32.8752 26.9925 32.8293 27.2723ZM22.5478 28.9389C22.6121 29.382 22.4857 29.6905 22.2451 29.6784C21.9932 29.6657 21.9736 29.5137 22.1537 28.9728C22.3403 28.4122 22.47 28.4011 22.5478 28.9389ZM24.1946 42.5965L23.7954 43.4216L24.146 42.9127C24.3589 42.6036 24.5157 42.2794 24.5452 42.0875C24.5835 41.8386 24.5088 41.947 24.1946 42.5965ZM36.4039 50.8884C36.2168 50.8881 35.9188 50.8834 35.7419 50.8779C35.2017 50.8609 35.4471 51.0182 36.0104 51.05C36.6297 51.0849 37.0976 51.0282 36.8843 50.944C36.8072 50.9136 36.591 50.8886 36.4039 50.8884Z" stroke="black" stroke-width="2" mask="url(#path-1-outside-1_347_28)"/>
</g>
<defs>
<clipPath id="clip0_347_28">
<rect width="78" height="56" fill="white"/>
</clipPath>
</defs>
</svg>
