<svg width="210" height="187" viewBox="0 0 210 187" fill="none" xmlns="http://www.w3.org/2000/svg">
<path d="M88.1582 63.1412L88.4669 63.1056L88.5717 62.813L101.925 25.5154L121.655 26.3684L109.391 68.7796L109.257 69.2432L109.716 69.3936L139.78 79.2529L140.116 79.363L140.332 79.0831L158.699 55.2631L169.331 62.7833L137.454 115.235L127.212 127.632L113.89 131.176L113.518 131.275V131.659V142.834L57.8399 145.46L74.0318 113.962L74.1363 113.759L74.051 113.547L65.7885 93.0091L64.7673 73.5846L72.7917 64.9125L88.1582 63.1412Z" fill="black" stroke="black"/>
<g filter="url(#filter0_d_403_7)">
<mask id="path-2-outside-1_403_7" maskUnits="userSpaceOnUse" x="30.2749" y="13.7284" width="149.255" height="162.163" fill="black">
<rect fill="white" x="30.2749" y="13.7284" width="149.255" height="162.163"/>
<path fill-rule="evenodd" clip-rule="evenodd" d="M120.371 26.0287C120.224 26.1189 119.894 26.1077 119.638 26.0038C119.381 25.9 119.093 25.8823 118.997 25.9646C118.901 26.0469 117.696 26.0623 116.319 25.9992C113.263 25.8584 112.322 25.841 109.604 25.8738C107.65 25.8974 105.95 25.8745 103.589 25.7928C102.476 25.7542 100.999 26.5225 100.586 27.3551C100.42 27.6903 100.171 27.919 100.033 27.8631C99.8953 27.8072 99.6812 27.9655 99.5575 28.215C99.4339 28.4645 99.4889 28.732 99.6796 28.8093C100.239 29.0362 99.8835 30.1479 96.6323 38.3332C95.3156 41.6477 94.544 43.83 93.3047 47.7436C92.8634 49.1377 91.7957 51.8305 90.9321 53.7276C90.0688 55.6248 88.8939 58.7021 88.3214 60.5663C87.1646 64.3341 86.9981 64.5264 85.4448 63.8968C85.0653 63.743 84.6347 63.691 84.4876 63.7812C84.3405 63.8714 83.943 63.8328 83.6044 63.6956C83.2658 63.5583 82.7449 63.4632 82.4467 63.4843C82.1487 63.5051 81.1995 63.4415 80.3374 63.3426C79.4751 63.244 78.2996 63.1543 77.7252 63.1434C75.706 63.1053 75.4846 63.0951 74.8828 63.013C74.5284 62.9647 74.0811 63.1584 73.8068 63.4792C72.0778 65.5014 72.0577 65.5153 71.1978 65.255C70.2673 64.9737 69.8397 65.2264 70.1191 65.8926C70.3482 66.439 67.7098 69.9957 66.5983 70.6393C66.1337 70.908 65.8324 71.3288 65.6071 72.0233C65.4292 72.5719 64.8698 74.1707 64.3637 75.5762C63.6888 77.4511 63.5356 78.1686 63.7884 78.2711C63.9886 78.3522 64.0151 78.6481 63.8517 78.9777C63.6971 79.2896 63.6835 79.5905 63.8215 79.6464C63.9594 79.7023 63.9695 79.9554 63.8439 80.2087C63.7182 80.4623 63.7557 80.797 63.9271 80.9525C64.1046 81.1138 64.0987 81.5178 63.9133 81.8918C63.7344 82.2527 63.7009 82.5937 63.8388 82.6496C63.9768 82.7056 64.0383 82.8226 63.9757 82.9094C63.6538 83.3553 63.5471 83.9083 63.7884 83.8792C63.939 83.861 63.8841 84.0768 63.6662 84.3584C63.4363 84.6557 63.3875 84.9182 63.5501 84.9841C63.7043 85.0466 63.7496 85.2602 63.6512 85.4587C63.5527 85.6574 63.5692 86.171 63.688 86.5999C63.8066 87.029 63.8475 87.494 63.7786 87.633C63.7099 87.7721 63.7929 88.3097 63.963 88.8275C64.1878 89.5122 64.1523 89.9393 63.832 90.394C63.5898 90.7379 63.4371 91.1669 63.4926 91.3473C64.0465 93.143 64.1525 93.561 64.0877 93.6925C64.0144 93.8409 65.0439 96.4849 65.1996 96.5481C65.2428 96.5656 65.6581 97.4693 66.1225 98.5565C66.587 99.6436 67.0389 100.562 67.1269 100.598C67.2149 100.634 67.436 100.999 67.6181 101.41C68.0811 102.454 68.602 103.375 68.7683 103.442C68.8455 103.474 68.9887 103.685 69.0867 103.912C69.1847 104.139 69.5127 104.731 69.8156 105.229C70.1185 105.726 70.4464 106.319 70.5445 106.546C70.6425 106.773 70.7857 106.984 70.863 107.015C71.0032 107.072 71.5047 107.923 71.8647 108.715C71.9692 108.945 72.1636 109.177 72.2968 109.231C72.4299 109.285 72.7497 109.782 73.0071 110.336C73.2646 110.89 73.6839 111.427 73.9387 111.531C75.5154 112.17 75.2032 113.996 73.0458 116.752C72.2104 117.82 69.4054 121.571 67.3413 124.382C66.4512 125.594 64.6067 128.646 63.2425 131.165C60.8083 135.658 59.3404 138.04 57.3346 140.755C56.7809 141.504 55.9438 142.636 55.474 143.269C53.7256 145.628 53.0259 146.828 53.2353 147.107C53.3475 147.257 53.3414 147.578 53.2213 147.82C52.9095 148.449 53.5094 148.59 54.7712 148.185C56.4429 147.648 57.4798 147.562 57.9275 147.923C58.2732 148.202 59.6477 148.108 60.4863 147.748C60.8369 147.597 62.8851 147.635 63.292 147.8C63.5127 147.89 63.7436 147.861 63.8055 147.736C63.8673 147.611 64.2565 147.646 64.6703 147.814C65.172 148.017 65.3666 148.233 65.2542 148.459C65.1614 148.646 64.9679 148.752 64.8242 148.694C64.6804 148.635 64.2193 148.694 63.7997 148.823C63.1749 149.016 63.1106 149.089 63.4449 149.224C63.6699 149.315 63.9741 149.316 64.1212 149.226C64.2683 149.136 64.6076 149.151 64.8754 149.259C65.1433 149.368 65.4129 149.354 65.4747 149.23C65.5366 149.105 65.8129 149.094 66.0888 149.206C66.3647 149.318 66.641 149.307 66.7029 149.183C66.7647 149.058 66.9846 149.025 67.1915 149.108C67.3984 149.192 67.6183 149.159 67.6802 149.034C67.742 148.909 67.9248 148.861 68.0863 148.926C68.2478 148.992 68.6715 148.96 69.0273 148.855C69.7853 148.633 70.7695 148.519 71.9265 148.519C72.3817 148.52 72.7862 148.456 72.8251 148.378C72.864 148.299 73.4386 148.234 74.1019 148.232C74.7653 148.231 75.3509 148.143 75.4034 148.038C75.4558 147.932 75.6728 147.916 75.8855 148.002C76.0982 148.088 76.5952 148.059 76.9901 147.937C77.4499 147.796 78.2307 147.882 79.162 148.179C79.9968 148.445 80.8023 148.551 81.0539 148.427C81.2948 148.309 81.6862 148.338 81.9239 148.493C82.2378 148.697 82.3625 148.661 82.3809 148.361C82.3982 148.076 82.4992 148.034 82.7086 148.224C83.0574 148.541 85.0843 148.56 85.2391 148.248C85.296 148.133 85.4821 148.166 85.6526 148.321C85.8291 148.481 86.1056 148.473 86.2957 148.302C86.4792 148.137 86.6999 148.096 86.7863 148.211C86.8728 148.327 87.8952 148.373 89.0583 148.314C90.221 148.255 91.3536 148.28 91.5746 148.369C91.7956 148.459 92.0578 148.458 92.158 148.368C92.351 148.194 95.6674 148.121 96.0654 148.283C96.1951 148.335 96.8045 148.337 97.4192 148.287C98.034 148.236 98.7031 148.262 98.9057 148.345C99.1086 148.427 99.325 148.392 99.3869 148.267C99.4487 148.142 99.7183 148.129 99.9861 148.238C100.254 148.346 100.593 148.361 100.74 148.271C101.062 148.074 99.9671 147.588 99.4933 147.718C99.3111 147.768 98.5866 147.74 97.8831 147.655C96.7316 147.516 94.6719 147.386 93.0638 147.351C92.7361 147.343 92.069 147.254 91.581 147.152C90.3413 146.892 90.6806 146.32 92.0396 146.379C92.6073 146.403 93.1383 146.289 93.2196 146.125C93.3008 145.961 93.5365 145.896 93.7434 145.98C93.9504 146.063 94.1703 146.03 94.2321 145.905C94.2939 145.781 94.5423 145.758 94.7836 145.856C95.025 145.954 95.6769 145.912 96.2325 145.763C96.7879 145.613 97.3938 145.553 97.5794 145.628C97.7648 145.703 97.9616 145.674 98.0168 145.562C98.0719 145.451 98.4067 145.406 98.7607 145.463C99.1227 145.521 99.7192 145.316 100.123 144.993C100.617 144.6 101.211 144.438 102.019 144.477C102.666 144.509 103.274 144.467 103.37 144.384C103.467 144.301 103.762 144.32 104.026 144.428C104.291 144.535 104.557 144.52 104.619 144.396C104.681 144.271 104.958 144.26 105.233 144.372C105.509 144.484 105.786 144.473 105.847 144.349C105.909 144.224 106.167 144.206 106.42 144.308C106.673 144.411 106.992 144.456 107.128 144.409C107.597 144.248 109.541 144.492 110.344 144.813C110.785 144.99 111.266 145.061 111.413 144.97C111.56 144.88 112.02 144.944 112.435 145.112C113.076 145.372 113.2 145.34 113.255 144.9C113.312 144.449 113.435 144.428 114.195 144.736C114.675 144.931 115.053 145.235 115.033 145.411C115.006 145.652 115.178 145.732 115.727 145.733C116.468 145.734 119.061 141.402 118.568 140.989C118.474 140.911 118.511 140.467 118.65 140.003C118.789 139.54 118.888 138.846 118.869 138.463C118.85 138.079 118.894 137.48 118.967 137.132C119.04 136.784 118.993 135.906 118.862 135.182C118.475 133.036 118.861 132.115 120.347 131.642C123.077 130.772 125.37 130.199 125.655 130.315C125.821 130.382 126.119 130.272 126.318 130.071C126.517 129.87 126.976 129.576 127.34 129.418C129.705 128.389 129.713 128.382 132.617 124.693C134.557 122.228 135.683 120.945 137.518 119.111C137.975 118.654 138.499 117.978 138.682 117.608C138.892 117.184 139.145 116.988 139.365 117.077C140.068 117.363 141.205 115.464 142.121 112.475C142.764 110.375 149.225 97.3566 149.706 97.1909C149.906 97.1219 150.252 96.704 150.474 96.2624C151.074 95.0701 155.84 88.729 156.68 88.0053C157.228 87.5339 158.425 85.8121 159.137 84.4731C159.516 83.76 159.766 83.5087 159.94 83.6666C160.128 83.8377 160.424 83.3946 161.104 81.9247C161.639 80.7685 162.136 79.9641 162.305 79.9795C162.631 80.0095 167.186 71.2434 167.107 70.7357C167.08 70.5629 167.101 70.3162 167.154 70.1877C167.207 70.0592 167.656 68.9033 168.154 67.6193C168.972 65.5071 169.115 65.2735 169.658 65.169C170.219 65.0609 170.244 65.0154 170.046 64.4651C169.93 64.1418 169.939 63.6665 170.067 63.4089C170.335 62.869 169.972 62.4499 169.129 62.3221C168.791 62.2712 168.595 62.1256 168.667 61.9802C168.736 61.8407 168.573 61.6381 168.305 61.5295C168.038 61.421 167.799 61.2019 167.776 61.0426C167.753 60.8832 167.465 60.6439 167.136 60.5107C166.807 60.3776 166.519 60.1382 166.496 59.9789C166.472 59.8196 166.122 59.5548 165.716 59.3903C165.31 59.2258 165.029 58.9892 165.09 58.8645C165.152 58.7397 164.815 58.4803 164.34 58.2878C163.865 58.0953 163.458 57.8076 163.434 57.6483C163.411 57.489 163.01 57.2039 162.543 57.0148C162.077 56.8257 161.676 56.5407 161.653 56.3813C161.547 55.6593 159.414 55.1664 158.916 55.7488C158.654 56.0546 157.722 56.8379 156.843 57.4892C155.964 58.1406 155.13 58.9056 154.989 59.1893C154.593 59.9885 152.665 62.3404 147.822 67.9353C141.705 75.0019 141.004 75.8554 139.998 77.4651C139.261 78.6435 139.066 78.8198 138.794 78.5544C138.23 78.0059 137.645 77.683 134.275 76.0633C132.469 75.195 130.601 74.2462 130.124 73.9548C129.577 73.6205 129.214 73.5127 129.139 73.6629C129.074 73.7937 128.582 73.761 128.046 73.5901C127.329 73.3616 126.938 73.3877 126.57 73.6891C126.229 73.9683 125.854 74.0116 125.394 73.8254C124.513 73.4683 123.659 73.7802 123.248 74.6092C123.021 75.0683 122.794 75.223 122.516 75.1102C122.251 75.0029 122.226 74.8446 122.443 74.6497C122.625 74.4863 123.022 73.8506 123.326 73.2371C123.759 72.3639 123.966 72.1571 124.282 72.285C124.547 72.3923 124.694 72.3038 124.711 72.0279C124.725 71.7966 124.783 71.5137 124.84 71.3992C124.896 71.2846 124.787 71.128 124.598 71.0512C124.175 70.8798 123.451 71.7691 122.576 73.5344C121.943 74.8124 121.89 74.8563 121.274 74.6069C120.406 74.255 118.636 72.9756 118.737 72.7726C118.892 72.4603 117.795 71.5623 116.734 71.1323C116.148 70.8945 115.598 70.5354 115.514 70.334C115.357 69.9622 112.304 68.8348 110.834 68.6065C109.982 68.4741 109.93 67.7853 110.623 65.7952C110.852 65.1388 111.305 63.6676 111.63 62.526C112.475 59.5573 115.188 52.3753 115.667 51.8402C115.889 51.5916 116.25 50.725 116.468 49.9144C117.473 46.1719 117.649 45.3874 118.902 39.0526C119.251 37.2908 119.903 35.1757 120.419 34.1353C120.709 33.5501 120.833 33.0258 120.695 32.9699C120.542 32.9076 120.973 31.8013 121.806 30.1208L123.168 27.3733L122.367 27.1681C121.819 27.0282 121.612 26.8674 121.714 26.6621C121.887 26.3121 120.769 25.7848 120.371 26.0287ZM121.011 30.5102C119.424 33.7123 118.995 33.9696 119.513 31.4091C119.839 29.8003 119.917 29.6377 120.45 29.4541C121.173 29.2048 121.215 29.1189 120.961 28.4105C120.708 27.705 121.223 27.1913 121.907 27.4685C122.392 27.6651 122.349 27.8116 121.011 30.5102ZM118.89 28.7126C118.701 29.0941 118.437 29.8755 118.303 30.4495C118.169 31.0233 117.839 32.2616 117.57 33.201C117.301 34.1405 117.023 35.2537 116.953 35.6748C116.883 36.0959 116.736 36.8944 116.626 37.4492C116.245 39.3773 115.9 41.5304 115.52 44.3551C115.31 45.9177 114.883 48.0125 114.573 49.0102C114.262 50.0078 113.925 51.2196 113.824 51.703C113.723 52.1863 113.261 53.6539 112.798 54.9643C112.335 56.2748 111.758 58.002 111.517 58.8029C111.275 59.6037 110.681 61.5079 110.196 63.0343C109.711 64.5606 109.078 66.694 108.788 67.7749C108.011 70.6694 106.872 72.6734 106.743 71.3703C106.716 71.0985 106.559 70.8209 106.394 70.7534C106.228 70.686 106.057 70.1568 106.013 69.5775C105.901 68.1162 105.033 67.6052 104.497 68.686C104.104 69.4791 103.483 69.8465 102.92 69.6185C102.741 69.5458 102.717 69.2375 102.868 68.9331C103.409 67.8417 101.526 67.158 93.1674 65.4122C92.4919 65.271 91.3994 65.014 90.7398 64.8406L89.5404 64.5257L90.2834 63.027C90.8027 61.9793 91.1205 61.5667 91.3397 61.6555C91.5122 61.7257 91.5735 61.9434 91.4763 62.1396C91.3676 62.3589 91.484 62.5342 91.7782 62.594C92.4143 62.7236 93.0946 61.0679 92.9999 59.6213C92.9628 59.0538 93.1803 57.8397 93.4831 56.9233C93.7858 56.0069 94.3668 54.1665 94.774 52.8335C95.1811 51.5004 95.7752 49.8413 96.0943 49.1467C96.7474 47.724 97.7219 44.9844 98.8471 41.41C100.2 37.1099 100.416 36.3561 100.799 34.5747C101.184 32.7905 101.253 32.3903 101.617 29.8355C101.938 27.5874 102.568 27.2497 106.6 27.1652C107.244 27.1516 108.013 27.1265 108.31 27.1093C108.606 27.092 109.13 27.1925 109.475 27.3322C111.049 27.9701 117.731 28.4548 118.273 27.9702C118.806 27.4935 119.237 28.0119 118.89 28.7126ZM162.447 59.7141C162.954 60.2111 163.584 60.7054 163.849 60.8125C164.113 60.9197 164.285 61.0968 164.231 61.2059C164.177 61.315 164.839 61.6896 165.701 62.0384C168.744 63.2685 168.796 64.2282 166.022 67.9419C163.641 71.1297 161.613 74.2773 158.153 80.1585C156.291 83.3248 153.384 87.5227 151.746 89.4101C151.41 89.798 150.589 91.0588 149.923 92.2119C148.824 94.114 148.63 94.3284 147.836 94.5247L146.96 94.741L145.354 98.1492C143.038 103.061 141.2 106.478 140.849 106.52C140.677 106.541 139.661 108.321 138.509 110.618C137.018 113.592 136.237 114.912 135.59 115.547C135.104 116.025 134.148 117.291 133.464 118.362C131.173 121.95 127.363 126.921 127.011 126.779C126.833 126.706 126.349 126.89 125.937 127.187C125.412 127.564 125.067 127.639 124.787 127.436C124.48 127.212 124.221 127.321 123.661 127.906C123.262 128.325 122.834 128.626 122.711 128.576C122.587 128.526 122.314 128.661 122.103 128.875C121.891 129.089 121.609 129.22 121.476 129.166C121.343 129.111 120.751 129.239 120.161 129.45C119.571 129.66 119.03 129.808 118.959 129.779C118.887 129.75 118.391 129.853 117.856 130.008C117.321 130.162 116.26 130.467 115.498 130.686C114.736 130.905 114.022 131.047 113.911 131.002C113.8 130.957 113.608 131.124 113.484 131.374C113.208 131.932 113.672 132.143 114.928 132.029C116.092 131.924 116.57 132.755 116.265 134.357C116.167 134.869 116.067 135.709 116.042 136.224C115.845 140.221 115.334 141.384 114.007 140.847C113.53 140.653 112.863 140.513 112.524 140.534C112.024 140.566 110.887 140.274 109.033 139.637C108.937 139.604 108.642 139.642 108.377 139.722C107.443 140.004 105.786 140.074 103.136 139.945C101.901 139.884 100.991 139.874 98.9616 139.897C97.8475 139.909 96.8162 139.871 96.6695 139.811C96.5227 139.752 96.3522 139.805 96.2904 139.93C96.2286 140.055 95.959 140.068 95.6911 139.96C95.4233 139.851 95.084 139.836 94.9369 139.926C94.7897 140.016 94.4505 140.001 94.1826 139.893C93.9147 139.784 93.6452 139.798 93.5833 139.922C93.5215 140.047 93.2451 140.058 92.9692 139.946C92.6933 139.834 92.417 139.844 92.3552 139.969C92.2933 140.094 92.0449 140.116 91.8034 140.019C91.3992 139.856 89.3918 139.972 88.9354 140.184C88.8277 140.234 88.3319 140.277 87.8336 140.28C87.3353 140.282 86.574 140.314 86.1416 140.351C85.7094 140.387 84.8464 140.42 84.2235 140.423C83.6008 140.426 83.0524 140.506 83.0052 140.602C82.958 140.697 82.6936 140.683 82.4177 140.572C82.1418 140.46 81.8716 140.458 81.8172 140.568C81.7629 140.677 81.3169 140.757 80.8263 140.744C80.3356 140.731 79.8897 140.81 79.8354 140.92C79.7809 141.029 79.5672 141.05 79.3603 140.967C79.1534 140.883 78.9335 140.916 78.8716 141.041C78.8098 141.166 78.6147 141.209 78.4384 141.138C78.2618 141.066 77.8536 141.146 77.5311 141.315C77.2085 141.484 76.8003 141.563 76.6237 141.492C76.4474 141.42 76.2647 141.439 76.2179 141.533C76.1712 141.627 75.6943 141.701 75.1579 141.697C73.4587 141.683 71.1701 142.115 70.4274 142.589C70.0328 142.841 69.5958 143.001 69.4561 142.944C69.3161 142.888 68.5578 142.948 67.7709 143.078C66.9839 143.209 66.2191 143.267 66.0716 143.207C65.9239 143.147 65.7527 143.2 65.6908 143.325C65.629 143.45 65.4091 143.483 65.2022 143.399C64.9952 143.315 64.7753 143.349 64.7135 143.473C64.6517 143.598 64.4802 143.651 64.3324 143.591C64.1845 143.531 63.8518 143.55 63.5927 143.632C62.519 143.973 61.6483 144.138 61.4156 144.043C61.2791 143.988 61.1169 144.045 61.0551 144.17C60.9932 144.294 60.7834 144.332 60.5887 144.253C60.3941 144.174 59.7981 144.3 59.2642 144.533C57.1063 145.476 57.2178 145.226 60.9119 140.843C65.2132 135.739 65.2711 135.664 65.9273 134.341C66.2553 133.679 67.1867 132.312 67.9971 131.302C68.8073 130.293 69.9126 128.605 70.4528 127.55C70.9932 126.496 71.7274 125.323 72.0843 124.945C72.4414 124.566 72.8957 123.929 73.0941 123.529C73.2924 123.129 73.657 122.785 73.9042 122.765C74.2358 122.739 74.7107 122.088 75.7141 120.285C76.4624 118.941 77.3928 117.384 77.7813 116.826L78.488 115.811L80.714 116.878C81.9383 117.466 83.1796 118.146 83.4725 118.391C84.2732 119.06 85.9185 119.892 86.3397 119.842C86.9611 119.767 86.8145 118.929 86.132 118.652C85.7834 118.511 85.1363 118.137 84.6939 117.821C84.2516 117.504 83.3299 116.871 82.6457 116.413C80.5695 115.023 78.3104 111.866 78.9684 111.274C79.1423 111.117 78.9377 110.778 78.4038 110.337C77.9432 109.957 77.6089 109.56 77.6609 109.455C77.7128 109.35 77.6148 109.206 77.4428 109.135C77.271 109.064 76.8805 108.458 76.5754 107.788C76.2194 107.007 75.9136 106.636 75.722 106.754C75.3891 106.958 74.3867 106.337 74.5424 106.023C74.5969 105.913 74.4724 105.754 74.2654 105.671C74.0585 105.587 73.9398 105.416 74.0017 105.291C74.0635 105.166 73.9448 104.996 73.7379 104.912C73.5309 104.828 73.4122 104.657 73.4741 104.533C73.5359 104.408 73.4172 104.237 73.2103 104.153C73.0033 104.069 72.8752 103.918 72.9254 103.816C72.9758 103.715 72.6914 103.331 72.2935 102.965C71.8955 102.598 71.6111 102.214 71.6615 102.113C71.7117 102.011 71.5836 101.86 71.3767 101.776C71.1697 101.692 71.0474 101.528 71.1049 101.413C71.1622 101.297 71.1304 101.008 71.034 100.771C70.4734 99.3923 70.5078 98.4273 71.1085 98.6708C71.3154 98.7547 71.5353 98.7213 71.5971 98.5965C71.659 98.4718 71.4715 98.2732 71.1806 98.1553C70.8896 98.0373 70.5091 97.6426 70.3352 97.2782C69.2918 95.0937 69.1173 94.6539 68.9782 93.8578C68.5893 91.6302 68.4099 87.8891 68.6377 86.754C68.709 86.3975 68.6708 85.6104 68.5526 85.0049C68.4342 84.3996 68.3844 83.8099 68.4416 83.6944C68.4987 83.5792 68.5132 82.988 68.4732 82.3807C68.4335 81.7735 68.6196 80.5274 68.8865 79.6117C69.371 77.9488 69.2995 77.0503 68.6876 77.124C68.5096 77.1453 68.3094 77.4397 68.2432 77.7782C68.1766 78.1167 68.0344 78.3579 67.9268 78.3143C67.6123 78.1868 67.1743 77.1362 67.3162 76.85C67.3878 76.7055 67.43 76.0735 67.4101 75.4452C67.3641 73.9933 67.9663 72.705 68.6589 72.7741C69.1893 72.827 70.9213 71.0278 72.599 68.6817C73.0821 68.0061 73.7233 67.3688 74.0238 67.2651C74.3246 67.1615 74.6557 66.9048 74.7599 66.6948C75.1337 65.9407 76.4138 66.2536 81.7448 68.4028C84.5755 69.5437 87.3924 70.5605 88.0048 70.6619C88.6172 70.7633 89.6554 71.0613 90.3122 71.324C91.0337 71.6124 91.5569 71.6994 91.6342 71.5434C91.7254 71.3595 91.2515 71.1355 89.9869 70.765C85.7457 69.5226 83.9217 68.8726 84.0369 68.645C84.2007 68.3213 85.6477 68.3372 86.4731 68.6718C86.8514 68.8251 87.2678 68.8849 87.3989 68.8046C87.5296 68.7244 88.0317 68.7531 88.5147 68.8682C88.9974 68.9833 89.9586 69.1662 90.6505 69.2744C92.5254 69.5681 94.8759 70.169 97.2671 70.9658C99.5831 71.7377 100.383 71.5863 98.3475 70.7612C97.6578 70.4816 97.144 70.1508 97.2059 70.0261C97.2677 69.9013 97.6343 69.9273 98.0206 70.0839C98.4068 70.2405 98.8741 70.3236 99.0587 70.2683C99.5533 70.1207 101.178 70.5195 101.059 70.7595C101.003 70.8726 101.176 71.1397 101.443 71.3532C101.947 71.7565 102.127 72.2264 101.933 72.6347C101.87 72.7657 101.075 72.8021 100.165 72.7155C99.2552 72.6289 98.3623 72.5987 98.1802 72.6483C97.6436 72.7944 98.7215 73.1197 100.1 73.2275C101.24 73.3167 101.396 73.3802 101.623 73.849C101.763 74.1359 102.005 74.4227 102.161 74.4861C103.041 74.8426 101.776 77.4898 100.05 78.9034C97.1168 81.307 95.8085 82.2617 95.5768 82.1678C95.2048 82.017 91.3588 82.1661 91.1524 82.3393C91.0577 82.4186 90.7641 82.396 90.4997 82.2888C90.2353 82.1817 89.9683 82.196 89.9065 82.3208C89.8446 82.4455 89.6119 82.4738 89.3892 82.3835C89.1667 82.2933 88.4769 82.249 87.8565 82.2852C86.4411 82.3679 84.9503 82.2185 84.2144 81.9202C83.772 81.7409 83.6279 81.8012 83.5546 82.1975C83.4789 82.6067 83.3376 82.6543 82.8201 82.4446C82.4559 82.2969 81.6735 82.3369 81.0074 82.537L79.8353 82.8889L80.9951 82.9798C83.1099 83.1457 87.1291 84.6186 87.6891 85.4328C87.9528 85.8165 88.3962 86.3549 88.6743 86.6294C89.1551 87.1044 89.4596 87.3937 90.7822 88.6341C91.0983 88.9309 91.5777 89.263 91.8471 89.3722C92.1164 89.4814 92.2863 89.6728 92.2245 89.7976C92.1627 89.9223 92.331 90.1132 92.5989 90.2217C92.8668 90.3303 93.1049 90.5494 93.1283 90.7087C93.1518 90.868 93.3808 91.0835 93.6374 91.1875C94.1696 91.4032 95.2947 92.7091 95.1701 92.9664C95.1245 93.0604 95.2155 93.1891 95.372 93.2525C95.5288 93.316 95.7887 93.6971 95.9497 94.0995C96.1108 94.502 96.6152 95.6356 97.0702 96.6184C97.5251 97.6014 97.8602 98.4811 97.8144 98.5734C97.7688 98.6655 97.8976 99.4314 98.1005 100.275C98.3037 101.119 98.5267 102.104 98.5962 102.465C98.6659 102.826 98.8037 103.326 98.9026 103.576C99.1303 104.152 98.9436 106.625 98.6234 107.271C98.3741 107.775 98.6786 108.212 99.5143 108.551C99.8133 108.672 99.9447 108.979 99.8668 109.375C99.7988 109.722 99.8438 110.046 99.9667 110.096C100.372 110.26 100.535 109.516 100.35 108.345C100.131 106.951 100.241 106.666 100.9 106.933C101.176 107.045 101.452 107.035 101.514 106.91C101.576 106.785 101.537 106.647 101.427 106.602C101.318 106.558 101.296 105.875 101.378 105.084C101.46 104.294 101.451 103.616 101.357 103.578C101.025 103.443 101.186 102.233 101.609 101.686C102.076 101.083 104.937 101.904 105.291 102.743C105.398 102.998 105.625 103.076 106.094 103.017C106.87 102.92 107.38 103.583 107.047 104.254C106.856 104.639 107.159 105.117 107.892 105.589C108.08 105.71 108.853 106.201 109.61 106.68C110.366 107.16 111.008 107.694 111.036 107.867C111.132 108.454 120.186 111.824 120.593 111.425C120.735 111.285 120.648 111.024 120.4 110.843C119.8 110.407 119.868 109.775 120.541 109.544C120.9 109.42 121.326 108.883 121.796 107.962C122.705 106.177 124.36 104.117 124.848 104.162C125.152 104.189 124.998 104.57 124.077 106.079C123.363 107.248 123.018 108 123.168 108.06C123.304 108.116 124.226 106.687 125.292 104.767C127.62 100.575 128.327 99.529 128.727 99.6907C128.956 99.7837 128.786 100.246 128.073 101.469C127.405 102.614 127.196 103.156 127.392 103.236C127.556 103.302 127.866 102.967 128.126 102.444C128.373 101.945 128.678 101.578 128.803 101.629C128.929 101.679 129.383 101.159 129.814 100.472C134.721 92.6458 137.358 87.6575 137.952 85.0807C138.161 84.1754 138.407 83.6012 138.598 83.572C138.875 83.5301 139.496 82.6762 142.676 77.9705C143.153 77.2649 144.551 75.564 145.783 74.1906C147.492 72.2843 148.283 71.1872 149.126 69.5535C149.734 68.3766 150.777 66.7771 151.445 65.9991C152.113 65.2213 152.973 64.2217 153.356 63.7777C153.74 63.3338 154.4 62.4982 154.823 61.9208C156.474 59.6704 157.072 59.1502 158.924 58.3486C160.15 57.8182 160.754 58.0523 162.447 59.7141ZM132.155 78.7238C137.373 81.0939 137.585 81.2729 136.558 82.4418C136.221 82.8264 135.267 84.3374 134.44 85.8C132.901 88.5215 130.461 91.9856 129.703 92.5241C129.47 92.6897 129.067 93.2534 128.808 93.7762C128.549 94.2992 128.075 94.9976 127.755 95.328C127.435 95.6583 126.215 97.5627 125.044 99.5599C123.873 101.557 122.51 103.64 122.016 104.189C121.522 104.738 120.655 105.919 120.09 106.813C118.556 109.242 118.367 109.22 111.642 105.802C108.045 103.975 108.205 104.486 109.911 100.26C110.612 98.5243 111.264 96.658 111.36 96.1131C111.526 95.1747 113.696 90.7383 114.358 89.9848C114.824 89.4543 115.111 89.7162 115.076 90.6378C115.049 91.33 115.404 90.7077 117.27 86.7869C119.084 82.9767 119.695 81.8954 120.567 80.9516C121.156 80.3146 121.85 79.5159 122.11 79.1766C122.889 78.1593 125.054 78.0204 124.305 79.036C123.924 79.553 124.937 79.9286 125.333 79.4173C125.683 78.9662 125.393 78.4654 124.589 78.1335C124.116 77.9382 124.087 77.7778 124.41 77.1261C125.247 75.4382 124.652 75.3153 132.155 78.7238ZM120.713 76.4374C120.731 77.1861 120.616 77.5061 120.223 77.8048C119.636 78.2497 119.096 78.895 117.808 80.6922C115.15 84.3972 114.273 85.4607 113.823 85.5243C113.401 85.5839 108.927 94.8445 108.981 95.5446C109.007 95.8782 108.581 96.5152 107.649 97.5382C106.896 98.3651 106.249 99.2836 106.211 99.5792C106.146 100.095 106.078 100.085 104.484 99.3048C101.167 97.682 99.8225 96.3454 100.378 95.2243C100.739 94.4969 99.0402 91.7432 97.9614 91.3059C97.3665 91.0647 97.3468 90.244 97.9041 88.9197C98.2089 88.1962 98.3816 87.5013 98.2882 87.3757C97.7719 86.6824 99.0999 85.2302 99.9389 85.5702C100.133 85.649 100.433 85.5867 100.605 85.4317C100.777 85.2768 101.132 85.2367 101.393 85.3425C101.654 85.4484 101.889 85.4924 101.915 85.4402C101.941 85.388 102.132 85.1897 102.34 84.9997C102.672 84.6963 102.648 84.6711 102.145 84.7928C101.245 85.0107 100.891 84.4676 101.341 83.5594C101.767 82.7005 102.779 82.7475 103.053 83.6394C103.288 84.4024 104.434 84.7536 104.522 84.0895C104.564 83.7704 104.543 83.4258 104.476 83.3237C104.409 83.2215 104.485 82.7017 104.645 82.1684C104.804 81.635 104.837 81.1171 104.717 81.0174C104.092 80.498 108.27 73.5865 109.554 73.0163C109.781 72.9157 109.927 72.7395 109.879 72.6252C109.771 72.3702 111.317 71.954 111.756 72.1196C111.931 72.1854 112.015 72.3567 111.944 72.5002C111.85 72.6887 112.497 72.9904 114.267 73.5856C115.796 74.0993 116.679 74.4929 116.611 74.6306C116.551 74.752 116.818 74.9794 117.204 75.136C118.155 75.5215 118.319 76.0455 117.811 77.0709C117.576 77.5449 117.497 77.9785 117.635 78.0344C117.773 78.0903 118.11 77.6829 118.385 77.1288C118.659 76.5747 119.034 76.1036 119.217 76.0816C119.401 76.0594 119.579 75.8182 119.613 75.5451C119.735 74.5871 120.688 75.3597 120.713 76.4374ZM110.757 73.5375C111.183 73.7706 111.861 74.0442 112.263 74.1453C112.666 74.2462 112.318 74.0553 111.489 73.7212C110.661 73.3868 110.332 73.3043 110.757 73.5375ZM126.552 79.9463C125.82 79.8136 125.773 80.2437 126.487 80.5331C126.832 80.6729 127.161 80.6913 127.22 80.5738C127.366 80.2783 127.123 80.0502 126.552 79.9463ZM95.744 72.0636C94.6988 71.8326 93.448 71.5535 92.964 71.4434C92.48 71.3333 92.0421 71.3282 91.9907 71.4319C91.8724 71.6707 94.2765 72.3954 94.7292 72.2575C94.9144 72.201 95.4678 72.3158 95.9583 72.5125C96.7922 72.8464 97.8929 72.9107 97.721 72.6152C97.6788 72.5428 96.7892 72.2945 95.744 72.0636ZM114.156 93.3173C113.33 95.3081 113.206 95.9265 113.643 95.874C114.125 95.816 115.151 93.4749 114.898 93.0095C114.774 92.78 114.725 92.3468 114.79 92.0469C114.855 91.7472 114.57 92.3187 114.156 93.3173ZM95.2557 86.3277C95.215 86.5732 95.1406 87.0333 95.0907 87.3503C95.0151 87.8309 94.904 87.8861 94.4222 87.6835C93.7431 87.3981 93.2046 86.6051 93.4093 86.1921C93.7636 85.4774 95.3775 85.5958 95.2557 86.3277ZM67.9631 90.6865C68.1336 91.8451 67.7981 92.6521 67.1595 92.6205C66.4908 92.5872 66.4387 92.1896 66.9168 90.775C67.4122 89.3088 67.7564 89.2798 67.9631 90.6865ZM72.3346 126.406L71.2748 128.564L72.2054 127.233C72.7706 126.425 73.187 125.577 73.2653 125.075C73.3668 124.424 73.1685 124.708 72.3346 126.406ZM104.745 148.093C104.248 148.092 103.457 148.08 102.987 148.065C101.553 148.021 102.205 148.432 103.7 148.515C105.344 148.607 106.586 148.458 106.02 148.238C105.815 148.159 105.241 148.093 104.745 148.093Z"/>
</mask>
<path fill-rule="evenodd" clip-rule="evenodd" d="M120.371 26.0287C120.224 26.1189 119.894 26.1077 119.638 26.0038C119.381 25.9 119.093 25.8823 118.997 25.9646C118.901 26.0469 117.696 26.0623 116.319 25.9992C113.263 25.8584 112.322 25.841 109.604 25.8738C107.65 25.8974 105.95 25.8745 103.589 25.7928C102.476 25.7542 100.999 26.5225 100.586 27.3551C100.42 27.6903 100.171 27.919 100.033 27.8631C99.8953 27.8072 99.6812 27.9655 99.5575 28.215C99.4339 28.4645 99.4889 28.732 99.6796 28.8093C100.239 29.0362 99.8835 30.1479 96.6323 38.3332C95.3156 41.6477 94.544 43.83 93.3047 47.7436C92.8634 49.1377 91.7957 51.8305 90.9321 53.7276C90.0688 55.6248 88.8939 58.7021 88.3214 60.5663C87.1646 64.3341 86.9981 64.5264 85.4448 63.8968C85.0653 63.743 84.6347 63.691 84.4876 63.7812C84.3405 63.8714 83.943 63.8328 83.6044 63.6956C83.2658 63.5583 82.7449 63.4632 82.4467 63.4843C82.1487 63.5051 81.1995 63.4415 80.3374 63.3426C79.4751 63.244 78.2996 63.1543 77.7252 63.1434C75.706 63.1053 75.4846 63.0951 74.8828 63.013C74.5284 62.9647 74.0811 63.1584 73.8068 63.4792C72.0778 65.5014 72.0577 65.5153 71.1978 65.255C70.2673 64.9737 69.8397 65.2264 70.1191 65.8926C70.3482 66.439 67.7098 69.9957 66.5983 70.6393C66.1337 70.908 65.8324 71.3288 65.6071 72.0233C65.4292 72.5719 64.8698 74.1707 64.3637 75.5762C63.6888 77.4511 63.5356 78.1686 63.7884 78.2711C63.9886 78.3522 64.0151 78.6481 63.8517 78.9777C63.6971 79.2896 63.6835 79.5905 63.8215 79.6464C63.9594 79.7023 63.9695 79.9554 63.8439 80.2087C63.7182 80.4623 63.7557 80.797 63.9271 80.9525C64.1046 81.1138 64.0987 81.5178 63.9133 81.8918C63.7344 82.2527 63.7009 82.5937 63.8388 82.6496C63.9768 82.7056 64.0383 82.8226 63.9757 82.9094C63.6538 83.3553 63.5471 83.9083 63.7884 83.8792C63.939 83.861 63.8841 84.0768 63.6662 84.3584C63.4363 84.6557 63.3875 84.9182 63.5501 84.9841C63.7043 85.0466 63.7496 85.2602 63.6512 85.4587C63.5527 85.6574 63.5692 86.171 63.688 86.5999C63.8066 87.029 63.8475 87.494 63.7786 87.633C63.7099 87.7721 63.7929 88.3097 63.963 88.8275C64.1878 89.5122 64.1523 89.9393 63.832 90.394C63.5898 90.7379 63.4371 91.1669 63.4926 91.3473C64.0465 93.143 64.1525 93.561 64.0877 93.6925C64.0144 93.8409 65.0439 96.4849 65.1996 96.5481C65.2428 96.5656 65.6581 97.4693 66.1225 98.5565C66.587 99.6436 67.0389 100.562 67.1269 100.598C67.2149 100.634 67.436 100.999 67.6181 101.41C68.0811 102.454 68.602 103.375 68.7683 103.442C68.8455 103.474 68.9887 103.685 69.0867 103.912C69.1847 104.139 69.5127 104.731 69.8156 105.229C70.1185 105.726 70.4464 106.319 70.5445 106.546C70.6425 106.773 70.7857 106.984 70.863 107.015C71.0032 107.072 71.5047 107.923 71.8647 108.715C71.9692 108.945 72.1636 109.177 72.2968 109.231C72.4299 109.285 72.7497 109.782 73.0071 110.336C73.2646 110.89 73.6839 111.427 73.9387 111.531C75.5154 112.17 75.2032 113.996 73.0458 116.752C72.2104 117.82 69.4054 121.571 67.3413 124.382C66.4512 125.594 64.6067 128.646 63.2425 131.165C60.8083 135.658 59.3404 138.04 57.3346 140.755C56.7809 141.504 55.9438 142.636 55.474 143.269C53.7256 145.628 53.0259 146.828 53.2353 147.107C53.3475 147.257 53.3414 147.578 53.2213 147.82C52.9095 148.449 53.5094 148.59 54.7712 148.185C56.4429 147.648 57.4798 147.562 57.9275 147.923C58.2732 148.202 59.6477 148.108 60.4863 147.748C60.8369 147.597 62.8851 147.635 63.292 147.8C63.5127 147.89 63.7436 147.861 63.8055 147.736C63.8673 147.611 64.2565 147.646 64.6703 147.814C65.172 148.017 65.3666 148.233 65.2542 148.459C65.1614 148.646 64.9679 148.752 64.8242 148.694C64.6804 148.635 64.2193 148.694 63.7997 148.823C63.1749 149.016 63.1106 149.089 63.4449 149.224C63.6699 149.315 63.9741 149.316 64.1212 149.226C64.2683 149.136 64.6076 149.151 64.8754 149.259C65.1433 149.368 65.4129 149.354 65.4747 149.23C65.5366 149.105 65.8129 149.094 66.0888 149.206C66.3647 149.318 66.641 149.307 66.7029 149.183C66.7647 149.058 66.9846 149.025 67.1915 149.108C67.3984 149.192 67.6183 149.159 67.6802 149.034C67.742 148.909 67.9248 148.861 68.0863 148.926C68.2478 148.992 68.6715 148.96 69.0273 148.855C69.7853 148.633 70.7695 148.519 71.9265 148.519C72.3817 148.52 72.7862 148.456 72.8251 148.378C72.864 148.299 73.4386 148.234 74.1019 148.232C74.7653 148.231 75.3509 148.143 75.4034 148.038C75.4558 147.932 75.6728 147.916 75.8855 148.002C76.0982 148.088 76.5952 148.059 76.9901 147.937C77.4499 147.796 78.2307 147.882 79.162 148.179C79.9968 148.445 80.8023 148.551 81.0539 148.427C81.2948 148.309 81.6862 148.338 81.9239 148.493C82.2378 148.697 82.3625 148.661 82.3809 148.361C82.3982 148.076 82.4992 148.034 82.7086 148.224C83.0574 148.541 85.0843 148.56 85.2391 148.248C85.296 148.133 85.4821 148.166 85.6526 148.321C85.8291 148.481 86.1056 148.473 86.2957 148.302C86.4792 148.137 86.6999 148.096 86.7863 148.211C86.8728 148.327 87.8952 148.373 89.0583 148.314C90.221 148.255 91.3536 148.28 91.5746 148.369C91.7956 148.459 92.0578 148.458 92.158 148.368C92.351 148.194 95.6674 148.121 96.0654 148.283C96.1951 148.335 96.8045 148.337 97.4192 148.287C98.034 148.236 98.7031 148.262 98.9057 148.345C99.1086 148.427 99.325 148.392 99.3869 148.267C99.4487 148.142 99.7183 148.129 99.9861 148.238C100.254 148.346 100.593 148.361 100.74 148.271C101.062 148.074 99.9671 147.588 99.4933 147.718C99.3111 147.768 98.5866 147.74 97.8831 147.655C96.7316 147.516 94.6719 147.386 93.0638 147.351C92.7361 147.343 92.069 147.254 91.581 147.152C90.3413 146.892 90.6806 146.32 92.0396 146.379C92.6073 146.403 93.1383 146.289 93.2196 146.125C93.3008 145.961 93.5365 145.896 93.7434 145.98C93.9504 146.063 94.1703 146.03 94.2321 145.905C94.2939 145.781 94.5423 145.758 94.7836 145.856C95.025 145.954 95.6769 145.912 96.2325 145.763C96.7879 145.613 97.3938 145.553 97.5794 145.628C97.7648 145.703 97.9616 145.674 98.0168 145.562C98.0719 145.451 98.4067 145.406 98.7607 145.463C99.1227 145.521 99.7192 145.316 100.123 144.993C100.617 144.6 101.211 144.438 102.019 144.477C102.666 144.509 103.274 144.467 103.37 144.384C103.467 144.301 103.762 144.32 104.026 144.428C104.291 144.535 104.557 144.52 104.619 144.396C104.681 144.271 104.958 144.26 105.233 144.372C105.509 144.484 105.786 144.473 105.847 144.349C105.909 144.224 106.167 144.206 106.42 144.308C106.673 144.411 106.992 144.456 107.128 144.409C107.597 144.248 109.541 144.492 110.344 144.813C110.785 144.99 111.266 145.061 111.413 144.97C111.56 144.88 112.02 144.944 112.435 145.112C113.076 145.372 113.2 145.34 113.255 144.9C113.312 144.449 113.435 144.428 114.195 144.736C114.675 144.931 115.053 145.235 115.033 145.411C115.006 145.652 115.178 145.732 115.727 145.733C116.468 145.734 119.061 141.402 118.568 140.989C118.474 140.911 118.511 140.467 118.65 140.003C118.789 139.54 118.888 138.846 118.869 138.463C118.85 138.079 118.894 137.48 118.967 137.132C119.04 136.784 118.993 135.906 118.862 135.182C118.475 133.036 118.861 132.115 120.347 131.642C123.077 130.772 125.37 130.199 125.655 130.315C125.821 130.382 126.119 130.272 126.318 130.071C126.517 129.87 126.976 129.576 127.34 129.418C129.705 128.389 129.713 128.382 132.617 124.693C134.557 122.228 135.683 120.945 137.518 119.111C137.975 118.654 138.499 117.978 138.682 117.608C138.892 117.184 139.145 116.988 139.365 117.077C140.068 117.363 141.205 115.464 142.121 112.475C142.764 110.375 149.225 97.3566 149.706 97.1909C149.906 97.1219 150.252 96.704 150.474 96.2624C151.074 95.0701 155.84 88.729 156.68 88.0053C157.228 87.5339 158.425 85.8121 159.137 84.4731C159.516 83.76 159.766 83.5087 159.94 83.6666C160.128 83.8377 160.424 83.3946 161.104 81.9247C161.639 80.7685 162.136 79.9641 162.305 79.9795C162.631 80.0095 167.186 71.2434 167.107 70.7357C167.08 70.5629 167.101 70.3162 167.154 70.1877C167.207 70.0592 167.656 68.9033 168.154 67.6193C168.972 65.5071 169.115 65.2735 169.658 65.169C170.219 65.0609 170.244 65.0154 170.046 64.4651C169.93 64.1418 169.939 63.6665 170.067 63.4089C170.335 62.869 169.972 62.4499 169.129 62.3221C168.791 62.2712 168.595 62.1256 168.667 61.9802C168.736 61.8407 168.573 61.6381 168.305 61.5295C168.038 61.421 167.799 61.2019 167.776 61.0426C167.753 60.8832 167.465 60.6439 167.136 60.5107C166.807 60.3776 166.519 60.1382 166.496 59.9789C166.472 59.8196 166.122 59.5548 165.716 59.3903C165.31 59.2258 165.029 58.9892 165.09 58.8645C165.152 58.7397 164.815 58.4803 164.34 58.2878C163.865 58.0953 163.458 57.8076 163.434 57.6483C163.411 57.489 163.01 57.2039 162.543 57.0148C162.077 56.8257 161.676 56.5407 161.653 56.3813C161.547 55.6593 159.414 55.1664 158.916 55.7488C158.654 56.0546 157.722 56.8379 156.843 57.4892C155.964 58.1406 155.13 58.9056 154.989 59.1893C154.593 59.9885 152.665 62.3404 147.822 67.9353C141.705 75.0019 141.004 75.8554 139.998 77.4651C139.261 78.6435 139.066 78.8198 138.794 78.5544C138.23 78.0059 137.645 77.683 134.275 76.0633C132.469 75.195 130.601 74.2462 130.124 73.9548C129.577 73.6205 129.214 73.5127 129.139 73.6629C129.074 73.7937 128.582 73.761 128.046 73.5901C127.329 73.3616 126.938 73.3877 126.57 73.6891C126.229 73.9683 125.854 74.0116 125.394 73.8254C124.513 73.4683 123.659 73.7802 123.248 74.6092C123.021 75.0683 122.794 75.223 122.516 75.1102C122.251 75.0029 122.226 74.8446 122.443 74.6497C122.625 74.4863 123.022 73.8506 123.326 73.2371C123.759 72.3639 123.966 72.1571 124.282 72.285C124.547 72.3923 124.694 72.3038 124.711 72.0279C124.725 71.7966 124.783 71.5137 124.84 71.3992C124.896 71.2846 124.787 71.128 124.598 71.0512C124.175 70.8798 123.451 71.7691 122.576 73.5344C121.943 74.8124 121.89 74.8563 121.274 74.6069C120.406 74.255 118.636 72.9756 118.737 72.7726C118.892 72.4603 117.795 71.5623 116.734 71.1323C116.148 70.8945 115.598 70.5354 115.514 70.334C115.357 69.9622 112.304 68.8348 110.834 68.6065C109.982 68.4741 109.93 67.7853 110.623 65.7952C110.852 65.1388 111.305 63.6676 111.63 62.526C112.475 59.5573 115.188 52.3753 115.667 51.8402C115.889 51.5916 116.25 50.725 116.468 49.9144C117.473 46.1719 117.649 45.3874 118.902 39.0526C119.251 37.2908 119.903 35.1757 120.419 34.1353C120.709 33.5501 120.833 33.0258 120.695 32.9699C120.542 32.9076 120.973 31.8013 121.806 30.1208L123.168 27.3733L122.367 27.1681C121.819 27.0282 121.612 26.8674 121.714 26.6621C121.887 26.3121 120.769 25.7848 120.371 26.0287ZM121.011 30.5102C119.424 33.7123 118.995 33.9696 119.513 31.4091C119.839 29.8003 119.917 29.6377 120.45 29.4541C121.173 29.2048 121.215 29.1189 120.961 28.4105C120.708 27.705 121.223 27.1913 121.907 27.4685C122.392 27.6651 122.349 27.8116 121.011 30.5102ZM118.89 28.7126C118.701 29.0941 118.437 29.8755 118.303 30.4495C118.169 31.0233 117.839 32.2616 117.57 33.201C117.301 34.1405 117.023 35.2537 116.953 35.6748C116.883 36.0959 116.736 36.8944 116.626 37.4492C116.245 39.3773 115.9 41.5304 115.52 44.3551C115.31 45.9177 114.883 48.0125 114.573 49.0102C114.262 50.0078 113.925 51.2196 113.824 51.703C113.723 52.1863 113.261 53.6539 112.798 54.9643C112.335 56.2748 111.758 58.002 111.517 58.8029C111.275 59.6037 110.681 61.5079 110.196 63.0343C109.711 64.5606 109.078 66.694 108.788 67.7749C108.011 70.6694 106.872 72.6734 106.743 71.3703C106.716 71.0985 106.559 70.8209 106.394 70.7534C106.228 70.686 106.057 70.1568 106.013 69.5775C105.901 68.1162 105.033 67.6052 104.497 68.686C104.104 69.4791 103.483 69.8465 102.92 69.6185C102.741 69.5458 102.717 69.2375 102.868 68.9331C103.409 67.8417 101.526 67.158 93.1674 65.4122C92.4919 65.271 91.3994 65.014 90.7398 64.8406L89.5404 64.5257L90.2834 63.027C90.8027 61.9793 91.1205 61.5667 91.3397 61.6555C91.5122 61.7257 91.5735 61.9434 91.4763 62.1396C91.3676 62.3589 91.484 62.5342 91.7782 62.594C92.4143 62.7236 93.0946 61.0679 92.9999 59.6213C92.9628 59.0538 93.1803 57.8397 93.4831 56.9233C93.7858 56.0069 94.3668 54.1665 94.774 52.8335C95.1811 51.5004 95.7752 49.8413 96.0943 49.1467C96.7474 47.724 97.7219 44.9844 98.8471 41.41C100.2 37.1099 100.416 36.3561 100.799 34.5747C101.184 32.7905 101.253 32.3903 101.617 29.8355C101.938 27.5874 102.568 27.2497 106.6 27.1652C107.244 27.1516 108.013 27.1265 108.31 27.1093C108.606 27.092 109.13 27.1925 109.475 27.3322C111.049 27.9701 117.731 28.4548 118.273 27.9702C118.806 27.4935 119.237 28.0119 118.89 28.7126ZM162.447 59.7141C162.954 60.2111 163.584 60.7054 163.849 60.8125C164.113 60.9197 164.285 61.0968 164.231 61.2059C164.177 61.315 164.839 61.6896 165.701 62.0384C168.744 63.2685 168.796 64.2282 166.022 67.9419C163.641 71.1297 161.613 74.2773 158.153 80.1585C156.291 83.3248 153.384 87.5227 151.746 89.4101C151.41 89.798 150.589 91.0588 149.923 92.2119C148.824 94.114 148.63 94.3284 147.836 94.5247L146.96 94.741L145.354 98.1492C143.038 103.061 141.2 106.478 140.849 106.52C140.677 106.541 139.661 108.321 138.509 110.618C137.018 113.592 136.237 114.912 135.59 115.547C135.104 116.025 134.148 117.291 133.464 118.362C131.173 121.95 127.363 126.921 127.011 126.779C126.833 126.706 126.349 126.89 125.937 127.187C125.412 127.564 125.067 127.639 124.787 127.436C124.48 127.212 124.221 127.321 123.661 127.906C123.262 128.325 122.834 128.626 122.711 128.576C122.587 128.526 122.314 128.661 122.103 128.875C121.891 129.089 121.609 129.22 121.476 129.166C121.343 129.111 120.751 129.239 120.161 129.45C119.571 129.66 119.03 129.808 118.959 129.779C118.887 129.75 118.391 129.853 117.856 130.008C117.321 130.162 116.26 130.467 115.498 130.686C114.736 130.905 114.022 131.047 113.911 131.002C113.8 130.957 113.608 131.124 113.484 131.374C113.208 131.932 113.672 132.143 114.928 132.029C116.092 131.924 116.57 132.755 116.265 134.357C116.167 134.869 116.067 135.709 116.042 136.224C115.845 140.221 115.334 141.384 114.007 140.847C113.53 140.653 112.863 140.513 112.524 140.534C112.024 140.566 110.887 140.274 109.033 139.637C108.937 139.604 108.642 139.642 108.377 139.722C107.443 140.004 105.786 140.074 103.136 139.945C101.901 139.884 100.991 139.874 98.9616 139.897C97.8475 139.909 96.8162 139.871 96.6695 139.811C96.5227 139.752 96.3522 139.805 96.2904 139.93C96.2286 140.055 95.959 140.068 95.6911 139.96C95.4233 139.851 95.084 139.836 94.9369 139.926C94.7897 140.016 94.4505 140.001 94.1826 139.893C93.9147 139.784 93.6452 139.798 93.5833 139.922C93.5215 140.047 93.2451 140.058 92.9692 139.946C92.6933 139.834 92.417 139.844 92.3552 139.969C92.2933 140.094 92.0449 140.116 91.8034 140.019C91.3992 139.856 89.3918 139.972 88.9354 140.184C88.8277 140.234 88.3319 140.277 87.8336 140.28C87.3353 140.282 86.574 140.314 86.1416 140.351C85.7094 140.387 84.8464 140.42 84.2235 140.423C83.6008 140.426 83.0524 140.506 83.0052 140.602C82.958 140.697 82.6936 140.683 82.4177 140.572C82.1418 140.46 81.8716 140.458 81.8172 140.568C81.7629 140.677 81.3169 140.757 80.8263 140.744C80.3356 140.731 79.8897 140.81 79.8354 140.92C79.7809 141.029 79.5672 141.05 79.3603 140.967C79.1534 140.883 78.9335 140.916 78.8716 141.041C78.8098 141.166 78.6147 141.209 78.4384 141.138C78.2618 141.066 77.8536 141.146 77.5311 141.315C77.2085 141.484 76.8003 141.563 76.6237 141.492C76.4474 141.42 76.2647 141.439 76.2179 141.533C76.1712 141.627 75.6943 141.701 75.1579 141.697C73.4587 141.683 71.1701 142.115 70.4274 142.589C70.0328 142.841 69.5958 143.001 69.4561 142.944C69.3161 142.888 68.5578 142.948 67.7709 143.078C66.9839 143.209 66.2191 143.267 66.0716 143.207C65.9239 143.147 65.7527 143.2 65.6908 143.325C65.629 143.45 65.4091 143.483 65.2022 143.399C64.9952 143.315 64.7753 143.349 64.7135 143.473C64.6517 143.598 64.4802 143.651 64.3324 143.591C64.1845 143.531 63.8518 143.55 63.5927 143.632C62.519 143.973 61.6483 144.138 61.4156 144.043C61.2791 143.988 61.1169 144.045 61.0551 144.17C60.9932 144.294 60.7834 144.332 60.5887 144.253C60.3941 144.174 59.7981 144.3 59.2642 144.533C57.1063 145.476 57.2178 145.226 60.9119 140.843C65.2132 135.739 65.2711 135.664 65.9273 134.341C66.2553 133.679 67.1867 132.312 67.9971 131.302C68.8073 130.293 69.9126 128.605 70.4528 127.55C70.9932 126.496 71.7274 125.323 72.0843 124.945C72.4414 124.566 72.8957 123.929 73.0941 123.529C73.2924 123.129 73.657 122.785 73.9042 122.765C74.2358 122.739 74.7107 122.088 75.7141 120.285C76.4624 118.941 77.3928 117.384 77.7813 116.826L78.488 115.811L80.714 116.878C81.9383 117.466 83.1796 118.146 83.4725 118.391C84.2732 119.06 85.9185 119.892 86.3397 119.842C86.9611 119.767 86.8145 118.929 86.132 118.652C85.7834 118.511 85.1363 118.137 84.6939 117.821C84.2516 117.504 83.3299 116.871 82.6457 116.413C80.5695 115.023 78.3104 111.866 78.9684 111.274C79.1423 111.117 78.9377 110.778 78.4038 110.337C77.9432 109.957 77.6089 109.56 77.6609 109.455C77.7128 109.35 77.6148 109.206 77.4428 109.135C77.271 109.064 76.8805 108.458 76.5754 107.788C76.2194 107.007 75.9136 106.636 75.722 106.754C75.3891 106.958 74.3867 106.337 74.5424 106.023C74.5969 105.913 74.4724 105.754 74.2654 105.671C74.0585 105.587 73.9398 105.416 74.0017 105.291C74.0635 105.166 73.9448 104.996 73.7379 104.912C73.5309 104.828 73.4122 104.657 73.4741 104.533C73.5359 104.408 73.4172 104.237 73.2103 104.153C73.0033 104.069 72.8752 103.918 72.9254 103.816C72.9758 103.715 72.6914 103.331 72.2935 102.965C71.8955 102.598 71.6111 102.214 71.6615 102.113C71.7117 102.011 71.5836 101.86 71.3767 101.776C71.1697 101.692 71.0474 101.528 71.1049 101.413C71.1622 101.297 71.1304 101.008 71.034 100.771C70.4734 99.3923 70.5078 98.4273 71.1085 98.6708C71.3154 98.7547 71.5353 98.7213 71.5971 98.5965C71.659 98.4718 71.4715 98.2732 71.1806 98.1553C70.8896 98.0373 70.5091 97.6426 70.3352 97.2782C69.2918 95.0937 69.1173 94.6539 68.9782 93.8578C68.5893 91.6302 68.4099 87.8891 68.6377 86.754C68.709 86.3975 68.6708 85.6104 68.5526 85.0049C68.4342 84.3996 68.3844 83.8099 68.4416 83.6944C68.4987 83.5792 68.5132 82.988 68.4732 82.3807C68.4335 81.7735 68.6196 80.5274 68.8865 79.6117C69.371 77.9488 69.2995 77.0503 68.6876 77.124C68.5096 77.1453 68.3094 77.4397 68.2432 77.7782C68.1766 78.1167 68.0344 78.3579 67.9268 78.3143C67.6123 78.1868 67.1743 77.1362 67.3162 76.85C67.3878 76.7055 67.43 76.0735 67.4101 75.4452C67.3641 73.9933 67.9663 72.705 68.6589 72.7741C69.1893 72.827 70.9213 71.0278 72.599 68.6817C73.0821 68.0061 73.7233 67.3688 74.0238 67.2651C74.3246 67.1615 74.6557 66.9048 74.7599 66.6948C75.1337 65.9407 76.4138 66.2536 81.7448 68.4028C84.5755 69.5437 87.3924 70.5605 88.0048 70.6619C88.6172 70.7633 89.6554 71.0613 90.3122 71.324C91.0337 71.6124 91.5569 71.6994 91.6342 71.5434C91.7254 71.3595 91.2515 71.1355 89.9869 70.765C85.7457 69.5226 83.9217 68.8726 84.0369 68.645C84.2007 68.3213 85.6477 68.3372 86.4731 68.6718C86.8514 68.8251 87.2678 68.8849 87.3989 68.8046C87.5296 68.7244 88.0317 68.7531 88.5147 68.8682C88.9974 68.9833 89.9586 69.1662 90.6505 69.2744C92.5254 69.5681 94.8759 70.169 97.2671 70.9658C99.5831 71.7377 100.383 71.5863 98.3475 70.7612C97.6578 70.4816 97.144 70.1508 97.2059 70.0261C97.2677 69.9013 97.6343 69.9273 98.0206 70.0839C98.4068 70.2405 98.8741 70.3236 99.0587 70.2683C99.5533 70.1207 101.178 70.5195 101.059 70.7595C101.003 70.8726 101.176 71.1397 101.443 71.3532C101.947 71.7565 102.127 72.2264 101.933 72.6347C101.87 72.7657 101.075 72.8021 100.165 72.7155C99.2552 72.6289 98.3623 72.5987 98.1802 72.6483C97.6436 72.7944 98.7215 73.1197 100.1 73.2275C101.24 73.3167 101.396 73.3802 101.623 73.849C101.763 74.1359 102.005 74.4227 102.161 74.4861C103.041 74.8426 101.776 77.4898 100.05 78.9034C97.1168 81.307 95.8085 82.2617 95.5768 82.1678C95.2048 82.017 91.3588 82.1661 91.1524 82.3393C91.0577 82.4186 90.7641 82.396 90.4997 82.2888C90.2353 82.1817 89.9683 82.196 89.9065 82.3208C89.8446 82.4455 89.6119 82.4738 89.3892 82.3835C89.1667 82.2933 88.4769 82.249 87.8565 82.2852C86.4411 82.3679 84.9503 82.2185 84.2144 81.9202C83.772 81.7409 83.6279 81.8012 83.5546 82.1975C83.4789 82.6067 83.3376 82.6543 82.8201 82.4446C82.4559 82.2969 81.6735 82.3369 81.0074 82.537L79.8353 82.8889L80.9951 82.9798C83.1099 83.1457 87.1291 84.6186 87.6891 85.4328C87.9528 85.8165 88.3962 86.3549 88.6743 86.6294C89.1551 87.1044 89.4596 87.3937 90.7822 88.6341C91.0983 88.9309 91.5777 89.263 91.8471 89.3722C92.1164 89.4814 92.2863 89.6728 92.2245 89.7976C92.1627 89.9223 92.331 90.1132 92.5989 90.2217C92.8668 90.3303 93.1049 90.5494 93.1283 90.7087C93.1518 90.868 93.3808 91.0835 93.6374 91.1875C94.1696 91.4032 95.2947 92.7091 95.1701 92.9664C95.1245 93.0604 95.2155 93.1891 95.372 93.2525C95.5288 93.316 95.7887 93.6971 95.9497 94.0995C96.1108 94.502 96.6152 95.6356 97.0702 96.6184C97.5251 97.6014 97.8602 98.4811 97.8144 98.5734C97.7688 98.6655 97.8976 99.4314 98.1005 100.275C98.3037 101.119 98.5267 102.104 98.5962 102.465C98.6659 102.826 98.8037 103.326 98.9026 103.576C99.1303 104.152 98.9436 106.625 98.6234 107.271C98.3741 107.775 98.6786 108.212 99.5143 108.551C99.8133 108.672 99.9447 108.979 99.8668 109.375C99.7988 109.722 99.8438 110.046 99.9667 110.096C100.372 110.26 100.535 109.516 100.35 108.345C100.131 106.951 100.241 106.666 100.9 106.933C101.176 107.045 101.452 107.035 101.514 106.91C101.576 106.785 101.537 106.647 101.427 106.602C101.318 106.558 101.296 105.875 101.378 105.084C101.46 104.294 101.451 103.616 101.357 103.578C101.025 103.443 101.186 102.233 101.609 101.686C102.076 101.083 104.937 101.904 105.291 102.743C105.398 102.998 105.625 103.076 106.094 103.017C106.87 102.92 107.38 103.583 107.047 104.254C106.856 104.639 107.159 105.117 107.892 105.589C108.08 105.71 108.853 106.201 109.61 106.68C110.366 107.16 111.008 107.694 111.036 107.867C111.132 108.454 120.186 111.824 120.593 111.425C120.735 111.285 120.648 111.024 120.4 110.843C119.8 110.407 119.868 109.775 120.541 109.544C120.9 109.42 121.326 108.883 121.796 107.962C122.705 106.177 124.36 104.117 124.848 104.162C125.152 104.189 124.998 104.57 124.077 106.079C123.363 107.248 123.018 108 123.168 108.06C123.304 108.116 124.226 106.687 125.292 104.767C127.62 100.575 128.327 99.529 128.727 99.6907C128.956 99.7837 128.786 100.246 128.073 101.469C127.405 102.614 127.196 103.156 127.392 103.236C127.556 103.302 127.866 102.967 128.126 102.444C128.373 101.945 128.678 101.578 128.803 101.629C128.929 101.679 129.383 101.159 129.814 100.472C134.721 92.6458 137.358 87.6575 137.952 85.0807C138.161 84.1754 138.407 83.6012 138.598 83.572C138.875 83.5301 139.496 82.6762 142.676 77.9705C143.153 77.2649 144.551 75.564 145.783 74.1906C147.492 72.2843 148.283 71.1872 149.126 69.5535C149.734 68.3766 150.777 66.7771 151.445 65.9991C152.113 65.2213 152.973 64.2217 153.356 63.7777C153.74 63.3338 154.4 62.4982 154.823 61.9208C156.474 59.6704 157.072 59.1502 158.924 58.3486C160.15 57.8182 160.754 58.0523 162.447 59.7141ZM132.155 78.7238C137.373 81.0939 137.585 81.2729 136.558 82.4418C136.221 82.8264 135.267 84.3374 134.44 85.8C132.901 88.5215 130.461 91.9856 129.703 92.5241C129.47 92.6897 129.067 93.2534 128.808 93.7762C128.549 94.2992 128.075 94.9976 127.755 95.328C127.435 95.6583 126.215 97.5627 125.044 99.5599C123.873 101.557 122.51 103.64 122.016 104.189C121.522 104.738 120.655 105.919 120.09 106.813C118.556 109.242 118.367 109.22 111.642 105.802C108.045 103.975 108.205 104.486 109.911 100.26C110.612 98.5243 111.264 96.658 111.36 96.1131C111.526 95.1747 113.696 90.7383 114.358 89.9848C114.824 89.4543 115.111 89.7162 115.076 90.6378C115.049 91.33 115.404 90.7077 117.27 86.7869C119.084 82.9767 119.695 81.8954 120.567 80.9516C121.156 80.3146 121.85 79.5159 122.11 79.1766C122.889 78.1593 125.054 78.0204 124.305 79.036C123.924 79.553 124.937 79.9286 125.333 79.4173C125.683 78.9662 125.393 78.4654 124.589 78.1335C124.116 77.9382 124.087 77.7778 124.41 77.1261C125.247 75.4382 124.652 75.3153 132.155 78.7238ZM120.713 76.4374C120.731 77.1861 120.616 77.5061 120.223 77.8048C119.636 78.2497 119.096 78.895 117.808 80.6922C115.15 84.3972 114.273 85.4607 113.823 85.5243C113.401 85.5839 108.927 94.8445 108.981 95.5446C109.007 95.8782 108.581 96.5152 107.649 97.5382C106.896 98.3651 106.249 99.2836 106.211 99.5792C106.146 100.095 106.078 100.085 104.484 99.3048C101.167 97.682 99.8225 96.3454 100.378 95.2243C100.739 94.4969 99.0402 91.7432 97.9614 91.3059C97.3665 91.0647 97.3468 90.244 97.9041 88.9197C98.2089 88.1962 98.3816 87.5013 98.2882 87.3757C97.7719 86.6824 99.0999 85.2302 99.9389 85.5702C100.133 85.649 100.433 85.5867 100.605 85.4317C100.777 85.2768 101.132 85.2367 101.393 85.3425C101.654 85.4484 101.889 85.4924 101.915 85.4402C101.941 85.388 102.132 85.1897 102.34 84.9997C102.672 84.6963 102.648 84.6711 102.145 84.7928C101.245 85.0107 100.891 84.4676 101.341 83.5594C101.767 82.7005 102.779 82.7475 103.053 83.6394C103.288 84.4024 104.434 84.7536 104.522 84.0895C104.564 83.7704 104.543 83.4258 104.476 83.3237C104.409 83.2215 104.485 82.7017 104.645 82.1684C104.804 81.635 104.837 81.1171 104.717 81.0174C104.092 80.498 108.27 73.5865 109.554 73.0163C109.781 72.9157 109.927 72.7395 109.879 72.6252C109.771 72.3702 111.317 71.954 111.756 72.1196C111.931 72.1854 112.015 72.3567 111.944 72.5002C111.85 72.6887 112.497 72.9904 114.267 73.5856C115.796 74.0993 116.679 74.4929 116.611 74.6306C116.551 74.752 116.818 74.9794 117.204 75.136C118.155 75.5215 118.319 76.0455 117.811 77.0709C117.576 77.5449 117.497 77.9785 117.635 78.0344C117.773 78.0903 118.11 77.6829 118.385 77.1288C118.659 76.5747 119.034 76.1036 119.217 76.0816C119.401 76.0594 119.579 75.8182 119.613 75.5451C119.735 74.5871 120.688 75.3597 120.713 76.4374ZM110.757 73.5375C111.183 73.7706 111.861 74.0442 112.263 74.1453C112.666 74.2462 112.318 74.0553 111.489 73.7212C110.661 73.3868 110.332 73.3043 110.757 73.5375ZM126.552 79.9463C125.82 79.8136 125.773 80.2437 126.487 80.5331C126.832 80.6729 127.161 80.6913 127.22 80.5738C127.366 80.2783 127.123 80.0502 126.552 79.9463ZM95.744 72.0636C94.6988 71.8326 93.448 71.5535 92.964 71.4434C92.48 71.3333 92.0421 71.3282 91.9907 71.4319C91.8724 71.6707 94.2765 72.3954 94.7292 72.2575C94.9144 72.201 95.4678 72.3158 95.9583 72.5125C96.7922 72.8464 97.8929 72.9107 97.721 72.6152C97.6788 72.5428 96.7892 72.2945 95.744 72.0636ZM114.156 93.3173C113.33 95.3081 113.206 95.9265 113.643 95.874C114.125 95.816 115.151 93.4749 114.898 93.0095C114.774 92.78 114.725 92.3468 114.79 92.0469C114.855 91.7472 114.57 92.3187 114.156 93.3173ZM95.2557 86.3277C95.215 86.5732 95.1406 87.0333 95.0907 87.3503C95.0151 87.8309 94.904 87.8861 94.4222 87.6835C93.7431 87.3981 93.2046 86.6051 93.4093 86.1921C93.7636 85.4774 95.3775 85.5958 95.2557 86.3277ZM67.9631 90.6865C68.1336 91.8451 67.7981 92.6521 67.1595 92.6205C66.4908 92.5872 66.4387 92.1896 66.9168 90.775C67.4122 89.3088 67.7564 89.2798 67.9631 90.6865ZM72.3346 126.406L71.2748 128.564L72.2054 127.233C72.7706 126.425 73.187 125.577 73.2653 125.075C73.3668 124.424 73.1685 124.708 72.3346 126.406ZM104.745 148.093C104.248 148.092 103.457 148.08 102.987 148.065C101.553 148.021 102.205 148.432 103.7 148.515C105.344 148.607 106.586 148.458 106.02 148.238C105.815 148.159 105.241 148.093 104.745 148.093Z" fill="white"/>
<path fill-rule="evenodd" clip-rule="evenodd" d="M120.371 26.0287C120.224 26.1189 119.894 26.1077 119.638 26.0038C119.381 25.9 119.093 25.8823 118.997 25.9646C118.901 26.0469 117.696 26.0623 116.319 25.9992C113.263 25.8584 112.322 25.841 109.604 25.8738C107.65 25.8974 105.95 25.8745 103.589 25.7928C102.476 25.7542 100.999 26.5225 100.586 27.3551C100.42 27.6903 100.171 27.919 100.033 27.8631C99.8953 27.8072 99.6812 27.9655 99.5575 28.215C99.4339 28.4645 99.4889 28.732 99.6796 28.8093C100.239 29.0362 99.8835 30.1479 96.6323 38.3332C95.3156 41.6477 94.544 43.83 93.3047 47.7436C92.8634 49.1377 91.7957 51.8305 90.9321 53.7276C90.0688 55.6248 88.8939 58.7021 88.3214 60.5663C87.1646 64.3341 86.9981 64.5264 85.4448 63.8968C85.0653 63.743 84.6347 63.691 84.4876 63.7812C84.3405 63.8714 83.943 63.8328 83.6044 63.6956C83.2658 63.5583 82.7449 63.4632 82.4467 63.4843C82.1487 63.5051 81.1995 63.4415 80.3374 63.3426C79.4751 63.244 78.2996 63.1543 77.7252 63.1434C75.706 63.1053 75.4846 63.0951 74.8828 63.013C74.5284 62.9647 74.0811 63.1584 73.8068 63.4792C72.0778 65.5014 72.0577 65.5153 71.1978 65.255C70.2673 64.9737 69.8397 65.2264 70.1191 65.8926C70.3482 66.439 67.7098 69.9957 66.5983 70.6393C66.1337 70.908 65.8324 71.3288 65.6071 72.0233C65.4292 72.5719 64.8698 74.1707 64.3637 75.5762C63.6888 77.4511 63.5356 78.1686 63.7884 78.2711C63.9886 78.3522 64.0151 78.6481 63.8517 78.9777C63.6971 79.2896 63.6835 79.5905 63.8215 79.6464C63.9594 79.7023 63.9695 79.9554 63.8439 80.2087C63.7182 80.4623 63.7557 80.797 63.9271 80.9525C64.1046 81.1138 64.0987 81.5178 63.9133 81.8918C63.7344 82.2527 63.7009 82.5937 63.8388 82.6496C63.9768 82.7056 64.0383 82.8226 63.9757 82.9094C63.6538 83.3553 63.5471 83.9083 63.7884 83.8792C63.939 83.861 63.8841 84.0768 63.6662 84.3584C63.4363 84.6557 63.3875 84.9182 63.5501 84.9841C63.7043 85.0466 63.7496 85.2602 63.6512 85.4587C63.5527 85.6574 63.5692 86.171 63.688 86.5999C63.8066 87.029 63.8475 87.494 63.7786 87.633C63.7099 87.7721 63.7929 88.3097 63.963 88.8275C64.1878 89.5122 64.1523 89.9393 63.832 90.394C63.5898 90.7379 63.4371 91.1669 63.4926 91.3473C64.0465 93.143 64.1525 93.561 64.0877 93.6925C64.0144 93.8409 65.0439 96.4849 65.1996 96.5481C65.2428 96.5656 65.6581 97.4693 66.1225 98.5565C66.587 99.6436 67.0389 100.562 67.1269 100.598C67.2149 100.634 67.436 100.999 67.6181 101.41C68.0811 102.454 68.602 103.375 68.7683 103.442C68.8455 103.474 68.9887 103.685 69.0867 103.912C69.1847 104.139 69.5127 104.731 69.8156 105.229C70.1185 105.726 70.4464 106.319 70.5445 106.546C70.6425 106.773 70.7857 106.984 70.863 107.015C71.0032 107.072 71.5047 107.923 71.8647 108.715C71.9692 108.945 72.1636 109.177 72.2968 109.231C72.4299 109.285 72.7497 109.782 73.0071 110.336C73.2646 110.89 73.6839 111.427 73.9387 111.531C75.5154 112.17 75.2032 113.996 73.0458 116.752C72.2104 117.82 69.4054 121.571 67.3413 124.382C66.4512 125.594 64.6067 128.646 63.2425 131.165C60.8083 135.658 59.3404 138.04 57.3346 140.755C56.7809 141.504 55.9438 142.636 55.474 143.269C53.7256 145.628 53.0259 146.828 53.2353 147.107C53.3475 147.257 53.3414 147.578 53.2213 147.82C52.9095 148.449 53.5094 148.59 54.7712 148.185C56.4429 147.648 57.4798 147.562 57.9275 147.923C58.2732 148.202 59.6477 148.108 60.4863 147.748C60.8369 147.597 62.8851 147.635 63.292 147.8C63.5127 147.89 63.7436 147.861 63.8055 147.736C63.8673 147.611 64.2565 147.646 64.6703 147.814C65.172 148.017 65.3666 148.233 65.2542 148.459C65.1614 148.646 64.9679 148.752 64.8242 148.694C64.6804 148.635 64.2193 148.694 63.7997 148.823C63.1749 149.016 63.1106 149.089 63.4449 149.224C63.6699 149.315 63.9741 149.316 64.1212 149.226C64.2683 149.136 64.6076 149.151 64.8754 149.259C65.1433 149.368 65.4129 149.354 65.4747 149.23C65.5366 149.105 65.8129 149.094 66.0888 149.206C66.3647 149.318 66.641 149.307 66.7029 149.183C66.7647 149.058 66.9846 149.025 67.1915 149.108C67.3984 149.192 67.6183 149.159 67.6802 149.034C67.742 148.909 67.9248 148.861 68.0863 148.926C68.2478 148.992 68.6715 148.96 69.0273 148.855C69.7853 148.633 70.7695 148.519 71.9265 148.519C72.3817 148.52 72.7862 148.456 72.8251 148.378C72.864 148.299 73.4386 148.234 74.1019 148.232C74.7653 148.231 75.3509 148.143 75.4034 148.038C75.4558 147.932 75.6728 147.916 75.8855 148.002C76.0982 148.088 76.5952 148.059 76.9901 147.937C77.4499 147.796 78.2307 147.882 79.162 148.179C79.9968 148.445 80.8023 148.551 81.0539 148.427C81.2948 148.309 81.6862 148.338 81.9239 148.493C82.2378 148.697 82.3625 148.661 82.3809 148.361C82.3982 148.076 82.4992 148.034 82.7086 148.224C83.0574 148.541 85.0843 148.56 85.2391 148.248C85.296 148.133 85.4821 148.166 85.6526 148.321C85.8291 148.481 86.1056 148.473 86.2957 148.302C86.4792 148.137 86.6999 148.096 86.7863 148.211C86.8728 148.327 87.8952 148.373 89.0583 148.314C90.221 148.255 91.3536 148.28 91.5746 148.369C91.7956 148.459 92.0578 148.458 92.158 148.368C92.351 148.194 95.6674 148.121 96.0654 148.283C96.1951 148.335 96.8045 148.337 97.4192 148.287C98.034 148.236 98.7031 148.262 98.9057 148.345C99.1086 148.427 99.325 148.392 99.3869 148.267C99.4487 148.142 99.7183 148.129 99.9861 148.238C100.254 148.346 100.593 148.361 100.74 148.271C101.062 148.074 99.9671 147.588 99.4933 147.718C99.3111 147.768 98.5866 147.74 97.8831 147.655C96.7316 147.516 94.6719 147.386 93.0638 147.351C92.7361 147.343 92.069 147.254 91.581 147.152C90.3413 146.892 90.6806 146.32 92.0396 146.379C92.6073 146.403 93.1383 146.289 93.2196 146.125C93.3008 145.961 93.5365 145.896 93.7434 145.98C93.9504 146.063 94.1703 146.03 94.2321 145.905C94.2939 145.781 94.5423 145.758 94.7836 145.856C95.025 145.954 95.6769 145.912 96.2325 145.763C96.7879 145.613 97.3938 145.553 97.5794 145.628C97.7648 145.703 97.9616 145.674 98.0168 145.562C98.0719 145.451 98.4067 145.406 98.7607 145.463C99.1227 145.521 99.7192 145.316 100.123 144.993C100.617 144.6 101.211 144.438 102.019 144.477C102.666 144.509 103.274 144.467 103.37 144.384C103.467 144.301 103.762 144.32 104.026 144.428C104.291 144.535 104.557 144.52 104.619 144.396C104.681 144.271 104.958 144.26 105.233 144.372C105.509 144.484 105.786 144.473 105.847 144.349C105.909 144.224 106.167 144.206 106.42 144.308C106.673 144.411 106.992 144.456 107.128 144.409C107.597 144.248 109.541 144.492 110.344 144.813C110.785 144.99 111.266 145.061 111.413 144.97C111.56 144.88 112.02 144.944 112.435 145.112C113.076 145.372 113.2 145.34 113.255 144.9C113.312 144.449 113.435 144.428 114.195 144.736C114.675 144.931 115.053 145.235 115.033 145.411C115.006 145.652 115.178 145.732 115.727 145.733C116.468 145.734 119.061 141.402 118.568 140.989C118.474 140.911 118.511 140.467 118.65 140.003C118.789 139.54 118.888 138.846 118.869 138.463C118.85 138.079 118.894 137.48 118.967 137.132C119.04 136.784 118.993 135.906 118.862 135.182C118.475 133.036 118.861 132.115 120.347 131.642C123.077 130.772 125.37 130.199 125.655 130.315C125.821 130.382 126.119 130.272 126.318 130.071C126.517 129.87 126.976 129.576 127.34 129.418C129.705 128.389 129.713 128.382 132.617 124.693C134.557 122.228 135.683 120.945 137.518 119.111C137.975 118.654 138.499 117.978 138.682 117.608C138.892 117.184 139.145 116.988 139.365 117.077C140.068 117.363 141.205 115.464 142.121 112.475C142.764 110.375 149.225 97.3566 149.706 97.1909C149.906 97.1219 150.252 96.704 150.474 96.2624C151.074 95.0701 155.84 88.729 156.68 88.0053C157.228 87.5339 158.425 85.8121 159.137 84.4731C159.516 83.76 159.766 83.5087 159.94 83.6666C160.128 83.8377 160.424 83.3946 161.104 81.9247C161.639 80.7685 162.136 79.9641 162.305 79.9795C162.631 80.0095 167.186 71.2434 167.107 70.7357C167.08 70.5629 167.101 70.3162 167.154 70.1877C167.207 70.0592 167.656 68.9033 168.154 67.6193C168.972 65.5071 169.115 65.2735 169.658 65.169C170.219 65.0609 170.244 65.0154 170.046 64.4651C169.93 64.1418 169.939 63.6665 170.067 63.4089C170.335 62.869 169.972 62.4499 169.129 62.3221C168.791 62.2712 168.595 62.1256 168.667 61.9802C168.736 61.8407 168.573 61.6381 168.305 61.5295C168.038 61.421 167.799 61.2019 167.776 61.0426C167.753 60.8832 167.465 60.6439 167.136 60.5107C166.807 60.3776 166.519 60.1382 166.496 59.9789C166.472 59.8196 166.122 59.5548 165.716 59.3903C165.31 59.2258 165.029 58.9892 165.09 58.8645C165.152 58.7397 164.815 58.4803 164.34 58.2878C163.865 58.0953 163.458 57.8076 163.434 57.6483C163.411 57.489 163.01 57.2039 162.543 57.0148C162.077 56.8257 161.676 56.5407 161.653 56.3813C161.547 55.6593 159.414 55.1664 158.916 55.7488C158.654 56.0546 157.722 56.8379 156.843 57.4892C155.964 58.1406 155.13 58.9056 154.989 59.1893C154.593 59.9885 152.665 62.3404 147.822 67.9353C141.705 75.0019 141.004 75.8554 139.998 77.4651C139.261 78.6435 139.066 78.8198 138.794 78.5544C138.23 78.0059 137.645 77.683 134.275 76.0633C132.469 75.195 130.601 74.2462 130.124 73.9548C129.577 73.6205 129.214 73.5127 129.139 73.6629C129.074 73.7937 128.582 73.761 128.046 73.5901C127.329 73.3616 126.938 73.3877 126.57 73.6891C126.229 73.9683 125.854 74.0116 125.394 73.8254C124.513 73.4683 123.659 73.7802 123.248 74.6092C123.021 75.0683 122.794 75.223 122.516 75.1102C122.251 75.0029 122.226 74.8446 122.443 74.6497C122.625 74.4863 123.022 73.8506 123.326 73.2371C123.759 72.3639 123.966 72.1571 124.282 72.285C124.547 72.3923 124.694 72.3038 124.711 72.0279C124.725 71.7966 124.783 71.5137 124.84 71.3992C124.896 71.2846 124.787 71.128 124.598 71.0512C124.175 70.8798 123.451 71.7691 122.576 73.5344C121.943 74.8124 121.89 74.8563 121.274 74.6069C120.406 74.255 118.636 72.9756 118.737 72.7726C118.892 72.4603 117.795 71.5623 116.734 71.1323C116.148 70.8945 115.598 70.5354 115.514 70.334C115.357 69.9622 112.304 68.8348 110.834 68.6065C109.982 68.4741 109.93 67.7853 110.623 65.7952C110.852 65.1388 111.305 63.6676 111.63 62.526C112.475 59.5573 115.188 52.3753 115.667 51.8402C115.889 51.5916 116.25 50.725 116.468 49.9144C117.473 46.1719 117.649 45.3874 118.902 39.0526C119.251 37.2908 119.903 35.1757 120.419 34.1353C120.709 33.5501 120.833 33.0258 120.695 32.9699C120.542 32.9076 120.973 31.8013 121.806 30.1208L123.168 27.3733L122.367 27.1681C121.819 27.0282 121.612 26.8674 121.714 26.6621C121.887 26.3121 120.769 25.7848 120.371 26.0287ZM121.011 30.5102C119.424 33.7123 118.995 33.9696 119.513 31.4091C119.839 29.8003 119.917 29.6377 120.45 29.4541C121.173 29.2048 121.215 29.1189 120.961 28.4105C120.708 27.705 121.223 27.1913 121.907 27.4685C122.392 27.6651 122.349 27.8116 121.011 30.5102ZM118.89 28.7126C118.701 29.0941 118.437 29.8755 118.303 30.4495C118.169 31.0233 117.839 32.2616 117.57 33.201C117.301 34.1405 117.023 35.2537 116.953 35.6748C116.883 36.0959 116.736 36.8944 116.626 37.4492C116.245 39.3773 115.9 41.5304 115.52 44.3551C115.31 45.9177 114.883 48.0125 114.573 49.0102C114.262 50.0078 113.925 51.2196 113.824 51.703C113.723 52.1863 113.261 53.6539 112.798 54.9643C112.335 56.2748 111.758 58.002 111.517 58.8029C111.275 59.6037 110.681 61.5079 110.196 63.0343C109.711 64.5606 109.078 66.694 108.788 67.7749C108.011 70.6694 106.872 72.6734 106.743 71.3703C106.716 71.0985 106.559 70.8209 106.394 70.7534C106.228 70.686 106.057 70.1568 106.013 69.5775C105.901 68.1162 105.033 67.6052 104.497 68.686C104.104 69.4791 103.483 69.8465 102.92 69.6185C102.741 69.5458 102.717 69.2375 102.868 68.9331C103.409 67.8417 101.526 67.158 93.1674 65.4122C92.4919 65.271 91.3994 65.014 90.7398 64.8406L89.5404 64.5257L90.2834 63.027C90.8027 61.9793 91.1205 61.5667 91.3397 61.6555C91.5122 61.7257 91.5735 61.9434 91.4763 62.1396C91.3676 62.3589 91.484 62.5342 91.7782 62.594C92.4143 62.7236 93.0946 61.0679 92.9999 59.6213C92.9628 59.0538 93.1803 57.8397 93.4831 56.9233C93.7858 56.0069 94.3668 54.1665 94.774 52.8335C95.1811 51.5004 95.7752 49.8413 96.0943 49.1467C96.7474 47.724 97.7219 44.9844 98.8471 41.41C100.2 37.1099 100.416 36.3561 100.799 34.5747C101.184 32.7905 101.253 32.3903 101.617 29.8355C101.938 27.5874 102.568 27.2497 106.6 27.1652C107.244 27.1516 108.013 27.1265 108.31 27.1093C108.606 27.092 109.13 27.1925 109.475 27.3322C111.049 27.9701 117.731 28.4548 118.273 27.9702C118.806 27.4935 119.237 28.0119 118.89 28.7126ZM162.447 59.7141C162.954 60.2111 163.584 60.7054 163.849 60.8125C164.113 60.9197 164.285 61.0968 164.231 61.2059C164.177 61.315 164.839 61.6896 165.701 62.0384C168.744 63.2685 168.796 64.2282 166.022 67.9419C163.641 71.1297 161.613 74.2773 158.153 80.1585C156.291 83.3248 153.384 87.5227 151.746 89.4101C151.41 89.798 150.589 91.0588 149.923 92.2119C148.824 94.114 148.63 94.3284 147.836 94.5247L146.96 94.741L145.354 98.1492C143.038 103.061 141.2 106.478 140.849 106.52C140.677 106.541 139.661 108.321 138.509 110.618C137.018 113.592 136.237 114.912 135.59 115.547C135.104 116.025 134.148 117.291 133.464 118.362C131.173 121.95 127.363 126.921 127.011 126.779C126.833 126.706 126.349 126.89 125.937 127.187C125.412 127.564 125.067 127.639 124.787 127.436C124.48 127.212 124.221 127.321 123.661 127.906C123.262 128.325 122.834 128.626 122.711 128.576C122.587 128.526 122.314 128.661 122.103 128.875C121.891 129.089 121.609 129.22 121.476 129.166C121.343 129.111 120.751 129.239 120.161 129.45C119.571 129.66 119.03 129.808 118.959 129.779C118.887 129.75 118.391 129.853 117.856 130.008C117.321 130.162 116.26 130.467 115.498 130.686C114.736 130.905 114.022 131.047 113.911 131.002C113.8 130.957 113.608 131.124 113.484 131.374C113.208 131.932 113.672 132.143 114.928 132.029C116.092 131.924 116.57 132.755 116.265 134.357C116.167 134.869 116.067 135.709 116.042 136.224C115.845 140.221 115.334 141.384 114.007 140.847C113.53 140.653 112.863 140.513 112.524 140.534C112.024 140.566 110.887 140.274 109.033 139.637C108.937 139.604 108.642 139.642 108.377 139.722C107.443 140.004 105.786 140.074 103.136 139.945C101.901 139.884 100.991 139.874 98.9616 139.897C97.8475 139.909 96.8162 139.871 96.6695 139.811C96.5227 139.752 96.3522 139.805 96.2904 139.93C96.2286 140.055 95.959 140.068 95.6911 139.96C95.4233 139.851 95.084 139.836 94.9369 139.926C94.7897 140.016 94.4505 140.001 94.1826 139.893C93.9147 139.784 93.6452 139.798 93.5833 139.922C93.5215 140.047 93.2451 140.058 92.9692 139.946C92.6933 139.834 92.417 139.844 92.3552 139.969C92.2933 140.094 92.0449 140.116 91.8034 140.019C91.3992 139.856 89.3918 139.972 88.9354 140.184C88.8277 140.234 88.3319 140.277 87.8336 140.28C87.3353 140.282 86.574 140.314 86.1416 140.351C85.7094 140.387 84.8464 140.42 84.2235 140.423C83.6008 140.426 83.0524 140.506 83.0052 140.602C82.958 140.697 82.6936 140.683 82.4177 140.572C82.1418 140.46 81.8716 140.458 81.8172 140.568C81.7629 140.677 81.3169 140.757 80.8263 140.744C80.3356 140.731 79.8897 140.81 79.8354 140.92C79.7809 141.029 79.5672 141.05 79.3603 140.967C79.1534 140.883 78.9335 140.916 78.8716 141.041C78.8098 141.166 78.6147 141.209 78.4384 141.138C78.2618 141.066 77.8536 141.146 77.5311 141.315C77.2085 141.484 76.8003 141.563 76.6237 141.492C76.4474 141.42 76.2647 141.439 76.2179 141.533C76.1712 141.627 75.6943 141.701 75.1579 141.697C73.4587 141.683 71.1701 142.115 70.4274 142.589C70.0328 142.841 69.5958 143.001 69.4561 142.944C69.3161 142.888 68.5578 142.948 67.7709 143.078C66.9839 143.209 66.2191 143.267 66.0716 143.207C65.9239 143.147 65.7527 143.2 65.6908 143.325C65.629 143.45 65.4091 143.483 65.2022 143.399C64.9952 143.315 64.7753 143.349 64.7135 143.473C64.6517 143.598 64.4802 143.651 64.3324 143.591C64.1845 143.531 63.8518 143.55 63.5927 143.632C62.519 143.973 61.6483 144.138 61.4156 144.043C61.2791 143.988 61.1169 144.045 61.0551 144.17C60.9932 144.294 60.7834 144.332 60.5887 144.253C60.3941 144.174 59.7981 144.3 59.2642 144.533C57.1063 145.476 57.2178 145.226 60.9119 140.843C65.2132 135.739 65.2711 135.664 65.9273 134.341C66.2553 133.679 67.1867 132.312 67.9971 131.302C68.8073 130.293 69.9126 128.605 70.4528 127.55C70.9932 126.496 71.7274 125.323 72.0843 124.945C72.4414 124.566 72.8957 123.929 73.0941 123.529C73.2924 123.129 73.657 122.785 73.9042 122.765C74.2358 122.739 74.7107 122.088 75.7141 120.285C76.4624 118.941 77.3928 117.384 77.7813 116.826L78.488 115.811L80.714 116.878C81.9383 117.466 83.1796 118.146 83.4725 118.391C84.2732 119.06 85.9185 119.892 86.3397 119.842C86.9611 119.767 86.8145 118.929 86.132 118.652C85.7834 118.511 85.1363 118.137 84.6939 117.821C84.2516 117.504 83.3299 116.871 82.6457 116.413C80.5695 115.023 78.3104 111.866 78.9684 111.274C79.1423 111.117 78.9377 110.778 78.4038 110.337C77.9432 109.957 77.6089 109.56 77.6609 109.455C77.7128 109.35 77.6148 109.206 77.4428 109.135C77.271 109.064 76.8805 108.458 76.5754 107.788C76.2194 107.007 75.9136 106.636 75.722 106.754C75.3891 106.958 74.3867 106.337 74.5424 106.023C74.5969 105.913 74.4724 105.754 74.2654 105.671C74.0585 105.587 73.9398 105.416 74.0017 105.291C74.0635 105.166 73.9448 104.996 73.7379 104.912C73.5309 104.828 73.4122 104.657 73.4741 104.533C73.5359 104.408 73.4172 104.237 73.2103 104.153C73.0033 104.069 72.8752 103.918 72.9254 103.816C72.9758 103.715 72.6914 103.331 72.2935 102.965C71.8955 102.598 71.6111 102.214 71.6615 102.113C71.7117 102.011 71.5836 101.86 71.3767 101.776C71.1697 101.692 71.0474 101.528 71.1049 101.413C71.1622 101.297 71.1304 101.008 71.034 100.771C70.4734 99.3923 70.5078 98.4273 71.1085 98.6708C71.3154 98.7547 71.5353 98.7213 71.5971 98.5965C71.659 98.4718 71.4715 98.2732 71.1806 98.1553C70.8896 98.0373 70.5091 97.6426 70.3352 97.2782C69.2918 95.0937 69.1173 94.6539 68.9782 93.8578C68.5893 91.6302 68.4099 87.8891 68.6377 86.754C68.709 86.3975 68.6708 85.6104 68.5526 85.0049C68.4342 84.3996 68.3844 83.8099 68.4416 83.6944C68.4987 83.5792 68.5132 82.988 68.4732 82.3807C68.4335 81.7735 68.6196 80.5274 68.8865 79.6117C69.371 77.9488 69.2995 77.0503 68.6876 77.124C68.5096 77.1453 68.3094 77.4397 68.2432 77.7782C68.1766 78.1167 68.0344 78.3579 67.9268 78.3143C67.6123 78.1868 67.1743 77.1362 67.3162 76.85C67.3878 76.7055 67.43 76.0735 67.4101 75.4452C67.3641 73.9933 67.9663 72.705 68.6589 72.7741C69.1893 72.827 70.9213 71.0278 72.599 68.6817C73.0821 68.0061 73.7233 67.3688 74.0238 67.2651C74.3246 67.1615 74.6557 66.9048 74.7599 66.6948C75.1337 65.9407 76.4138 66.2536 81.7448 68.4028C84.5755 69.5437 87.3924 70.5605 88.0048 70.6619C88.6172 70.7633 89.6554 71.0613 90.3122 71.324C91.0337 71.6124 91.5569 71.6994 91.6342 71.5434C91.7254 71.3595 91.2515 71.1355 89.9869 70.765C85.7457 69.5226 83.9217 68.8726 84.0369 68.645C84.2007 68.3213 85.6477 68.3372 86.4731 68.6718C86.8514 68.8251 87.2678 68.8849 87.3989 68.8046C87.5296 68.7244 88.0317 68.7531 88.5147 68.8682C88.9974 68.9833 89.9586 69.1662 90.6505 69.2744C92.5254 69.5681 94.8759 70.169 97.2671 70.9658C99.5831 71.7377 100.383 71.5863 98.3475 70.7612C97.6578 70.4816 97.144 70.1508 97.2059 70.0261C97.2677 69.9013 97.6343 69.9273 98.0206 70.0839C98.4068 70.2405 98.8741 70.3236 99.0587 70.2683C99.5533 70.1207 101.178 70.5195 101.059 70.7595C101.003 70.8726 101.176 71.1397 101.443 71.3532C101.947 71.7565 102.127 72.2264 101.933 72.6347C101.87 72.7657 101.075 72.8021 100.165 72.7155C99.2552 72.6289 98.3623 72.5987 98.1802 72.6483C97.6436 72.7944 98.7215 73.1197 100.1 73.2275C101.24 73.3167 101.396 73.3802 101.623 73.849C101.763 74.1359 102.005 74.4227 102.161 74.4861C103.041 74.8426 101.776 77.4898 100.05 78.9034C97.1168 81.307 95.8085 82.2617 95.5768 82.1678C95.2048 82.017 91.3588 82.1661 91.1524 82.3393C91.0577 82.4186 90.7641 82.396 90.4997 82.2888C90.2353 82.1817 89.9683 82.196 89.9065 82.3208C89.8446 82.4455 89.6119 82.4738 89.3892 82.3835C89.1667 82.2933 88.4769 82.249 87.8565 82.2852C86.4411 82.3679 84.9503 82.2185 84.2144 81.9202C83.772 81.7409 83.6279 81.8012 83.5546 82.1975C83.4789 82.6067 83.3376 82.6543 82.8201 82.4446C82.4559 82.2969 81.6735 82.3369 81.0074 82.537L79.8353 82.8889L80.9951 82.9798C83.1099 83.1457 87.1291 84.6186 87.6891 85.4328C87.9528 85.8165 88.3962 86.3549 88.6743 86.6294C89.1551 87.1044 89.4596 87.3937 90.7822 88.6341C91.0983 88.9309 91.5777 89.263 91.8471 89.3722C92.1164 89.4814 92.2863 89.6728 92.2245 89.7976C92.1627 89.9223 92.331 90.1132 92.5989 90.2217C92.8668 90.3303 93.1049 90.5494 93.1283 90.7087C93.1518 90.868 93.3808 91.0835 93.6374 91.1875C94.1696 91.4032 95.2947 92.7091 95.1701 92.9664C95.1245 93.0604 95.2155 93.1891 95.372 93.2525C95.5288 93.316 95.7887 93.6971 95.9497 94.0995C96.1108 94.502 96.6152 95.6356 97.0702 96.6184C97.5251 97.6014 97.8602 98.4811 97.8144 98.5734C97.7688 98.6655 97.8976 99.4314 98.1005 100.275C98.3037 101.119 98.5267 102.104 98.5962 102.465C98.6659 102.826 98.8037 103.326 98.9026 103.576C99.1303 104.152 98.9436 106.625 98.6234 107.271C98.3741 107.775 98.6786 108.212 99.5143 108.551C99.8133 108.672 99.9447 108.979 99.8668 109.375C99.7988 109.722 99.8438 110.046 99.9667 110.096C100.372 110.26 100.535 109.516 100.35 108.345C100.131 106.951 100.241 106.666 100.9 106.933C101.176 107.045 101.452 107.035 101.514 106.91C101.576 106.785 101.537 106.647 101.427 106.602C101.318 106.558 101.296 105.875 101.378 105.084C101.46 104.294 101.451 103.616 101.357 103.578C101.025 103.443 101.186 102.233 101.609 101.686C102.076 101.083 104.937 101.904 105.291 102.743C105.398 102.998 105.625 103.076 106.094 103.017C106.87 102.92 107.38 103.583 107.047 104.254C106.856 104.639 107.159 105.117 107.892 105.589C108.08 105.71 108.853 106.201 109.61 106.68C110.366 107.16 111.008 107.694 111.036 107.867C111.132 108.454 120.186 111.824 120.593 111.425C120.735 111.285 120.648 111.024 120.4 110.843C119.8 110.407 119.868 109.775 120.541 109.544C120.9 109.42 121.326 108.883 121.796 107.962C122.705 106.177 124.36 104.117 124.848 104.162C125.152 104.189 124.998 104.57 124.077 106.079C123.363 107.248 123.018 108 123.168 108.06C123.304 108.116 124.226 106.687 125.292 104.767C127.62 100.575 128.327 99.529 128.727 99.6907C128.956 99.7837 128.786 100.246 128.073 101.469C127.405 102.614 127.196 103.156 127.392 103.236C127.556 103.302 127.866 102.967 128.126 102.444C128.373 101.945 128.678 101.578 128.803 101.629C128.929 101.679 129.383 101.159 129.814 100.472C134.721 92.6458 137.358 87.6575 137.952 85.0807C138.161 84.1754 138.407 83.6012 138.598 83.572C138.875 83.5301 139.496 82.6762 142.676 77.9705C143.153 77.2649 144.551 75.564 145.783 74.1906C147.492 72.2843 148.283 71.1872 149.126 69.5535C149.734 68.3766 150.777 66.7771 151.445 65.9991C152.113 65.2213 152.973 64.2217 153.356 63.7777C153.74 63.3338 154.4 62.4982 154.823 61.9208C156.474 59.6704 157.072 59.1502 158.924 58.3486C160.15 57.8182 160.754 58.0523 162.447 59.7141ZM132.155 78.7238C137.373 81.0939 137.585 81.2729 136.558 82.4418C136.221 82.8264 135.267 84.3374 134.44 85.8C132.901 88.5215 130.461 91.9856 129.703 92.5241C129.47 92.6897 129.067 93.2534 128.808 93.7762C128.549 94.2992 128.075 94.9976 127.755 95.328C127.435 95.6583 126.215 97.5627 125.044 99.5599C123.873 101.557 122.51 103.64 122.016 104.189C121.522 104.738 120.655 105.919 120.09 106.813C118.556 109.242 118.367 109.22 111.642 105.802C108.045 103.975 108.205 104.486 109.911 100.26C110.612 98.5243 111.264 96.658 111.36 96.1131C111.526 95.1747 113.696 90.7383 114.358 89.9848C114.824 89.4543 115.111 89.7162 115.076 90.6378C115.049 91.33 115.404 90.7077 117.27 86.7869C119.084 82.9767 119.695 81.8954 120.567 80.9516C121.156 80.3146 121.85 79.5159 122.11 79.1766C122.889 78.1593 125.054 78.0204 124.305 79.036C123.924 79.553 124.937 79.9286 125.333 79.4173C125.683 78.9662 125.393 78.4654 124.589 78.1335C124.116 77.9382 124.087 77.7778 124.41 77.1261C125.247 75.4382 124.652 75.3153 132.155 78.7238ZM120.713 76.4374C120.731 77.1861 120.616 77.5061 120.223 77.8048C119.636 78.2497 119.096 78.895 117.808 80.6922C115.15 84.3972 114.273 85.4607 113.823 85.5243C113.401 85.5839 108.927 94.8445 108.981 95.5446C109.007 95.8782 108.581 96.5152 107.649 97.5382C106.896 98.3651 106.249 99.2836 106.211 99.5792C106.146 100.095 106.078 100.085 104.484 99.3048C101.167 97.682 99.8225 96.3454 100.378 95.2243C100.739 94.4969 99.0402 91.7432 97.9614 91.3059C97.3665 91.0647 97.3468 90.244 97.9041 88.9197C98.2089 88.1962 98.3816 87.5013 98.2882 87.3757C97.7719 86.6824 99.0999 85.2302 99.9389 85.5702C100.133 85.649 100.433 85.5867 100.605 85.4317C100.777 85.2768 101.132 85.2367 101.393 85.3425C101.654 85.4484 101.889 85.4924 101.915 85.4402C101.941 85.388 102.132 85.1897 102.34 84.9997C102.672 84.6963 102.648 84.6711 102.145 84.7928C101.245 85.0107 100.891 84.4676 101.341 83.5594C101.767 82.7005 102.779 82.7475 103.053 83.6394C103.288 84.4024 104.434 84.7536 104.522 84.0895C104.564 83.7704 104.543 83.4258 104.476 83.3237C104.409 83.2215 104.485 82.7017 104.645 82.1684C104.804 81.635 104.837 81.1171 104.717 81.0174C104.092 80.498 108.27 73.5865 109.554 73.0163C109.781 72.9157 109.927 72.7395 109.879 72.6252C109.771 72.3702 111.317 71.954 111.756 72.1196C111.931 72.1854 112.015 72.3567 111.944 72.5002C111.85 72.6887 112.497 72.9904 114.267 73.5856C115.796 74.0993 116.679 74.4929 116.611 74.6306C116.551 74.752 116.818 74.9794 117.204 75.136C118.155 75.5215 118.319 76.0455 117.811 77.0709C117.576 77.5449 117.497 77.9785 117.635 78.0344C117.773 78.0903 118.11 77.6829 118.385 77.1288C118.659 76.5747 119.034 76.1036 119.217 76.0816C119.401 76.0594 119.579 75.8182 119.613 75.5451C119.735 74.5871 120.688 75.3597 120.713 76.4374ZM110.757 73.5375C111.183 73.7706 111.861 74.0442 112.263 74.1453C112.666 74.2462 112.318 74.0553 111.489 73.7212C110.661 73.3868 110.332 73.3043 110.757 73.5375ZM126.552 79.9463C125.82 79.8136 125.773 80.2437 126.487 80.5331C126.832 80.6729 127.161 80.6913 127.22 80.5738C127.366 80.2783 127.123 80.0502 126.552 79.9463ZM95.744 72.0636C94.6988 71.8326 93.448 71.5535 92.964 71.4434C92.48 71.3333 92.0421 71.3282 91.9907 71.4319C91.8724 71.6707 94.2765 72.3954 94.7292 72.2575C94.9144 72.201 95.4678 72.3158 95.9583 72.5125C96.7922 72.8464 97.8929 72.9107 97.721 72.6152C97.6788 72.5428 96.7892 72.2945 95.744 72.0636ZM114.156 93.3173C113.33 95.3081 113.206 95.9265 113.643 95.874C114.125 95.816 115.151 93.4749 114.898 93.0095C114.774 92.78 114.725 92.3468 114.79 92.0469C114.855 91.7472 114.57 92.3187 114.156 93.3173ZM95.2557 86.3277C95.215 86.5732 95.1406 87.0333 95.0907 87.3503C95.0151 87.8309 94.904 87.8861 94.4222 87.6835C93.7431 87.3981 93.2046 86.6051 93.4093 86.1921C93.7636 85.4774 95.3775 85.5958 95.2557 86.3277ZM67.9631 90.6865C68.1336 91.8451 67.7981 92.6521 67.1595 92.6205C66.4908 92.5872 66.4387 92.1896 66.9168 90.775C67.4122 89.3088 67.7564 89.2798 67.9631 90.6865ZM72.3346 126.406L71.2748 128.564L72.2054 127.233C72.7706 126.425 73.187 125.577 73.2653 125.075C73.3668 124.424 73.1685 124.708 72.3346 126.406ZM104.745 148.093C104.248 148.092 103.457 148.08 102.987 148.065C101.553 148.021 102.205 148.432 103.7 148.515C105.344 148.607 106.586 148.458 106.02 148.238C105.815 148.159 105.241 148.093 104.745 148.093Z" stroke="black" stroke-width="2" mask="url(#path-2-outside-1_403_7)"/>
</g>
<defs>
<filter id="filter0_d_403_7" x="48.1123" y="24.8198" width="127.074" height="133.484" filterUnits="userSpaceOnUse" color-interpolation-filters="sRGB">
<feFlood flood-opacity="0" result="BackgroundImageFix"/>
<feColorMatrix in="SourceAlpha" type="matrix" values="0 0 0 0 0 0 0 0 0 0 0 0 0 0 0 0 0 0 127 0" result="hardAlpha"/>
<feOffset dy="4"/>
<feGaussianBlur stdDeviation="2"/>
<feComposite in2="hardAlpha" operator="out"/>
<feColorMatrix type="matrix" values="0 0 0 0 0 0 0 0 0 0 0 0 0 0 0 0 0 0 0.25 0"/>
<feBlend mode="normal" in2="BackgroundImageFix" result="effect1_dropShadow_403_7"/>
<feBlend mode="normal" in="SourceGraphic" in2="effect1_dropShadow_403_7" result="shape"/>
</filter>
</defs>
</svg>
