<svg width="219" height="223" viewBox="0 0 219 223" fill="none" xmlns="http://www.w3.org/2000/svg">
<path d="M43.6071 173.995H49.1907C59.9325 173.995 65.3034 174.538 65.3034 175.623C68.0686 177.128 69.4512 179.94 69.4512 184.06V186.132C69.4512 189.611 68.6535 191.782 67.0582 192.645C65.8883 193.237 64.7184 193.533 63.5485 193.533C63.5485 193.656 64.4525 194.002 66.2606 194.569C68.3876 195.729 69.4512 197.752 69.4512 200.638V214.699C69.4512 214.897 69.3448 214.995 69.1321 214.995H58.9221C58.7094 214.995 58.6031 214.897 58.6031 214.699V200.342H55.0934V214.699C55.0934 214.897 52.3037 214.699 52.091 214.699C49.1907 213.669 46.7818 214.699 43.2881 213.101L43.2881 208.631L43.2881 203.249C43.3146 203.051 43.1019 199.01 43.2881 199.01C43.2881 199.084 43.2881 197.382 43.2881 197.382V174.291C43.3146 174.094 43.421 173.995 43.6071 173.995ZM54.7743 182.58V192.053H58.284V182.58H54.7743Z" fill="#60F71E"/>
<path d="M71.6846 174.143H81.7351C82.1605 174.143 82.7986 176.61 83.6495 181.544C83.9685 182.457 84.5003 185.121 85.2448 189.537H85.4043C86.8667 179.274 87.877 174.143 88.4354 174.143H98.4859C98.6986 174.168 98.8049 174.267 98.8049 174.439C93.3809 191.56 90.6688 200.44 90.6688 201.082V214.995H90.3498C83.9951 211.27 80.4854 209.149 79.8207 208.631V200.786C79.8207 200.564 77.0023 191.732 71.3656 174.291L71.6846 174.143Z" fill="#60F71E"/>
<path d="M99.0442 173.995H108.457C116.22 173.995 120.794 175.031 122.176 177.104C123.346 178.485 123.931 180.952 123.931 184.504V189.685C123.931 193.706 122.761 196.271 120.421 197.382C118.507 198.171 115.955 198.566 112.764 198.566H110.53V214.699C110.53 214.897 110.424 214.995 110.211 214.995H99.0442C98.8315 214.995 98.7252 214.897 98.7252 214.699V174.291C98.7517 174.094 98.8581 173.995 99.0442 173.995ZM110.53 182.284V190.425H113.721V182.284H110.53Z" fill="#60F71E"/>
<path d="M126.165 173.995H151.211V174.143C148.339 175.919 146.904 178.584 146.904 182.136L146.585 182.284H137.651V189.981H146.585C146.797 190.005 146.904 190.104 146.904 190.277V197.53C146.904 197.727 146.797 197.826 146.585 197.826H137.651V206.706H145.787C146.638 206.706 147.063 207.002 147.063 207.595C147.515 210.308 148.206 212.134 149.137 213.071L151.211 214.847V214.995H126.165C125.952 214.995 125.845 214.897 125.845 214.699V174.291C125.872 174.094 125.978 173.995 126.165 173.995Z" fill="#60F71E"/>
<path d="M105.29 20.9952H123.685L119.44 43.0659L112.365 69.3589L125.706 76.4599L129.952 74.7326L142.08 80.2983L163.508 54.3892L173.211 62.4498L144.708 112.925L132.579 132.5L121.259 137.874L119.44 150.925L60.2109 153.995L80.4256 120.217L69.5097 95.6518V76.4599L75.9784 64.1771H91.3415L105.29 20.9952Z" fill="#2E2E31"/>
<path fill-rule="evenodd" clip-rule="evenodd" d="M124.104 20.2687C123.955 20.3691 123.623 20.3566 123.364 20.241C123.106 20.1255 122.815 20.1059 122.718 20.1973C122.622 20.2889 121.407 20.3061 120.018 20.2358C116.936 20.0793 115.989 20.0598 113.248 20.0964C111.278 20.1226 109.563 20.0972 107.182 20.0062C106.06 19.9633 104.571 20.818 104.155 21.7442C103.987 22.1171 103.736 22.3715 103.597 22.3093C103.458 22.2471 103.242 22.4233 103.118 22.7008C102.993 22.9784 103.049 23.2759 103.241 23.3619C103.805 23.6143 103.446 24.851 100.168 33.9567C98.8406 37.6438 98.0627 40.0715 96.8131 44.425C96.3681 45.9758 95.2916 48.9714 94.4208 51.0818C93.5503 53.1924 92.3658 56.6157 91.7885 58.6894C90.622 62.8808 90.4542 63.0948 88.888 62.3944C88.5054 62.2233 88.0712 62.1655 87.9229 62.2658C87.7746 62.3661 87.3738 62.3232 87.0324 62.1705C86.691 62.0179 86.1657 61.912 85.8651 61.9355C85.5647 61.9587 84.6076 61.8879 83.7383 61.7779C82.8688 61.6681 81.6836 61.5684 81.1044 61.5563C79.0685 61.5139 78.8452 61.5025 78.2385 61.4112C77.8811 61.3574 77.4302 61.573 77.1535 61.9298C75.4102 64.1794 75.3899 64.1949 74.5229 63.9053C73.5847 63.5924 73.1535 63.8734 73.4353 64.6146C73.6663 65.2224 71.006 69.179 69.8853 69.8949C69.4169 70.1939 69.1131 70.6619 68.8859 71.4345C68.7064 72.0448 68.1424 73.8234 67.6322 75.3869C66.9517 77.4727 66.7972 78.2708 67.0521 78.3848C67.2539 78.475 67.2807 78.8042 67.1159 79.1709C66.9601 79.5178 66.9463 79.8525 67.0854 79.9147C67.2245 79.9769 67.2347 80.2584 67.1081 80.5403C66.9813 80.8224 67.0191 81.1947 67.1919 81.3677C67.3709 81.5472 67.3649 81.9966 67.178 82.4126C66.9976 82.814 66.9638 83.1934 67.1029 83.2557C67.242 83.3179 67.3041 83.448 67.241 83.5446C66.9164 84.0406 66.8088 84.6558 67.0521 84.6234C67.2039 84.6031 67.1486 84.8432 66.9289 85.1565C66.6971 85.4873 66.6479 85.7792 66.8118 85.8525C66.9673 85.9221 67.013 86.1598 66.9138 86.3805C66.8145 86.6016 66.8311 87.1729 66.9508 87.65C67.0704 88.1274 67.1117 88.6446 67.0422 88.7993C66.973 88.9541 67.0566 89.5521 67.2281 90.1281C67.4548 90.8897 67.419 91.3649 67.096 91.8707C66.8519 92.2533 66.6979 92.7305 66.7538 92.9312C67.3123 94.9288 67.4192 95.3938 67.3538 95.54C67.28 95.7051 68.318 98.6465 68.475 98.7167C68.5185 98.7362 68.9373 99.7415 69.4056 100.951C69.8739 102.16 70.3295 103.182 70.4183 103.222C70.5071 103.262 70.73 103.668 70.9136 104.125C71.3804 105.287 71.9056 106.311 72.0732 106.386C72.1511 106.421 72.2956 106.656 72.3943 106.908C72.4931 107.161 72.8239 107.82 73.1293 108.373C73.4347 108.927 73.7653 109.586 73.8642 109.838C73.963 110.091 74.1074 110.326 74.1853 110.361C74.3267 110.424 74.8324 111.371 75.1953 112.252C75.3007 112.507 75.4967 112.765 75.631 112.825C75.7653 112.885 76.0877 113.439 76.3473 114.055C76.6068 114.671 77.0296 115.269 77.2866 115.384C78.8763 116.095 78.5616 118.127 76.3862 121.193C75.5439 122.38 72.7157 126.553 70.6345 129.68C69.737 131.029 67.8772 134.424 66.5016 137.225C64.0473 142.224 62.5672 144.874 60.5448 147.894C59.9865 148.727 59.1425 149.986 58.6688 150.691C56.9059 153.315 56.2004 154.65 56.4116 154.96C56.5247 155.127 56.5185 155.484 56.3974 155.753C56.083 156.453 56.6879 156.61 57.9602 156.159C59.6457 155.562 60.6912 155.466 61.1426 155.868C61.4912 156.178 62.8771 156.073 63.7227 155.673C64.0762 155.505 66.1414 155.548 66.5516 155.731C66.7741 155.831 67.007 155.798 67.0693 155.66C67.1317 155.521 67.5241 155.56 67.9414 155.747C68.4472 155.973 68.6434 156.212 68.53 156.464C68.4365 156.673 68.2414 156.79 68.0965 156.725C67.9515 156.66 67.4866 156.725 67.0635 156.869C66.4336 157.083 66.3687 157.164 66.7058 157.315C66.9326 157.417 67.2393 157.417 67.3876 157.317C67.536 157.217 67.8781 157.233 68.1482 157.354C68.4183 157.475 68.6901 157.46 68.7524 157.321C68.8148 157.183 69.0934 157.171 69.3716 157.295C69.6498 157.42 69.9284 157.408 69.9907 157.269C70.0531 157.13 70.2748 157.093 70.4834 157.187C70.6921 157.28 70.9138 157.243 70.9761 157.104C71.0385 156.965 71.2228 156.911 71.3856 156.984C71.5485 157.057 71.9757 157.021 72.3344 156.905C73.0987 156.657 74.0911 156.53 75.2576 156.531C75.7167 156.532 76.1245 156.461 76.1637 156.373C76.203 156.286 76.7823 156.213 77.4511 156.212C78.12 156.211 78.7104 156.113 78.7634 155.995C78.8162 155.878 79.035 155.86 79.2495 155.956C79.4639 156.052 79.9651 156.019 80.3633 155.884C80.8269 155.726 81.6141 155.823 82.5532 156.153C83.3949 156.448 84.2071 156.566 84.4608 156.429C84.7037 156.297 85.0983 156.33 85.3379 156.501C85.6544 156.728 85.7802 156.689 85.7988 156.355C85.8162 156.038 85.9181 155.991 86.1291 156.203C86.4809 156.555 88.5246 156.577 88.6807 156.229C88.738 156.102 88.9256 156.138 89.0976 156.31C89.2756 156.489 89.5543 156.48 89.746 156.289C89.931 156.106 90.1536 156.061 90.2406 156.189C90.3278 156.317 91.3588 156.368 92.5315 156.302C93.7039 156.237 94.8459 156.264 95.0687 156.364C95.2915 156.464 95.5559 156.463 95.6569 156.363C95.8515 156.169 99.1954 156.089 99.5967 156.268C99.7275 156.327 100.342 156.329 100.962 156.272C101.582 156.216 102.256 156.245 102.461 156.337C102.665 156.428 102.883 156.389 102.946 156.251C103.008 156.112 103.28 156.097 103.55 156.218C103.82 156.339 104.162 156.355 104.31 156.255C104.635 156.036 103.531 155.495 103.053 155.64C102.869 155.695 102.139 155.664 101.429 155.57C100.268 155.415 98.1916 155.271 96.5702 155.231C96.2398 155.223 95.5671 155.123 95.0752 155.01C93.8251 154.721 94.1672 154.085 95.5375 154.15C96.11 154.177 96.6453 154.05 96.7273 153.868C96.8091 153.685 97.0468 153.613 97.2555 153.706C97.4641 153.799 97.6858 153.762 97.7482 153.623C97.8105 153.485 98.061 153.46 98.3042 153.569C98.5476 153.677 99.205 153.63 99.7651 153.464C100.325 153.298 100.936 153.231 101.123 153.315C101.31 153.398 101.509 153.365 101.564 153.242C101.62 153.118 101.957 153.068 102.314 153.132C102.679 153.196 103.281 152.967 103.688 152.609C104.186 152.171 104.785 151.991 105.599 152.035C106.252 152.07 106.865 152.023 106.962 151.931C107.059 151.838 107.357 151.86 107.623 151.979C107.89 152.099 108.159 152.083 108.222 151.944C108.284 151.805 108.563 151.793 108.841 151.918C109.119 152.042 109.398 152.03 109.46 151.892C109.522 151.753 109.782 151.733 110.037 151.847C110.292 151.961 110.613 152.011 110.751 151.959C111.224 151.779 113.184 152.051 113.993 152.409C114.438 152.605 114.923 152.684 115.072 152.583C115.22 152.483 115.684 152.554 116.102 152.741C116.748 153.03 116.873 152.994 116.929 152.505C116.987 152.004 117.11 151.98 117.876 152.323C118.361 152.539 118.741 152.877 118.722 153.073C118.695 153.342 118.868 153.43 119.421 153.431C120.168 153.432 122.783 148.614 122.285 148.154C122.191 148.067 122.228 147.574 122.369 147.058C122.509 146.542 122.608 145.771 122.589 145.344C122.571 144.917 122.615 144.25 122.688 143.863C122.762 143.476 122.714 142.5 122.582 141.695C122.192 139.307 122.581 138.283 124.08 137.756C126.832 136.789 129.144 136.151 129.432 136.28C129.599 136.354 129.9 136.232 130.1 136.009C130.3 135.785 130.764 135.458 131.13 135.282C133.515 134.138 133.523 134.13 136.451 130.026C138.408 127.283 139.543 125.857 141.393 123.817C141.854 123.308 142.382 122.556 142.567 122.145C142.778 121.673 143.033 121.455 143.255 121.554C143.965 121.871 145.111 119.76 146.034 116.434C146.683 114.098 153.197 99.6161 153.682 99.4318C153.884 99.3551 154.232 98.8901 154.456 98.3989C155.061 97.0726 159.867 90.0185 160.714 89.2135C161.266 88.6891 162.473 86.7737 163.191 85.2841C163.573 84.4908 163.825 84.2113 164 84.3869C164.19 84.5773 164.489 84.0844 165.175 82.4492C165.714 81.163 166.215 80.2682 166.385 80.2853C166.715 80.3187 171.306 70.567 171.227 70.0022C171.2 69.8099 171.222 69.5355 171.275 69.3926C171.328 69.2496 171.781 67.9637 172.283 66.5354C173.108 64.1857 173.252 63.9259 173.799 63.8096C174.365 63.6893 174.39 63.6388 174.191 63.0266C174.074 62.667 174.083 62.1382 174.212 61.8516C174.482 61.2511 174.116 60.7848 173.266 60.6427C172.925 60.586 172.727 60.4241 172.8 60.2623C172.87 60.1071 172.706 59.8818 172.436 59.761C172.166 59.6402 171.925 59.3965 171.902 59.2192C171.878 59.042 171.588 58.7758 171.256 58.6276C170.925 58.4795 170.635 58.2132 170.611 58.036C170.587 57.8588 170.234 57.5642 169.824 57.3812C169.415 57.1982 169.132 56.935 169.194 56.7962C169.256 56.6575 168.916 56.3688 168.437 56.1548C167.958 55.9407 167.548 55.6206 167.524 55.4434C167.5 55.2661 167.096 54.949 166.626 54.7387C166.155 54.5283 165.751 54.2112 165.728 54.0339C165.621 53.2308 163.47 52.6824 162.968 53.3302C162.705 53.6705 161.764 54.5418 160.878 55.2663C159.992 55.991 159.151 56.8421 159.009 57.1576C158.609 58.0466 156.666 60.663 151.782 66.8869C145.614 74.7481 144.908 75.6975 143.893 77.4882C143.15 78.7991 142.954 78.9952 142.679 78.6999C142.111 78.0898 141.521 77.7306 138.123 75.9288C136.302 74.9628 134.419 73.9073 133.938 73.5832C133.386 73.2114 133.02 73.0914 132.945 73.2585C132.879 73.404 132.383 73.3677 131.842 73.1775C131.119 72.9233 130.725 72.9523 130.354 73.2876C130.01 73.5982 129.632 73.6465 129.169 73.4393C128.28 73.042 127.419 73.389 127.005 74.3112C126.775 74.8219 126.547 74.994 126.267 74.8685C126 74.7492 125.975 74.5731 126.193 74.3562C126.376 74.1745 126.777 73.4674 127.083 72.7849C127.52 71.8135 127.729 71.5835 128.047 71.7257C128.314 71.8451 128.462 71.7466 128.479 71.4397C128.494 71.1824 128.552 70.8677 128.609 70.7403C128.667 70.6128 128.557 70.4386 128.366 70.3531C127.94 70.1625 127.21 71.1518 126.327 73.1155C125.689 74.5373 125.635 74.5861 125.015 74.3086C124.139 73.9172 122.355 72.4939 122.456 72.2681C122.612 71.9207 121.507 70.9217 120.437 70.4434C119.846 70.1789 119.292 69.7793 119.206 69.5553C119.048 69.1417 115.969 67.8876 114.488 67.6336C113.628 67.4863 113.576 66.7201 114.275 64.5062C114.506 63.7761 114.962 62.1395 115.29 60.8694C116.142 57.567 118.878 49.5775 119.361 48.9823C119.585 48.7057 119.948 47.7416 120.168 46.8399C121.182 42.6766 121.359 41.8039 122.623 34.7569C122.974 32.797 123.632 30.444 124.152 29.2867C124.445 28.6357 124.57 28.0525 124.431 27.9903C124.276 27.921 124.711 26.6903 125.551 24.8209L126.924 21.7644L126.116 21.5361C125.564 21.3806 125.355 21.2016 125.458 20.9733C125.633 20.584 124.505 19.9973 124.104 20.2687ZM124.749 25.254C123.149 28.8161 122.716 29.1024 123.239 26.254C123.567 24.4643 123.646 24.2834 124.183 24.0792C124.913 23.8019 124.955 23.7063 124.699 22.9183C124.443 22.1334 124.963 21.562 125.653 21.8704C126.141 22.089 126.098 22.252 124.749 25.254ZM122.61 23.2543C122.42 23.6787 122.153 24.548 122.019 25.1865C121.884 25.8249 121.551 27.2024 121.279 28.2474C121.008 29.2926 120.728 30.5309 120.657 30.9993C120.587 31.4678 120.439 32.356 120.328 32.9732C119.944 35.1181 119.596 37.5133 119.213 40.6555C119.001 42.3938 118.571 44.7242 118.258 45.834C117.944 46.9438 117.605 48.2918 117.503 48.8296C117.401 49.3673 116.935 50.9998 116.468 52.4575C116.002 53.9154 115.42 55.8369 115.176 56.7277C114.932 57.6186 114.333 59.7369 113.844 61.4349C113.356 63.1329 112.717 65.506 112.424 66.7085C111.641 69.9284 110.493 72.1578 110.363 70.7081C110.336 70.4058 110.177 70.097 110.011 70.0219C109.844 69.947 109.671 69.3582 109.627 68.7138C109.514 67.0881 108.638 66.5198 108.098 67.722C107.702 68.6043 107.076 69.0131 106.508 68.7594C106.327 68.6785 106.304 68.3356 106.456 67.997C107.001 66.7828 105.102 66.0222 96.6747 64.0802C95.9935 63.9231 94.892 63.6371 94.227 63.4443L93.0176 63.094L93.7667 61.4267C94.2903 60.2613 94.6108 59.8022 94.8318 59.9011C95.0057 59.9792 95.0676 60.2214 94.9695 60.4396C94.8599 60.6836 94.9773 60.8785 95.2739 60.9451C95.9153 61.0892 96.6013 59.2474 96.5058 57.6381C96.4684 57.0069 96.6877 55.6563 96.993 54.6368C97.2982 53.6174 97.884 51.5701 98.2945 50.0872C98.7051 48.6042 99.3041 46.7586 99.6258 45.9859C100.284 44.4032 101.267 41.3557 102.401 37.3794C103.766 32.5957 103.983 31.7572 104.37 29.7755C104.757 27.7907 104.827 27.3456 105.195 24.5035C105.518 22.0027 106.153 21.627 110.218 21.5329C110.868 21.5178 111.644 21.4899 111.942 21.4707C112.241 21.4516 112.77 21.5633 113.118 21.7187C114.704 22.4284 121.442 22.9676 121.988 22.4284C122.526 21.8982 122.961 22.4749 122.61 23.2543ZM166.529 57.7414C167.039 58.2943 167.675 58.8441 167.942 58.9633C168.208 59.0825 168.382 59.2795 168.327 59.4009C168.273 59.5223 168.94 59.9391 169.81 60.327C172.878 61.6955 172.93 62.7631 170.133 66.8942C167.732 70.4405 165.688 73.942 162.199 80.4844C160.321 84.0067 157.39 88.6765 155.739 90.7762C155.4 91.2077 154.572 92.6103 153.901 93.893C152.792 96.009 152.597 96.2475 151.796 96.4658L150.913 96.7064L149.294 100.498C146.959 105.962 145.105 109.763 144.752 109.81C144.578 109.833 143.554 111.813 142.393 114.369C140.889 117.677 140.101 119.145 139.449 119.852C138.959 120.383 137.995 121.792 137.305 122.984C134.995 126.975 131.153 132.505 130.799 132.346C130.619 132.266 130.131 132.47 129.716 132.8C129.187 133.22 128.838 133.303 128.557 133.077C128.247 132.828 127.986 132.949 127.421 133.601C127.018 134.066 126.587 134.401 126.463 134.346C126.339 134.29 126.063 134.44 125.85 134.678C125.637 134.916 125.353 135.061 125.218 135.001C125.084 134.941 124.487 135.083 123.892 135.317C123.297 135.551 122.752 135.716 122.68 135.684C122.608 135.652 122.108 135.767 121.568 135.938C121.029 136.11 119.959 136.45 119.191 136.693C118.422 136.936 117.702 137.094 117.59 137.044C117.478 136.994 117.285 137.18 117.16 137.458C116.881 138.078 117.349 138.313 118.615 138.187C119.79 138.07 120.271 138.994 119.964 140.776C119.865 141.346 119.764 142.281 119.739 142.853C119.541 147.3 119.025 148.594 117.688 147.996C117.206 147.781 116.533 147.624 116.191 147.648C115.688 147.684 114.541 147.358 112.672 146.65C112.575 146.613 112.277 146.656 112.01 146.745C111.069 147.058 109.398 147.136 106.726 146.992C105.481 146.925 104.563 146.914 102.517 146.939C101.394 146.953 100.354 146.91 100.206 146.844C100.058 146.778 99.8859 146.837 99.8236 146.976C99.7612 147.115 99.4894 147.13 99.2193 147.009C98.9492 146.888 98.6071 146.872 98.4588 146.972C98.3105 147.072 97.9684 147.056 97.6983 146.935C97.4282 146.814 97.1564 146.829 97.094 146.968C97.0317 147.106 96.7531 147.118 96.4749 146.994C96.1967 146.869 95.9181 146.881 95.8557 147.02C95.7934 147.159 95.5428 147.183 95.2993 147.075C94.8918 146.894 92.8678 147.023 92.4076 147.259C92.2989 147.314 91.7991 147.362 91.2966 147.365C90.7942 147.368 90.0266 147.404 89.5907 147.444C89.1548 147.485 88.2847 147.521 87.6566 147.524C87.0288 147.528 86.4758 147.617 86.4282 147.723C86.3806 147.829 86.114 147.814 85.8358 147.69C85.5576 147.565 85.2852 147.563 85.2304 147.685C85.1756 147.807 84.7259 147.896 84.2312 147.881C83.7365 147.867 83.2869 147.955 83.2321 148.077C83.1772 148.199 82.9617 148.223 82.7531 148.129C82.5445 148.036 82.3227 148.073 82.2604 148.212C82.198 148.351 82.0014 148.399 81.8236 148.32C81.6455 148.24 81.234 148.329 80.9087 148.516C80.5835 148.704 80.1719 148.793 79.9938 148.713C79.8161 148.634 79.6319 148.654 79.5847 148.759C79.5375 148.864 79.0567 148.946 78.5159 148.941C76.8025 148.926 74.495 149.406 73.7462 149.934C73.3483 150.215 72.9076 150.392 72.7668 150.329C72.6256 150.266 71.8611 150.333 71.0676 150.479C70.2741 150.624 69.503 150.688 69.3543 150.621C69.2053 150.555 69.0327 150.614 68.9703 150.753C68.908 150.891 68.6862 150.929 68.4776 150.835C68.269 150.742 68.0472 150.779 67.9849 150.918C67.9225 151.057 67.7496 151.116 67.6007 151.049C67.4515 150.982 67.116 151.003 66.8548 151.094C65.7721 151.474 64.8943 151.657 64.6596 151.552C64.522 151.49 64.3585 151.554 64.2961 151.692C64.2338 151.831 64.0221 151.873 63.8259 151.785C63.6296 151.697 63.0287 151.838 62.4904 152.097C60.3146 153.145 60.427 152.867 64.1517 147.992C68.4887 142.314 68.5471 142.231 69.2087 140.758C69.5395 140.022 70.4786 138.501 71.2957 137.378C72.1126 136.255 73.2271 134.377 73.7717 133.204C74.3166 132.031 75.0569 130.727 75.4168 130.306C75.7768 129.885 76.2349 129.176 76.4349 128.731C76.6349 128.286 77.0025 127.904 77.2518 127.882C77.5861 127.852 78.0649 127.128 79.0767 125.122C79.8312 123.627 80.7693 121.895 81.161 121.274L81.8736 120.145L84.118 121.333C85.3525 121.986 86.604 122.743 86.8994 123.016C87.7068 123.76 89.3656 124.686 89.7904 124.629C90.4169 124.546 90.2691 123.614 89.581 123.306C89.2294 123.149 88.577 122.732 88.1309 122.381C87.6849 122.029 86.7556 121.325 86.0657 120.815C83.9723 119.269 81.6945 115.757 82.3579 115.098C82.5333 114.924 82.327 114.546 81.7887 114.056C81.3243 113.633 80.9872 113.191 81.0396 113.075C81.092 112.958 80.9931 112.798 80.8197 112.719C80.6464 112.64 80.2528 111.966 79.9451 111.221C79.5862 110.352 79.2778 109.939 79.0846 110.07C78.749 110.297 77.7382 109.607 77.8953 109.257C77.9502 109.135 77.8246 108.958 77.616 108.865C77.4074 108.772 77.2877 108.582 77.35 108.443C77.4124 108.304 77.2927 108.114 77.084 108.021C76.8754 107.928 76.7557 107.738 76.8181 107.599C76.8804 107.46 76.7607 107.27 76.5521 107.177C76.3434 107.084 76.2142 106.915 76.2649 106.802C76.3157 106.689 76.0289 106.263 75.6277 105.855C75.2264 105.446 74.9397 105.02 74.9905 104.907C75.0411 104.794 74.9119 104.625 74.7033 104.532C74.4946 104.439 74.3713 104.257 74.4292 104.128C74.487 103.999 74.455 103.678 74.3578 103.414C73.7925 101.881 73.8272 100.807 74.4329 101.078C74.6415 101.171 74.8632 101.134 74.9256 100.995C74.9879 100.857 74.7989 100.636 74.5056 100.505C74.2122 100.373 73.8285 99.9343 73.6532 99.5289C72.6011 97.0988 72.4252 96.6096 72.2849 95.7239C71.8928 93.246 71.712 89.0842 71.9415 87.8215C72.0134 87.4249 71.975 86.5493 71.8558 85.8757C71.7364 85.2024 71.6862 84.5463 71.7439 84.4179C71.8015 84.2897 71.816 83.632 71.7757 82.9565C71.7357 82.281 71.9233 80.8948 72.1924 79.8761C72.681 78.0262 72.6089 77.0268 71.9919 77.1087C71.8124 77.1324 71.6106 77.46 71.5438 77.8364C71.4766 78.213 71.3333 78.4814 71.2248 78.4328C70.9077 78.291 70.466 77.1223 70.6091 76.8039C70.6813 76.6432 70.7238 75.9402 70.7038 75.2412C70.6574 73.6261 71.2646 72.1929 71.9629 72.2698C72.4977 72.3286 74.2441 70.3271 75.9358 67.7172C76.4228 66.9657 77.0694 66.2567 77.3724 66.1414C77.6756 66.0261 78.0095 65.7406 78.1145 65.507C78.4914 64.668 79.7822 65.0162 85.1574 67.407C88.0115 68.6762 90.8518 69.8073 91.4692 69.9201C92.0867 70.0329 93.1335 70.3644 93.7958 70.6567C94.5233 70.9775 95.0508 71.0743 95.1288 70.9007C95.2207 70.6961 94.7429 70.4469 93.4678 70.0348C89.1914 68.6527 87.3523 67.9296 87.4685 67.6764C87.6336 67.3163 89.0926 67.334 89.9249 67.7062C90.3063 67.8768 90.7261 67.9434 90.8583 67.854C90.9901 67.7648 91.4964 67.7966 91.9834 67.9247C92.4701 68.0527 93.4393 68.2562 94.1368 68.3766C96.0274 68.7034 98.3973 69.3717 100.808 70.2582C103.144 71.1168 103.95 70.9484 101.898 70.0306C101.202 69.7195 100.684 69.3515 100.747 69.2128C100.809 69.074 101.179 69.103 101.568 69.2771C101.958 69.4513 102.429 69.5438 102.615 69.4822C103.114 69.318 104.752 69.7617 104.632 70.0286C104.575 70.1545 104.749 70.4517 105.019 70.6891C105.527 71.1378 105.708 71.6605 105.512 72.1147C105.449 72.2604 104.648 72.3009 103.73 72.2046C102.813 72.1082 101.913 72.0747 101.729 72.1298C101.188 72.2924 102.275 72.6542 103.665 72.7742C104.814 72.8734 104.971 72.944 105.201 73.4655C105.341 73.7847 105.585 74.1037 105.743 74.1742C106.63 74.5708 105.354 77.5157 103.615 79.0882C100.657 81.762 99.3377 82.8241 99.104 82.7196C98.729 82.5519 94.851 82.7178 94.643 82.9104C94.5475 82.9986 94.2514 82.9735 93.9848 82.8543C93.7183 82.7351 93.449 82.751 93.3867 82.8898C93.3243 83.0286 93.0897 83.06 92.8651 82.9596C92.6408 82.8592 91.9453 82.81 91.3198 82.8502C89.8926 82.9422 88.3895 82.776 87.6475 82.4442C87.2014 82.2447 87.0561 82.3118 86.9822 82.7527C86.9059 83.2079 86.7633 83.2608 86.2416 83.0275C85.8744 82.8633 85.0854 82.9077 84.4138 83.1303L83.232 83.5218L84.4014 83.6229C86.5338 83.8075 90.5863 85.4459 91.1509 86.3517C91.4169 86.7785 91.8639 87.3775 92.1443 87.6829C92.6291 88.2112 92.9362 88.533 94.2697 89.913C94.5884 90.2431 95.0718 90.6126 95.3434 90.7341C95.615 90.8555 95.7863 91.0685 95.7239 91.2072C95.6616 91.346 95.8314 91.5583 96.1015 91.6791C96.3715 91.7999 96.6116 92.0436 96.6353 92.2208C96.6589 92.398 96.8899 92.6377 97.1486 92.7534C97.6852 92.9934 98.8196 94.4461 98.694 94.7323C98.6479 94.8369 98.7397 94.98 98.8975 95.0506C99.0556 95.1213 99.3177 95.5451 99.4801 95.9929C99.6424 96.4406 100.151 97.7016 100.61 98.7949C101.069 99.8885 101.406 100.867 101.36 100.97C101.314 101.072 101.444 101.924 101.649 102.863C101.854 103.801 102.078 104.897 102.149 105.299C102.219 105.7 102.358 106.256 102.457 106.535C102.687 107.175 102.499 109.927 102.176 110.646C101.925 111.205 102.232 111.692 103.074 112.069C103.376 112.204 103.508 112.545 103.43 112.985C103.361 113.371 103.406 113.733 103.53 113.788C103.939 113.971 104.103 113.142 103.917 111.84C103.696 110.29 103.807 109.973 104.471 110.269C104.749 110.394 105.028 110.382 105.09 110.243C105.152 110.105 105.113 109.951 105.003 109.901C104.893 109.852 104.87 109.092 104.953 108.213C105.036 107.333 105.027 106.579 104.933 106.537C104.598 106.387 104.76 105.041 105.186 104.433C105.657 103.762 108.542 104.675 108.898 105.608C109.007 105.892 109.236 105.978 109.709 105.913C110.491 105.805 111.005 106.542 110.67 107.289C110.477 107.717 110.783 108.249 111.521 108.774C111.711 108.908 112.491 109.455 113.253 109.988C114.016 110.522 114.663 111.115 114.692 111.308C114.789 111.961 123.917 115.711 124.327 115.266C124.471 115.111 124.383 114.82 124.133 114.619C123.528 114.134 123.597 113.431 124.275 113.173C124.638 113.036 125.067 112.438 125.54 111.413C126.457 109.428 128.125 107.137 128.618 107.186C128.924 107.217 128.769 107.641 127.84 109.319C127.12 110.62 126.773 111.456 126.924 111.523C127.061 111.585 127.991 109.995 129.065 107.86C131.412 103.196 132.126 102.033 132.529 102.213C132.76 102.316 132.588 102.831 131.869 104.19C131.196 105.464 130.985 106.068 131.183 106.156C131.349 106.23 131.661 105.858 131.923 105.275C132.173 104.72 132.48 104.312 132.606 104.368C132.732 104.425 133.191 103.846 133.625 103.082C138.572 94.3757 141.232 88.8265 141.831 85.96C142.041 84.953 142.289 84.3142 142.482 84.2818C142.761 84.2351 143.387 83.2851 146.594 78.0504C147.074 77.2655 148.484 75.3734 149.726 73.8456C151.45 71.7249 152.247 70.5044 153.097 68.6871C153.71 67.3778 154.762 65.5985 155.435 64.7331C156.109 63.8678 156.976 62.7558 157.363 62.2619C157.749 61.7681 158.415 60.8385 158.842 60.1963C160.506 57.6928 161.109 57.1141 162.976 56.2224C164.213 55.6324 164.822 55.8927 166.529 57.7414ZM135.986 78.8884C141.247 81.525 141.461 81.7242 140.425 83.0244C140.085 83.4523 139.124 85.1332 138.29 86.7602C136.738 89.7877 134.277 93.6412 133.513 94.2403C133.278 94.4246 132.872 95.0516 132.611 95.6332C132.349 96.215 131.871 96.9919 131.549 97.3595C131.226 97.7269 129.996 99.8454 128.815 102.067C127.635 104.289 126.261 106.606 125.763 107.217C125.264 107.827 124.391 109.141 123.821 110.136C122.273 112.838 122.084 112.813 115.302 109.011C111.676 106.978 111.837 107.547 113.557 102.846C114.264 100.915 114.921 98.839 115.018 98.2328C115.186 97.1889 117.373 92.2537 118.04 91.4155C118.51 90.8254 118.801 91.1167 118.765 92.1419C118.738 92.912 119.095 92.2197 120.977 87.858C122.806 83.6194 123.422 82.4166 124.301 81.3667C124.895 80.6581 125.595 79.7695 125.857 79.3921C126.643 78.2605 128.825 78.1059 128.071 79.2357C127.687 79.8108 128.708 80.2286 129.107 79.6599C129.46 79.158 129.167 78.6009 128.357 78.2318C127.879 78.0145 127.851 77.836 128.177 77.1111C129.02 75.2334 128.42 75.0967 135.986 78.8884ZM124.449 76.3449C124.467 77.1778 124.351 77.5338 123.954 77.866C123.363 78.3611 122.819 79.0788 121.519 81.0781C118.84 85.1997 117.956 86.3827 117.501 86.4535C117.076 86.5198 112.565 96.8216 112.619 97.6005C112.645 97.9715 112.216 98.6801 111.276 99.8182C110.517 100.738 109.864 101.76 109.826 102.089C109.76 102.663 109.692 102.651 108.085 101.783C104.741 99.9782 103.385 98.4913 103.945 97.2441C104.309 96.4349 102.596 93.3716 101.508 92.8851C100.909 92.6169 100.889 91.7038 101.451 90.2307C101.758 89.4258 101.932 88.6528 101.838 88.5131C101.317 87.7418 102.656 86.1263 103.502 86.5046C103.698 86.5923 104.001 86.523 104.174 86.3505C104.348 86.1782 104.705 86.1336 104.969 86.2513C105.232 86.369 105.469 86.418 105.495 86.3599C105.521 86.3019 105.714 86.0813 105.923 85.8699C106.258 85.5324 106.234 85.5044 105.727 85.6397C104.819 85.8821 104.462 85.278 104.916 84.2677C105.345 83.3122 106.366 83.3645 106.642 84.3567C106.879 85.2055 108.034 85.5961 108.123 84.8574C108.165 84.5025 108.145 84.119 108.077 84.0054C108.009 83.8918 108.086 83.3136 108.247 82.7203C108.408 82.127 108.441 81.5508 108.32 81.4399C107.69 80.862 111.903 73.1736 113.197 72.5393C113.426 72.4273 113.573 72.2313 113.525 72.1042C113.416 71.8205 114.974 71.3575 115.417 71.5416C115.593 71.6149 115.679 71.8054 115.607 71.9651C115.513 72.1748 116.164 72.5104 117.95 73.1725C119.491 73.7439 120.381 74.1819 120.313 74.335C120.252 74.47 120.521 74.723 120.91 74.8972C121.869 75.3261 122.035 75.909 121.523 77.0497C121.286 77.577 121.206 78.0593 121.345 78.1215C121.484 78.1837 121.824 77.7305 122.101 77.1141C122.378 76.4977 122.756 75.9736 122.941 75.9491C123.125 75.9245 123.305 75.6561 123.34 75.3523C123.463 74.2866 124.423 75.1461 124.449 76.3449ZM114.41 73.1191C114.84 73.3783 115.523 73.6827 115.929 73.7951C116.335 73.9073 115.984 73.695 115.148 73.3233C114.313 72.9514 113.981 72.8595 114.41 73.1191ZM130.336 80.2484C129.598 80.1007 129.55 80.5792 130.27 80.9011C130.618 81.0566 130.95 81.0772 131.009 80.9465C131.157 80.6177 130.912 80.3639 130.336 80.2484ZM99.2726 71.4794C98.2188 71.2224 96.9576 70.9119 96.4696 70.7895C95.9815 70.667 95.5401 70.6613 95.4882 70.7766C95.3689 71.0423 97.7929 71.8485 98.2494 71.6951C98.4362 71.6323 98.9941 71.76 99.4887 71.9787C100.329 72.3502 101.439 72.4217 101.266 72.093C101.223 72.0125 100.327 71.7362 99.2726 71.4794ZM117.837 95.1227C117.005 97.3373 116.88 98.0253 117.32 97.9669C117.806 97.9023 118.841 95.2981 118.586 94.7803C118.46 94.525 118.411 94.043 118.476 93.7094C118.542 93.3761 118.254 94.0119 117.837 95.1227ZM98.7803 87.3472C98.7393 87.6204 98.6642 88.1322 98.6139 88.4848C98.5377 89.0195 98.4257 89.0809 97.9399 88.8554C97.2552 88.538 96.7121 87.6558 96.9186 87.1964C97.2758 86.4014 98.9031 86.5331 98.7803 87.3472ZM71.2614 92.1961C71.4333 93.485 71.095 94.3827 70.4512 94.3475C69.7769 94.3105 69.7244 93.8682 70.2064 92.2945C70.7059 90.6635 71.053 90.6312 71.2614 92.1961ZM75.6692 131.932L74.6006 134.333L75.5389 132.852C76.1088 131.952 76.5286 131.009 76.6075 130.451C76.71 129.727 76.5099 130.042 75.6692 131.932ZM108.348 156.057C107.847 156.056 107.05 156.042 106.576 156.026C105.13 155.977 105.787 156.434 107.295 156.527C108.952 156.628 110.205 156.463 109.634 156.219C109.427 156.13 108.849 156.057 108.348 156.057Z" fill="#60F71E"/>
</svg>
