<svg width="265" height="109" viewBox="0 0 265 109" fill="none" xmlns="http://www.w3.org/2000/svg">
<path d="M1.22692 0.796875H14.8988C41.2009 0.796875 54.3519 2.22917 54.3519 5.09375C61.1228 9.0651 64.5082 16.487 64.5082 27.3594V32.8281C64.5082 42.0078 62.555 47.737 58.6488 50.0156C55.7842 51.5781 52.9196 52.3594 50.055 52.3594C50.055 52.6849 52.2686 53.5964 56.6957 55.0938C61.904 58.1536 64.5082 63.4922 64.5082 71.1094V108.219C64.5082 108.74 64.2478 109 63.7269 109H38.7269C38.2061 109 37.9457 108.74 37.9457 108.219V70.3281H29.3519V108.219C29.3519 108.74 22.5212 108.219 22.0004 108.219C14.8988 105.5 9.00035 108.219 0.44567 104L0.445663 92.2031L0.44567 78C0.510774 77.4792 -0.0100594 66.8125 0.44567 66.8125C0.44567 67.0078 0.44567 62.5156 0.44567 62.5156V1.57812C0.510774 1.05729 0.771191 0.796875 1.22692 0.796875ZM28.5707 23.4531V48.4531H37.1644V23.4531H28.5707Z" fill="white"/>
<path d="M69.9769 1.1875H94.5863C95.628 1.1875 97.1905 7.69792 99.2738 20.7188C100.055 23.1276 101.357 30.1589 103.18 41.8125H103.571C107.151 14.7292 109.625 1.1875 110.993 1.1875H135.602C136.123 1.2526 136.383 1.51302 136.383 1.96875C123.102 47.151 116.461 70.5885 116.461 72.2812V109H115.68C100.12 99.1693 91.5264 93.5703 89.8988 92.2031V71.5C89.8988 70.9141 82.9978 47.6068 69.1957 1.57812L69.9769 1.1875Z" fill="white"/>
<path d="M136.969 0.796875H160.016C179.026 0.796875 190.224 3.53125 193.61 9C196.474 12.6458 197.907 19.1562 197.907 28.5312V42.2031C197.907 52.8151 195.042 59.5859 189.313 62.5156C184.625 64.599 178.375 65.6406 170.563 65.6406H165.094V108.219C165.094 108.74 164.834 109 164.313 109H136.969C136.448 109 136.188 108.74 136.188 108.219V1.57812C136.253 1.05729 136.513 0.796875 136.969 0.796875ZM165.094 22.6719V44.1562H172.907V22.6719H165.094Z" fill="white"/>
<path d="M203.375 0.796875H264.703V1.1875C257.672 5.875 254.157 12.9062 254.157 22.2812L253.375 22.6719H231.5V42.9844H253.375C253.896 43.0495 254.157 43.3099 254.157 43.7656V62.9062C254.157 63.4271 253.896 63.6875 253.375 63.6875H231.5V87.125H251.422C253.506 87.125 254.547 87.9062 254.547 89.4688C255.654 96.6302 257.347 101.448 259.625 103.922L264.703 108.609V109H203.375C202.855 109 202.594 108.74 202.594 108.219V1.57812C202.659 1.05729 202.92 0.796875 203.375 0.796875Z" fill="white"/>
</svg>
